<?xml version="1.0" standalone="no"?>
<!DOCTYPE svg PUBLIC "-//W3C//DTD SVG 1.1//EN" "http://www.w3.org/Graphics/SVG/1.1/DTD/svg11.dtd" >
<svg>
<metadata>
Created by FontForge 20110222 at Thu Sep  4 06:50:05 2014
 By Orthosie Webhosting
Copyright (c) Emigre Inc, 2011. Designed by Zuzana Licko. All rights reserved.
</metadata>
<defs>
<font id="MrEavesModOTBookItalic" horiz-adv-x="487" >
  <font-face 
    font-family="MrEavesModOTBookItalic"
    font-weight="350"
    font-style="italic"
    font-stretch="normal"
    units-per-em="1000"
    panose-1="2 11 5 3 6 5 2 9 2 2"
    ascent="800"
    descent="-200"
    x-height="341"
    cap-height="600"
    bbox="-128 -224.154 884.62 850"
    underline-thickness="30"
    underline-position="-70"
    slope="-12"
    unicode-range="U+0010-FB02"
  />
<missing-glyph horiz-adv-x="500" 
 />
    <glyph glyph-name="fi" unicode="fi" horiz-adv-x="390" 
d="M282 609l-7 -37q-14 4 -23 4q-33 0 -53.5 -21t-29.5 -75l-25 -139h92l-7 -38h-91l-53 -303h-51l53 303h-65l7 38h64l25 139q24 135 130 135q16 0 34 -6zM378 457h-51l10 61h51zM297 0h-51l60 341h51z" />
    <glyph glyph-name="fl" unicode="fl" horiz-adv-x="386" 
d="M400 610l-108 -610h-51l99 563q-32 13 -64 13q-46 0 -73 -25t-38 -91l-21 -119h92l-7 -38h-91l-53 -303h-51l53 303h-65l7 38h64l20 113q29 159 165 159q27 0 69 -13z" />
    <glyph glyph-name=".notdef" horiz-adv-x="500" 
 />
    <glyph glyph-name=".null" horiz-adv-x="0" 
 />
    <glyph glyph-name="nonmarkingreturn" horiz-adv-x="333" 
 />
    <glyph glyph-name="DLE" horiz-adv-x="460" 
d="M443 377l-92 -79q24 -39 18 -82q-4 -50 -42 -88l59 -71l-30 -24l-58 71q-40 -25 -83 -25q-49 0 -84 32l-91 -78l-22 27l91 78q-24 36 -19 83q4 48 41 88l-57 70l29 24l58 -71q38 26 84 26q48 0 83 -32l92 78zM241 324q-43 0 -77 -31t-38 -75q-5 -44 22 -74t70 -30
q44 0 78 30.5t38 73.5q4 44 -23 75t-70 31z" />
    <glyph glyph-name="space" unicode=" " horiz-adv-x="147" 
 />
    <glyph glyph-name="exclam" unicode="!" horiz-adv-x="212" 
d="M142 600h67l-94 -437h-35zM102 0h-66l12 66h66z" />
    <glyph glyph-name="quotedbl" unicode="&#x22;" horiz-adv-x="325" 
d="M337 600l-57 -183h-22l8 183h71zM197 600l-57 -183h-22l8 183h71z" />
    <glyph glyph-name="numbersign" unicode="#" horiz-adv-x="398" 
d="M419 464l-12 -39h-68l-47 -155h71l-13 -39h-69l-40 -137h-39l40 137h-108l-40 -137h-39l40 137h-70l12 39h69l46 155h-70l12 39h69l40 136h39l-40 -136h108l40 136h39l-39 -136h69zM299 425h-108l-46 -155h109z" />
    <glyph glyph-name="dollar" unicode="$" horiz-adv-x="438" 
d="M300 556l-39 -220q146 -51 129 -179q-10 -76 -62.5 -116.5t-126.5 -43.5l-14 -80h-32l14 81q-88 7 -142 70l18 51q18 -20 31 -32t41 -26.5t60 -17.5l45 253q-69 19 -102.5 64.5t-24.5 105.5q9 59 59 98t122 40l14 79h32l-14 -81q33 -4 62.5 -18t44.5 -31l-16 -42
q-41 37 -99 45zM231 346l37 212q-48 -2 -82 -27t-40 -67q-12 -84 85 -118zM252 285l-43 -243q52 4 87.5 34.5t42.5 79.5q13 88 -87 129z" />
    <glyph glyph-name="percent" unicode="%" horiz-adv-x="641" 
d="M332 468q-8 -65 -47.5 -105t-91.5 -40q-49 0 -80.5 40.5t-23.5 104.5q8 65 48 105t91 40q49 0 80.5 -40.5t23.5 -104.5zM571 600l-453 -618l-23 17l453 618zM579 133q-8 -65 -47.5 -105t-91.5 -40q-49 0 -80.5 40.5t-23.5 104.5q8 65 48 105t91 40q49 0 80.5 -40.5
t23.5 -104.5zM288 468q7 49 -12 78.5t-52 29.5t-58.5 -29t-32.5 -79q-7 -49 12 -78.5t52 -29.5t58.5 29t32.5 79zM535 133q7 49 -12 78.5t-52 29.5t-58.5 -29t-32.5 -79q-7 -49 12 -78.5t52 -29.5t58.5 29t32.5 79z" />
    <glyph glyph-name="ampersand" unicode="&#x26;" horiz-adv-x="634" 
d="M599 34q-41 -50 -97 -50q-37 0 -64.5 13.5t-62.5 47.5q-61 -61 -151 -61q-80 0 -134.5 44.5t-46.5 127.5q9 89 135 164q-38 81 -31 154q6 61 55.5 101.5t117.5 40.5q61 0 98.5 -34t32.5 -84q-2 -23 -14 -44.5t-24.5 -35.5t-40 -33t-41 -27t-48 -26.5t-42.5 -23.5
q67 -110 139 -192q38 54 52 184h133l-4 -42h-91q-22 -119 -60 -173q35 -36 56.5 -48t50.5 -12q37 0 66 32zM400 498q4 36 -21 57t-64 21q-48 0 -79.5 -29t-36.5 -72q-7 -67 24 -131q11 6 35 19.5t35.5 20t31 18.5t29.5 21.5t21.5 22t17.5 25.5t7 27zM348 76q-78 87 -149 209
q-95 -60 -103 -131q-6 -58 34.5 -93t103.5 -35q69 0 114 50z" />
    <glyph glyph-name="quotesingle" unicode="'" horiz-adv-x="198" 
d="M201 600l-57 -183h-22l8 183h71z" />
    <glyph glyph-name="parenleft" unicode="(" horiz-adv-x="290" 
d="M352 685q-182 -173 -221 -390q-39 -216 81 -392l-16 -14q-153 162 -110 406q43 245 253 406z" />
    <glyph glyph-name="parenright" unicode=")" horiz-adv-x="290" 
d="M-32 -95q182 173 221 390q39 216 -81 392l16 14q153 -162 110 -406q-43 -245 -253 -406z" />
    <glyph glyph-name="asterisk" unicode="*" horiz-adv-x="365" 
d="M221 415q-4 -28 -3 -79t1 -55q-3 -35 -32 -35t-26 35q1 6 22.5 58.5t24.5 79.5q-30 -11 -73 -37.5t-47 -28.5q-33 -14 -46 10q-13 26 17 40q6 3 60 10t84 18q-21 19 -69 44.5t-49 26.5q-29 21 -15 44q7 12 19 13.5t25 -7.5q5 -4 40.5 -48t57.5 -64q6 23 3.5 79.5
t-2.5 59.5q3 35 32 35t26 -35q-1 -6 -22 -61t-23 -78q29 11 71.5 38t46.5 29q33 14 46 -10q13 -26 -17 -40q-6 -3 -62.5 -11.5t-82.5 -19.5q24 -19 70 -42.5t49 -25.5q29 -21 15 -44q-7 -12 -19 -13.5t-25 7.5q-5 4 -40.5 46.5t-56.5 60.5z" />
    <glyph glyph-name="plus" unicode="+" horiz-adv-x="404" 
d="M370 249l-8 -39h-141l-26 -148h-40l26 148h-141l8 39h141l26 148h40l-26 -148h141z" />
    <glyph glyph-name="comma" unicode="," horiz-adv-x="210" 
d="M110 66l-11 -59q-19 -101 -88 -125l-10 19q51 27 61 99h-30l12 66h66z" />
    <glyph glyph-name="hyphen" unicode="-" horiz-adv-x="266" 
d="M225 228l-7 -45h-178l7 45h178z" />
    <glyph glyph-name="period" unicode="." horiz-adv-x="210" 
d="M98 0h-66l12 66h66z" />
    <glyph glyph-name="slash" unicode="/" horiz-adv-x="297" 
d="M368 604l-380 -622l-27 14l380 622z" />
    <glyph glyph-name="zero" unicode="0" horiz-adv-x="536" 
d="M501 301q-22 -142 -95.5 -228.5t-168.5 -86.5q-98 0 -147 86.5t-27 228.5q22 141 95.5 228t168.5 87q99 0 147.5 -86.5t26.5 -228.5zM446 301q18 125 -16.5 196t-106.5 71q-69 0 -128 -72t-77 -195q-18 -124 17 -195.5t106 -71.5q70 0 128.5 72t76.5 195z" />
    <glyph glyph-name="one" unicode="1" horiz-adv-x="256" 
d="M225 611l-107 -611h-55l97 548l-64 -6l7 37z" />
    <glyph glyph-name="two" unicode="2" horiz-adv-x="436" 
d="M411 438q-9 -70 -44 -120t-90 -97l-202 -173h281l-8 -48h-352l6 40l221 195q55 48 90 95t42 107q8 66 -23 98.5t-85 32.5q-77 0 -156 -61l9 55q26 22 68 38t87 16q79 0 122.5 -48t33.5 -130z" />
    <glyph glyph-name="three" unicode="3" horiz-adv-x="462" 
d="M466 570l-237 -205q84 10 136.5 -43t41.5 -137q-12 -91 -75.5 -145t-154.5 -54q-45 0 -86.5 15.5t-65.5 39.5l8 56q58 -63 149 -63q69 0 115 40.5t55 110.5q8 63 -23.5 102.5t-92.5 39.5q-58 0 -99 -34l-22 30l265 229h-273l8 48h356z" />
    <glyph glyph-name="four" unicode="4" horiz-adv-x="491" 
d="M459 204l-7 -47h-106l-28 -157h-54l28 157h-271l5 35l367 418h33l-73 -406h106zM354 507l-266 -303h211z" />
    <glyph glyph-name="five" unicode="5" horiz-adv-x="454" 
d="M456 600l-8 -48h-271l-38 -211q48 40 112 40q76 0 121.5 -52t33.5 -139q-12 -92 -76.5 -148t-155.5 -56q-45 0 -86.5 15.5t-65.5 39.5l8 56q58 -63 149 -63q66 0 114.5 43t57.5 113q8 65 -22 106t-92 41q-80 0 -130 -78l-29 12l59 329h319z" />
    <glyph glyph-name="six" unicode="6" horiz-adv-x="497" 
d="M484 580l-8 -51q-44 37 -116 37q-92 0 -158 -73.5t-86 -209.5q23 44 67.5 69t94.5 25q86 0 132.5 -57.5t35.5 -143.5q-10 -85 -69 -137.5t-140 -52.5q-37 0 -70.5 13.5t-62.5 43.5t-41.5 88t-2.5 136q22 167 103 257.5t204 90.5q36 0 68.5 -10.5t48.5 -24.5zM393 179
q7 69 -25 110.5t-97 41.5q-57 0 -105.5 -39.5t-54.5 -99.5q-7 -73 29.5 -117.5t94.5 -44.5q63 0 107 41t51 108z" />
    <glyph glyph-name="seven" unicode="7" horiz-adv-x="415" 
d="M446 571q-60 -71 -166.5 -254.5t-153.5 -316.5h-62q50 129 155 307.5t157 244.5h-297l8 48h363z" />
    <glyph glyph-name="eight" unicode="8" horiz-adv-x="503" 
d="M463 481q-2 -52 -38 -93t-93 -56q113 -42 109 -156q-3 -85 -63.5 -137.5t-155.5 -52.5q-80 0 -133 46.5t-50 118.5t52 123t119 63q-37 16 -58.5 48t-20.5 75q2 69 54.5 112.5t124.5 43.5q66 0 110.5 -38t42.5 -97zM411 476q2 46 -27 72.5t-75 26.5q-52 0 -88 -31.5
t-38 -84.5q-2 -45 27.5 -74t74.5 -29q49 0 86.5 34.5t39.5 85.5zM249 305q-59 0 -107 -41t-50 -107q-2 -58 37.5 -93t100.5 -35t108 40t50 106q3 59 -37 94.5t-102 35.5z" />
    <glyph glyph-name="nine" unicode="9" horiz-adv-x="497" 
d="M38 22l8 51q44 -37 116 -37q92 0 158 73.5t86 209.5q-23 -44 -67.5 -69t-94.5 -25q-86 0 -132.5 57.5t-35.5 143.5q10 85 69 137.5t140 52.5q37 0 70.5 -13.5t62.5 -43.5t41.5 -88t2.5 -136q-22 -167 -103 -257.5t-204 -90.5q-36 0 -68.5 10.5t-48.5 24.5zM129 423
q-7 -69 25 -110.5t97 -41.5q57 0 105.5 39.5t54.5 99.5q7 73 -29.5 117.5t-94.5 44.5q-63 0 -107 -41t-51 -108z" />
    <glyph glyph-name="colon" unicode=":" horiz-adv-x="210" 
d="M98 0h-66l12 66h66zM145 267h-66l12 66h66z" />
    <glyph glyph-name="semicolon" unicode=";" horiz-adv-x="210" 
d="M145 267h-66l12 66h66zM110 66l-11 -59q-19 -101 -88 -125l-10 19q51 27 61 99h-30l12 66h66z" />
    <glyph glyph-name="less" unicode="&#x3c;" horiz-adv-x="408" 
d="M389 418l-267 -190l200 -190l-25 -27l-239 219l316 219z" />
    <glyph glyph-name="equal" unicode="=" horiz-adv-x="403" 
d="M350 320l-7 -39h-259l7 39h259zM325 179l-7 -39h-259l7 39h259z" />
    <glyph glyph-name="greater" unicode="&#x3e;" horiz-adv-x="408" 
d="M23 42l267 190l-200 190l25 27l239 -219l-316 -219z" />
    <glyph glyph-name="question" unicode="?" horiz-adv-x="403" 
d="M420 466q-13 -117 -171 -188l-60 -27l-16 -89h-46l21 117l62 29q76 35 112 71t41 85q6 52 -28 77.5t-92 25.5q-41 0 -91 -19.5t-82 -49.5l6 57q31 26 80.5 43.5t95.5 17.5q77 0 126.5 -38.5t41.5 -111.5zM155 0h-66l12 66h66z" />
    <glyph glyph-name="at" unicode="@" horiz-adv-x="675" 
d="M656 243q-10 -95 -77.5 -170t-132.5 -75q-55 0 -61 53q-18 -24 -46.5 -40.5t-57.5 -16.5q-61 0 -83.5 53t-0.5 130q22 76 81.5 129t121.5 53q31 0 62 -17h41l-71 -250q-8 -29 0.5 -46.5t32.5 -17.5q47 0 97.5 65t59.5 148q11 101 -52.5 166.5t-163.5 65.5
q-126 0 -225.5 -94t-113.5 -222q-13 -123 60 -201t190 -78q111 0 221 66l9 -21q-112 -74 -238 -74q-134 0 -217.5 88.5t-70.5 217.5q15 144 128.5 247.5t257.5 103.5q118 0 190 -73.5t59 -189.5zM452 306q-25 21 -57 21q-48 0 -91.5 -43.5t-61.5 -107.5q-19 -63 -4.5 -104.5
t60.5 -41.5q30 0 60.5 26.5t40.5 60.5z" />
    <glyph glyph-name="A" unicode="A" horiz-adv-x="541" 
d="M486 0h-54l-37 173h-262l-98 -173h-58l342 600h37zM384 221l-61 289l-163 -289h224z" />
    <glyph glyph-name="B" unicode="B" horiz-adv-x="468" 
d="M290 600q81 0 118.5 -43.5t27.5 -109.5q-6 -41 -31.5 -76.5t-64.5 -50.5q48 -12 71.5 -56t15.5 -96q-11 -75 -61 -121.5t-138 -46.5h-198l106 600h154zM262 292h-125l-43 -244h135q65 0 101 34.5t44 85.5t-19 87.5t-93 36.5zM384 446q7 45 -15.5 75.5t-79.5 30.5h-107
l-37 -212h113q57 0 88 30t38 76z" />
    <glyph glyph-name="C" unicode="C" horiz-adv-x="557" 
d="M562 553l-9 -57q-72 67 -179 67q-99 0 -172.5 -69.5t-88.5 -187.5q-15 -119 41.5 -194t155.5 -75q104 0 195 70l-9 -61q-85 -59 -193 -59q-118 0 -191.5 88.5t-55.5 230.5t110 224.5t215 82.5q52 0 101 -16.5t80 -43.5z" />
    <glyph glyph-name="D" unicode="D" horiz-adv-x="580" 
d="M553 293q-22 -133 -109.5 -213t-243.5 -80h-170l106 600h156q80 0 137.5 -25t86 -67t39.5 -97.5t-2 -117.5zM287 551h-105l-89 -502h111q134 0 204 70.5t88 180.5q11 49 3.5 94t-28 80t-68 56t-116.5 21z" />
    <glyph glyph-name="E" unicode="E" horiz-adv-x="441" 
d="M458 600l-9 -48h-267l-37 -212h220l-9 -48h-219l-43 -244h267l-9 -48h-322l106 600h322z" />
    <glyph glyph-name="F" unicode="F" horiz-adv-x="405" 
d="M458 600l-9 -48h-267l-37 -212h220l-9 -48h-219l-52 -292h-55l106 600h322z" />
    <glyph glyph-name="G" unicode="G" horiz-adv-x="613" 
d="M569 554l-9 -58q-73 68 -179 68q-103 0 -178 -69.5t-90 -188.5q-16 -119 42.5 -194t161.5 -75q77 0 149 39l28 156h-117l9 50h171l-42 -236q-1 0 -32 -15.5t-48.5 -22t-53.5 -14.5t-71 -8q-122 0 -197 89t-57 231q18 143 111.5 225.5t221.5 82.5q110 0 180 -60z" />
    <glyph glyph-name="H" unicode="H" horiz-adv-x="580" 
d="M578 600l-106 -600h-55l52 292h-332l-52 -292h-55l106 600h55l-46 -260h333l45 260h55z" />
    <glyph glyph-name="I" unicode="I" horiz-adv-x="193" 
d="M191 600l-106 -600h-55l106 600h55z" />
    <glyph glyph-name="J" unicode="J" horiz-adv-x="192" 
d="M191 600l-118 -669q-23 -129 -124 -129q-44 0 -64 26l6 45q24 -24 54 -24q31 0 48 18.5t26 71.5l117 661h55z" />
    <glyph glyph-name="K" unicode="K" horiz-adv-x="495" 
d="M529 600l-333 -299l258 -301h-66l-251 294l-52 -294h-55l106 600h55l-52 -291l323 291h67z" />
    <glyph glyph-name="L" unicode="L" horiz-adv-x="405" 
d="M361 48l-9 -48h-322l106 600h55l-97 -552h267z" />
    <glyph glyph-name="M" unicode="M" horiz-adv-x="698" 
d="M696 600l-106 -600h-55l75 421l16 74q-35 -63 -41 -73l-256 -422h-41l-107 421q-12 53 -14 73q0 -2 -4.5 -35.5t-5.5 -38.5l-75 -420h-52l106 600h50l134 -525l319 525h57z" />
    <glyph glyph-name="N" unicode="N" horiz-adv-x="566" 
d="M564 600l-106 -600h-31l-257 485l-85 -485h-55l106 600h31l257 -485l85 485h55z" />
    <glyph glyph-name="O" unicode="O" horiz-adv-x="674" 
d="M647 300q-16 -138 -111 -226.5t-223 -88.5q-124 0 -199.5 89t-59.5 226q16 139 111 227t223 88q124 0 199.5 -89t59.5 -226zM590 300q14 118 -45.5 191.5t-162.5 73.5q-102 0 -180 -73.5t-91 -191.5t46 -191.5t162 -73.5q102 0 179.5 74t91.5 191z" />
    <glyph glyph-name="P" unicode="P" horiz-adv-x="439" 
d="M455 412q-12 -76 -62 -124t-137 -48h-128l-43 -240h-55l106 600h169q86 0 124 -55.5t26 -132.5zM402 419q9 54 -16.5 93.5t-89.5 39.5h-114l-46 -264h122q64 0 99.5 38.5t44.5 92.5z" />
    <glyph glyph-name="Q" unicode="Q" horiz-adv-x="674" 
d="M590 300q14 118 -45.5 191.5t-162.5 73.5q-102 0 -180 -73.5t-91 -191.5t46 -191.5t162 -73.5q102 0 179.5 74t91.5 191zM365 -11l24 -55q21 -48 46 -67.5t63 -19.5q16 0 32 4l-4 -43q-24 -6 -47 -6q-96 0 -144 112l-30 71q-121 3 -194 91.5t-57 223.5q16 139 111 227
t223 88q124 0 199.5 -89t59.5 -226q-15 -124 -93.5 -209t-188.5 -102z" />
    <glyph glyph-name="R" unicode="R" horiz-adv-x="494" 
d="M402 425q8 52 -17.5 89.5t-88.5 37.5h-114l-44 -252h121q66 0 100 35.5t43 89.5zM300 256l133 -256h-62l-130 252h-111l-45 -252h-55l106 600h168q87 0 125 -53t26 -129q-10 -63 -50 -107t-105 -55z" />
    <glyph glyph-name="S" unicode="S" horiz-adv-x="438" 
d="M419 561l-17 -45q-57 50 -132 50q-51 0 -87.5 -26t-43.5 -71q-13 -92 100 -125q175 -51 154 -192q-11 -81 -69.5 -123.5t-137.5 -42.5q-110 0 -172 75l18 53q70 -80 161 -80q58 0 98 32t47 85t-21 87.5t-106 58.5q-72 22 -104 67.5t-23 106.5t63.5 102t130.5 41
q41 0 81 -16.5t60 -36.5z" />
    <glyph glyph-name="T" unicode="T" horiz-adv-x="484" 
d="M537 600l-8 -48h-201l-97 -552h-55l97 552h-200l8 48h456z" />
    <glyph glyph-name="U" unicode="U" horiz-adv-x="607" 
d="M605 600l-57 -322q-52 -294 -273 -294q-111 0 -166.5 74.5t-29.5 219.5l57 322h55l-57 -323q-22 -121 18 -182t126 -61q80 0 136.5 60.5t78.5 182.5l57 323h55z" />
    <glyph glyph-name="V" unicode="V" horiz-adv-x="541" 
d="M592 600l-342 -600h-37l-130 600h54l109 -507l287 507h59z" />
    <glyph glyph-name="W" unicode="W" horiz-adv-x="795" 
d="M445 498l-240 -498h-37l-85 600h53l69 -493l238 493h37l66 -493l241 493h58l-297 -600h-37z" />
    <glyph glyph-name="X" unicode="X" horiz-adv-x="501" 
d="M272 352l208 248h67l-249 -296l154 -304h-59l-133 263l-222 -263h-67l263 312l-146 288h59z" />
    <glyph glyph-name="Y" unicode="Y" horiz-adv-x="508" 
d="M563 600l-278 -360l-42 -240h-55l42 240l-150 360h55l128 -308l238 308h62z" />
    <glyph glyph-name="Z" unicode="Z" horiz-adv-x="454" 
d="M474 566l-395 -518h304l-9 -48h-371l5 34l394 518h-303l9 48h371z" />
    <glyph glyph-name="bracketleft" unicode="[" horiz-adv-x="285" 
d="M324 678l-6 -31h-92l-124 -704h92l-6 -31h-135l136 766h135z" />
    <glyph glyph-name="backslash" unicode="\" horiz-adv-x="297" 
d="M261 -7l-29 -9l-165 624l29 9z" />
    <glyph glyph-name="bracketright" unicode="]" horiz-adv-x="285" 
d="M262 678l-136 -766h-135l6 31h92l124 704h-92l6 31h135z" />
    <glyph glyph-name="asciicircum" unicode="^" horiz-adv-x="438" 
d="M436 302l-29 -19l-126 265l-219 -265l-26 19l256 316z" />
    <glyph glyph-name="underscore" unicode="_" horiz-adv-x="308" 
d="M269 0l-6 -31h-305l6 31h305z" />
    <glyph glyph-name="grave" unicode="`" horiz-adv-x="307" 
d="M237 425l-12 -17l-139 80l28 40z" />
    <glyph glyph-name="a" unicode="a" horiz-adv-x="425" 
d="M391 341l-41 -234q-11 -66 -11 -107h-47q0 43 4 60q-48 -71 -136 -71q-70 0 -105.5 54t-23.5 132q11 77 63.5 127t121.5 50q40 0 72 -21t42 -53l22 63h39zM315 171q9 63 -18.5 101.5t-77.5 38.5t-89.5 -38.5t-48.5 -101.5q-10 -63 18 -102t77 -39q50 0 89.5 39t49.5 102z
" />
    <glyph glyph-name="b" unicode="b" horiz-adv-x="425" 
d="M97 170q-10 -63 18 -101.5t78 -38.5t89.5 38.5t48.5 101.5t-18.5 102t-76.5 39q-50 0 -89.5 -39t-49.5 -102zM123 291q47 61 129 61q70 0 105.5 -54t23.5 -132q-11 -77 -63.5 -127t-121.5 -50q-40 0 -72 21t-42 53l-22 -63h-39l106 600h51z" />
    <glyph glyph-name="c" unicode="c" horiz-adv-x="350" 
d="M327 319l-7 -42q-38 34 -92 34q-55 0 -96.5 -36t-51.5 -98q-10 -65 22 -106t94 -41q46 0 93 35l-7 -46q-38 -30 -105 -30q-75 0 -117 55t-31 133t67 126.5t128 48.5q64 0 103 -33z" />
    <glyph glyph-name="d" unicode="d" horiz-adv-x="425" 
d="M438 600l-88 -493q-11 -66 -11 -107h-47q0 43 4 60q-48 -71 -136 -71q-70 0 -105.5 54t-23.5 132q11 77 63.5 127t121.5 50q40 0 72 -21t42 -53l57 322h51zM315 171q9 63 -18.5 101.5t-77.5 38.5t-89.5 -38.5t-48.5 -101.5q-10 -63 18 -102t77 -39q50 0 89.5 39t49.5 102
z" />
    <glyph glyph-name="e" unicode="e" horiz-adv-x="369" 
d="M336 234q-2 -28 -11 -48h-244q-1 -4 -4 -29q-2 -56 28.5 -91.5t89.5 -35.5q62 0 113 39l-8 -46q-47 -34 -119 -34q-73 0 -115 48.5t-38 121.5q4 84 59 138.5t124 54.5q55 0 91 -33.5t34 -84.5zM290 242q1 31 -21 51t-60 20q-39 0 -71.5 -22.5t-48.5 -69.5h197q4 8 4 21z
" />
    <glyph glyph-name="f" unicode="f" horiz-adv-x="225" 
d="M282 609l-7 -37q-14 4 -23 4q-33 0 -53.5 -21t-29.5 -75l-25 -139h92l-7 -38h-91l-53 -303h-51l53 303h-65l7 38h64l25 139q24 135 130 135q16 0 34 -6z" />
    <glyph glyph-name="g" unicode="g" horiz-adv-x="425" 
d="M315 171q10 63 -18 101.5t-78 38.5t-89.5 -38.5t-48.5 -101.5t18.5 -102t76.5 -39q50 0 89.5 39t49.5 102zM391 341l-62 -356q-18 -103 -65.5 -145t-125.5 -42q-60 0 -118 32v46q54 -34 122 -34q54 0 88.5 32.5t47.5 112.5l11 63q-47 -61 -129 -61q-70 0 -105.5 54
t-23.5 132q11 77 63.5 127t121.5 50q40 0 72 -21t42 -53l22 63h39z" />
    <glyph glyph-name="h" unicode="h" horiz-adv-x="411" 
d="M360 251q0 -25 -17 -118l-23 -133h-51l34 191q6 36 6 53q0 32 -19.5 48.5t-46.5 16.5q-43 0 -86.5 -41t-56.5 -110l-28 -158h-51l106 600h51l-59 -333q27 41 65 63t78 22q48 0 73 -28t25 -73z" />
    <glyph glyph-name="i" unicode="i" horiz-adv-x="165" 
d="M153 457h-51l10 61h51zM72 0h-51l60 341h51z" />
    <glyph glyph-name="j" unicode="j" horiz-adv-x="165" 
d="M132 341l-76 -433q-19 -111 -111 -111q-38 0 -58 23l7 36q20 -20 47 -20q28 0 42.5 17t22.5 63l75 425h51zM153 457h-51l10 61h51z" />
    <glyph glyph-name="k" unicode="k" horiz-adv-x="349" 
d="M362 341l-202 -159l149 -182h-58l-147 181l-32 -181h-51l106 600h51l-72 -410l192 151h64z" />
    <glyph glyph-name="l" unicode="l" horiz-adv-x="165" 
d="M178 600l-106 -600h-51l106 600h51z" />
    <glyph glyph-name="m" unicode="m" horiz-adv-x="624" 
d="M572 259q0 -38 -16 -124l-24 -135h-51l35 196q5 27 5 53q0 31 -16 45.5t-40 14.5q-42 0 -81.5 -39t-52.5 -108l-29 -162h-51l35 196q5 28 5 53q0 31 -16 45.5t-40 14.5q-42 0 -81.5 -39t-52.5 -108l-29 -162h-51l43 239q10 56 10 102h47q0 -45 -5 -79q21 40 60.5 65
t77.5 25q39 0 61.5 -21.5t26.5 -60.5v-5q26 42 65 64.5t78 22.5q44 0 65.5 -26.5t21.5 -66.5z" />
    <glyph glyph-name="n" unicode="n" horiz-adv-x="411" 
d="M262 352q48 0 73 -28t25 -73q0 -25 -17 -118l-23 -133h-51l34 191q6 36 6 53q0 32 -19.5 48.5t-46.5 16.5q-43 0 -86.5 -41t-56.5 -110l-28 -158h-51l43 239q10 63 10 102h47q0 -48 -6 -80q28 44 67.5 67.5t79.5 23.5z" />
    <glyph glyph-name="o" unicode="o" horiz-adv-x="424" 
d="M383 171q-8 -77 -64.5 -130.5t-132.5 -53.5q-77 0 -121.5 53.5t-36.5 130.5q8 76 64.5 129.5t131.5 53.5q78 0 122.5 -53t36.5 -130zM332 171q8 62 -22.5 102t-86.5 40q-55 0 -95.5 -40t-48.5 -102q-8 -63 22.5 -103t85.5 -40q56 0 96.5 40.5t48.5 102.5z" />
    <glyph glyph-name="p" unicode="p" horiz-adv-x="425" 
d="M-14 -195l77 429q11 59 11 107h47q0 -43 -4 -60q48 71 136 71q70 0 105.5 -54t23.5 -132q-11 -77 -63.5 -127t-121.5 -50q-40 0 -72 21t-42 53l-46 -258h-51zM98 170q-10 -63 18 -101.5t78 -38.5t89.5 38.5t48.5 101.5t-18.5 102t-76.5 39q-50 0 -89.5 -39t-49.5 -102z
" />
    <glyph glyph-name="q" unicode="q" horiz-adv-x="425" 
d="M289 50q-47 -61 -129 -61q-70 0 -105.5 54t-23.5 132q11 77 63.5 127t121.5 50q40 0 72 -21t42 -53l22 63h39l-94 -536h-51zM315 171q10 63 -18 101.5t-78 38.5t-89.5 -38.5t-48.5 -101.5t18.5 -102t76.5 -39q50 0 89.5 39t49.5 102z" />
    <glyph glyph-name="r" unicode="r" horiz-adv-x="259" 
d="M261 350l-11 -57q-10 0 -25 1.5t-34 -7t-36.5 -21.5t-32.5 -41t-22 -66l-28 -159h-51l43 239q10 55 10 102h47q0 -47 -6 -78q53 85 146 87z" />
    <glyph glyph-name="s" unicode="s" horiz-adv-x="299" 
d="M265 324l-14 -38q-45 24 -85 24q-65 0 -75 -43q-5 -24 8.5 -40t54.5 -27q107 -33 91 -117q-8 -47 -43 -70.5t-84 -23.5q-53 0 -116 36l14 40q47 -33 103 -33q71 0 80 50q10 53 -71 77q-98 27 -83 109q6 37 39 60.5t82 23.5q59 0 99 -28z" />
    <glyph glyph-name="t" unicode="t" horiz-adv-x="232" 
d="M234 341l-7 -38h-70l-54 -303h-51l54 303h-69l6 38h69l21 115h51l-21 -115h71z" />
    <glyph glyph-name="u" unicode="u" horiz-adv-x="411" 
d="M137 -11q-48 0 -73 28t-25 73q0 25 17 118l23 133h51l-34 -191q-6 -36 -6 -53q0 -32 19.5 -48.5t46.5 -16.5q44 0 87 40.5t56 110.5l28 158h51l-43 -239q-10 -55 -10 -102h-47q0 48 6 80q-28 -44 -67.5 -67.5t-79.5 -23.5z" />
    <glyph glyph-name="v" unicode="v" horiz-adv-x="350" 
d="M358 341l-208 -344h-38l-87 344h49l68 -274l163 274h53z" />
    <glyph glyph-name="w" unicode="w" horiz-adv-x="564" 
d="M572 341l-196 -344h-37l-53 262l-146 -262h-37l-74 344h49l55 -267l148 267h37l52 -267l150 267h52z" />
    <glyph glyph-name="x" unicode="x" horiz-adv-x="359" 
d="M201 173l107 -173h-55l-84 140l-132 -140h-59l168 177l-101 164h55l79 -132l123 132h59z" />
    <glyph glyph-name="y" unicode="y" horiz-adv-x="346" 
d="M358 341l-323 -536h-53l126 205l-84 331h49l69 -274l163 274h53z" />
    <glyph glyph-name="z" unicode="z" horiz-adv-x="329" 
d="M315 341l-4 -28l-245 -273h205l-7 -40h-269l5 28l245 273h-188l7 40h251z" />
    <glyph glyph-name="braceleft" unicode="{" horiz-adv-x="290" 
d="M336 677q-44 -27 -59.5 -62.5t-32.5 -130.5q-10 -54 -23 -89.5t-31 -55t-35.5 -28.5t-45.5 -16q20 -6 32.5 -12.5t24 -19.5t16 -32.5t4 -51t-8.5 -74.5q-17 -84 -14 -125.5t38 -68.5l-18 -19q-50 33 -58.5 73.5t10.5 142.5q7 42 6.5 72t-4.5 47t-18 29.5t-23.5 17
t-30.5 12.5l4 20q30 10 44 17t34 25t33 51t22 85q19 105 41 144.5t83 72.5z" />
    <glyph glyph-name="bar" unicode="|" horiz-adv-x="203" 
d="M203 687l-138 -782h-36l138 782h36z" />
    <glyph glyph-name="braceright" unicode="}" horiz-adv-x="290" 
d="M-16 -85q44 27 59.5 62.5t32.5 130.5q10 54 23 89.5t31 55t35.5 28.5t45.5 16q-20 6 -32.5 12.5t-24 19.5t-16 32.5t-4 51t8.5 74.5q17 84 14 125.5t-38 68.5l18 19q50 -33 58.5 -73.5t-10.5 -142.5q-7 -42 -6.5 -72t4.5 -47t18 -29.5t23.5 -17t30.5 -12.5l-4 -20
q-30 -10 -44 -17t-34 -25t-33 -51t-22 -85q-19 -105 -41 -144.5t-83 -72.5z" />
    <glyph glyph-name="asciitilde" unicode="~" horiz-adv-x="408" 
d="M270 144q-23 0 -72.5 35.5t-70.5 35.5q-19 0 -30.5 -16t-20.5 -48h-26q5 53 28 81t57 28q23 0 73 -35.5t71 -35.5q18 0 29.5 16t20.5 48h26q-13 -109 -85 -109z" />
    <glyph glyph-name="nbspace" unicode="&#xa0;" horiz-adv-x="147" 
 />
    <glyph glyph-name="exclamdown" unicode="&#xa1;" horiz-adv-x="212" 
d="M113 438h66l-12 -66h-66zM73 -162h-67l94 438h35z" />
    <glyph glyph-name="cent" unicode="&#xa2;" horiz-adv-x="350" 
d="M249 407l-50 -280q5 -1 14 -1q46 0 93 35l-7 -46q-38 -30 -105 -30h-2l-30 -168h-32l30 171q-60 13 -92 65t-22 120q10 73 60.5 120.5t117.5 53.5l30 170h32l-30 -170q57 -5 88 -32l-7 -42q-36 33 -88 34zM168 132l48 272q-46 -9 -78.5 -43.5t-40.5 -87.5
q-7 -52 11.5 -89.5t59.5 -51.5z" />
    <glyph glyph-name="sterling" unicode="&#xa3;" horiz-adv-x="476" 
d="M474 581l-8 -49q-49 38 -104 38q-61 0 -99 -44.5t-57 -153.5l-8 -47h150l-6 -36h-150l-12 -68q-15 -82 -35 -121.5t-52 -53.5h310l-8 -46h-404l8 46q60 1 81 26.5t36 106.5l20 110h-78l6 36h78l8 47q42 243 218 243q57 0 106 -34z" />
    <glyph glyph-name="currency" unicode="&#xa4;" horiz-adv-x="490" 
d="M506 580l-9 -50q-45 40 -118 40q-68 0 -122 -50.5t-81 -139.5h180l-6 -35h-183q-6 -22 -9 -44l-6 -45h182l-6 -35h-178q-1 -90 36 -139.5t114 -49.5q61 0 123 40l-8 -50q-57 -36 -126 -36q-95 0 -145.5 61.5t-48.5 173.5h-61l6 35h57l6 45q3 22 9 44h-56l6 35h59
q35 112 102.5 174t158.5 62q73 0 124 -36z" />
    <glyph glyph-name="yen" unicode="&#xa5;" horiz-adv-x="514" 
d="M230 239h-118l6 35h98l-136 326h55l128 -308l238 308h62l-252 -326h98l-6 -35h-118l-12 -66h118l-6 -35h-118l-24 -138h-55l24 138h-118l6 35h118z" />
    <glyph glyph-name="brokenbar" unicode="&#xa6;" horiz-adv-x="203" 
d="M203 686l-58 -331h-36l58 331h36zM123 235l-58 -331h-36l58 331h36z" />
    <glyph glyph-name="section" unicode="&#xa7;" horiz-adv-x="407" 
d="M411 566l-16 -42q-48 46 -124 46q-48 0 -81.5 -23.5t-40.5 -63.5q-13 -80 87 -109q88 -25 121.5 -67.5t24.5 -104.5q-6 -49 -41 -83.5t-85 -48.5q79 -45 65 -134q-9 -57 -58.5 -93t-121.5 -36q-40 0 -78.5 15t-54.5 34l16 42q51 -47 124 -47q48 0 81.5 23.5t40.5 63.5
q14 80 -86 109q-88 25 -122 67t-25 105q7 50 41.5 84t85.5 48q-81 45 -66 134q9 57 59 93.5t121 36.5q41 0 79 -15t54 -34zM331 201q7 46 -16 75.5t-96 51.5q-51 -1 -87 -32t-44 -76t16 -75t96 -51q51 1 87.5 32t43.5 75z" />
    <glyph glyph-name="dieresis" unicode="&#xa8;" horiz-adv-x="307" 
d="M280 416h-57l10 57h57zM123 416h-57l10 57h57z" />
    <glyph glyph-name="copyright" unicode="&#xa9;" horiz-adv-x="679" 
d="M671 300q-14 -131 -116 -224t-233 -93t-214.5 93t-69.5 224q13 131 116 224t234 93t214 -93t69 -224zM648 300q13 121 -64 207t-198 86q-122 0 -216.5 -86t-107.5 -207t64 -207t198 -86t216 86t108 207zM479 134q-56 -37 -128 -37q-83 0 -137 55.5t-45 147.5t74 147.5
t148 55.5q77 0 122 -38l-5 -49q-49 42 -118 42q-64 0 -112.5 -42.5t-56.5 -115.5q-8 -72 31.5 -115t103.5 -43q69 0 128 41z" />
    <glyph glyph-name="ordfeminine" unicode="&#xaa;" horiz-adv-x="382" 
d="M404 602l-37 -211q-10 -54 -10 -96h-42q0 36 3 54q-44 -64 -122 -64q-63 0 -94 48.5t-22 118.5q10 70 57 115t109 45q36 0 65 -19t38 -48l20 57h35zM335 449q8 57 -16.5 90.5t-69.5 33.5t-80 -34t-44 -90q-9 -57 16 -91t69 -34q46 0 81.5 34t43.5 91z" />
    <glyph glyph-name="guillemotleft" unicode="&#xab;" horiz-adv-x="392" 
d="M374 319l-138 -116l96 -116l-21 -17l-128 136l177 136zM271 361l-185 -158l128 -157l-21 -18l-159 178l223 178z" />
    <glyph glyph-name="logicalnot" unicode="&#xac;" horiz-adv-x="510" 
d="M424 259l-31 -179h-40l24 140h-304l8 39h343z" />
    <glyph glyph-name="registered" unicode="&#xae;" horiz-adv-x="492" 
d="M506 384q-11 -96 -85 -163.5t-169 -67.5t-156.5 67.5t-51.5 163.5t85 163.5t170 67.5q96 0 156.5 -67.5t50.5 -163.5zM483 384q9 86 -45.5 147t-140.5 61t-153 -61t-77 -147t45.5 -147t141.5 -61t153 61t76 147zM379 441q-4 -30 -24.5 -52t-53.5 -27l59 -115h-42l-57 113
h-37l-20 -113h-40l50 280h91q41 0 60.5 -25t13.5 -61zM296 497h-47l-20 -107h50q51 0 60 53q7 54 -43 54z" />
    <glyph glyph-name="macron" unicode="&#xaf;" horiz-adv-x="307" 
d="M271 447l-6 -35h-200l6 35h200z" />
    <glyph glyph-name="degree" unicode="&#xb0;" horiz-adv-x="359" 
d="M237 612q62 0 102.5 -44.5t33.5 -105.5q-7 -62 -55 -106t-110 -44t-102 44t-33 106t55 106t109 44zM236 576q-47 0 -84 -33.5t-42 -80.5t24 -80.5t76 -33.5t84.5 33.5t42.5 80.5t-25 80.5t-76 33.5z" />
    <glyph glyph-name="plusminus" unicode="&#xb1;" horiz-adv-x="385" 
d="M371 309l-7 -40h-142l-26 -148h-40l26 148h-140l7 40h141l26 149h40l-26 -149h141zM323 38l-6 -38h-323l7 38h322z" />
    <glyph glyph-name="twosuperior" unicode="&#xb2;" horiz-adv-x="271" 
d="M245 280h-199l3 24l103 95q24 23 35 34t25 33.5t16 43.5q4 31 -11.5 46t-40.5 15q-41 0 -84 -32l4 40q42 30 91 30q44 0 68 -25.5t20 -69.5q-5 -56 -79 -120l-85 -75h138z" />
    <glyph glyph-name="threesuperior" unicode="&#xb3;" horiz-adv-x="284" 
d="M274 379q-5 -49 -39.5 -78.5t-84.5 -29.5q-48 0 -85 30l4 41q37 -35 80 -35q32 0 53 19.5t25 53.5q3 30 -11 48t-44 18q-29 0 -47 -15l-15 21l127 109h-132l4 39h199l-4 -24l-117 -100q44 0 67.5 -26.5t19.5 -70.5z" />
    <glyph glyph-name="acute" unicode="&#xb4;" horiz-adv-x="307" 
d="M107 425l123 103l28 -40l-139 -80z" />
    <glyph glyph-name="mu" unicode="&#xb5;" horiz-adv-x="411" 
d="M72 18l-37 -213h-51l95 536h51l-34 -191q-6 -36 -6 -53q0 -32 19.5 -48.5t46.5 -16.5q44 0 87 40.5t56 110.5l28 158h51l-43 -239q-10 -55 -10 -102h-47q0 48 6 80q-28 -44 -67.5 -67.5t-79.5 -23.5q-45 0 -65 29z" />
    <glyph glyph-name="paragraph" unicode="&#xb6;" horiz-adv-x="462" 
d="M496 600l-5 -32h-66l-134 -759h-40l134 759h-103l-134 -759h-40l82 466q-61 5 -97 54t-26 114q10 69 64 113t126 44h239z" />
    <glyph glyph-name="periodcentered" unicode="&#xb7;" horiz-adv-x="237" 
d="M157 241l-12 -71h-72l12 71h72z" />
    <glyph glyph-name="cedilla" unicode="&#xb8;" horiz-adv-x="300" 
d="M171 -124q-5 -51 -49.5 -75t-107.5 -22l3 31q47 -2 77.5 13.5t34.5 47.5q3 28 -27 38t-62 -1l2 17l91 99l26 -8l-65 -70q32 -2 56 -20t21 -50z" />
    <glyph glyph-name="onesuperior" unicode="&#xb9;" horiz-adv-x="187" 
d="M190 607l-58 -327h-46l50 281l-35 -2l6 32z" />
    <glyph glyph-name="ordmasculine" unicode="&#xba;" horiz-adv-x="382" 
d="M397 449q-8 -69 -58.5 -117.5t-119.5 -48.5t-109.5 48.5t-32.5 117.5t58.5 117t118.5 48q70 0 110.5 -48t32.5 -117zM351 449q7 55 -20.5 90t-77.5 35t-86.5 -35t-43.5 -90q-7 -56 20 -91t77 -35q51 0 87.5 35t43.5 91z" />
    <glyph glyph-name="guillemotright" unicode="&#xbb;" horiz-adv-x="392" 
d="M114 51l185 158l-128 157l21 18l159 -178l-223 -178zM11 93l138 116l-96 116l21 17l128 -136l-177 -136z" />
    <glyph glyph-name="onequarter" unicode="&#xbc;" horiz-adv-x="560" 
d="M204 607l-58 -327h-46l50 281l-35 -2l6 32zM501 600l-453 -618l-23 17l453 618zM495 117l-6 -34h-56l-15 -83h-46l14 83h-151l3 20l199 221h38l-36 -207h56zM417 256l-125 -139h100z" />
    <glyph glyph-name="onehalf" unicode="&#xbd;" horiz-adv-x="563" 
d="M204 607l-58 -327h-46l50 281l-35 -2l6 32zM501 600l-453 -618l-23 17l453 618zM498 0h-199l3 24l103 95q24 23 35 34t25 33.5t16 43.5q4 31 -11.5 46t-40.5 15q-41 0 -84 -32l4 40q42 30 91 30q44 0 68 -25.5t20 -69.5q-5 -56 -79 -120l-85 -75h138z" />
    <glyph glyph-name="threequarters" unicode="&#xbe;" horiz-adv-x="632" 
d="M580 600l-453 -618l-23 17l453 618zM570 117l-6 -34h-56l-15 -83h-46l14 83h-151l3 20l199 221h38l-36 -207h56zM492 256l-125 -139h100zM285 379q-5 -49 -39.5 -78.5t-84.5 -29.5q-47 0 -85 30l4 41q37 -35 80 -35q32 0 53 19.5t25 53.5q3 30 -11 48t-44 18
q-29 0 -47 -15l-15 21l127 109h-132l4 39h199l-4 -24l-117 -100q44 0 67.5 -26.5t19.5 -70.5z" />
    <glyph glyph-name="questiondown" unicode="&#xbf;" horiz-adv-x="403" 
d="M255 438h66l-12 -66h-66zM-10 -28q13 117 171 188l60 27l16 89h46l-21 -117l-62 -29q-76 -35 -112 -71t-41 -85q-6 -52 28 -77.5t92 -25.5q41 0 91 19.5t82 49.5l-6 -57q-31 -26 -80.5 -43.5t-95.5 -17.5q-77 0 -126.5 38.5t-41.5 111.5z" />
    <glyph glyph-name="Agrave" unicode="&#xc0;" horiz-adv-x="541" 
d="M486 0h-54l-37 173h-262l-98 -173h-58l342 600h37zM384 221l-61 289l-163 -289h224zM413 686l-12 -17l-139 80l28 40z" />
    <glyph glyph-name="Aacute" unicode="&#xc1;" horiz-adv-x="541" 
d="M486 0h-54l-37 173h-262l-98 -173h-58l342 600h37zM384 221l-61 289l-163 -289h224zM280 686l123 103l28 -40l-139 -80z" />
    <glyph glyph-name="Acircumflex" unicode="&#xc2;" horiz-adv-x="541" 
d="M486 0h-54l-37 173h-262l-98 -173h-58l342 600h37zM384 221l-61 289l-163 -289h224zM450 695l-21 -22l-73 86l-102 -86l-21 22l129 114z" />
    <glyph glyph-name="Atilde" unicode="&#xc3;" horiz-adv-x="541" 
d="M486 0h-54l-37 173h-262l-98 -173h-58l342 600h37zM384 221l-61 289l-163 -289h224zM469 763q-5 -42 -25.5 -64t-48.5 -22q-23 0 -53.5 25.5t-43.5 25.5q-17 0 -26.5 -11t-13.5 -37h-28q6 43 26 64.5t48 21.5q23 0 54 -25.5t44 -25.5q32 0 39 48h28z" />
    <glyph glyph-name="Adieresis" unicode="&#xc4;" horiz-adv-x="541" 
d="M486 0h-54l-37 173h-262l-98 -173h-58l342 600h37zM384 221l-61 289l-163 -289h224zM456 677h-57l10 57h57zM299 677h-57l10 57h57z" />
    <glyph glyph-name="Aring" unicode="&#xc5;" horiz-adv-x="541" 
d="M486 0h-54l-37 173h-262l-98 -173h-58l342 600h37zM384 221l-61 289l-163 -289h224zM365 819q-25 0 -44.5 -17.5t-21.5 -42.5t13.5 -42t40.5 -17t44.5 17t21.5 42t-13.5 42.5t-40.5 17.5zM369 850q37 0 61 -27t20 -64q-4 -38 -33 -64t-67 -26q-37 0 -61.5 26.5
t-20.5 63.5q4 38 33.5 64.5t67.5 26.5z" />
    <glyph glyph-name="AE" unicode="&#xc6;" horiz-adv-x="758" 
d="M775 600l-9 -48h-267l-37 -212h220l-9 -48h-219l-43 -244h267l-9 -48h-322l31 173h-219l-124 -173h-58l431 600h367zM445 552h-14l-238 -332h193z" />
    <glyph glyph-name="Ccedilla" unicode="&#xc7;" horiz-adv-x="557" 
d="M276 -12q-108 11 -172.5 98t-47.5 220q18 142 110 224.5t215 82.5q52 0 101 -16.5t80 -43.5l-9 -57q-72 67 -179 67q-99 0 -172.5 -69.5t-88.5 -187.5q-15 -119 41.5 -194t155.5 -75q104 0 195 70l-9 -61q-84 -57 -188 -59l-41 -44q32 -2 56 -20t21 -50q-5 -51 -49.5 -75
t-107.5 -22l3 31q47 -2 77.5 13.5t34.5 47.5q3 28 -27 38t-62 -1l2 17z" />
    <glyph glyph-name="Egrave" unicode="&#xc8;" horiz-adv-x="441" 
d="M458 600l-9 -48h-267l-37 -212h220l-9 -48h-219l-43 -244h267l-9 -48h-322l106 600h322zM375 686l-12 -17l-139 80l28 40z" />
    <glyph glyph-name="Eacute" unicode="&#xc9;" horiz-adv-x="441" 
d="M458 600l-9 -48h-267l-37 -212h220l-9 -48h-219l-43 -244h267l-9 -48h-322l106 600h322zM255 686l123 103l28 -40l-139 -80z" />
    <glyph glyph-name="Ecircumflex" unicode="&#xca;" horiz-adv-x="441" 
d="M458 600l-9 -48h-267l-37 -212h220l-9 -48h-219l-43 -244h267l-9 -48h-322l106 600h322zM417 695l-21 -22l-73 86l-102 -86l-21 22l129 114z" />
    <glyph glyph-name="Edieresis" unicode="&#xcb;" horiz-adv-x="441" 
d="M458 600l-9 -48h-267l-37 -212h220l-9 -48h-219l-43 -244h267l-9 -48h-322l106 600h322zM422 677h-57l10 57h57zM265 677h-57l10 57h57z" />
    <glyph glyph-name="Igrave" unicode="&#xcc;" horiz-adv-x="193" 
d="M228 686l-12 -17l-139 80l28 40zM191 600l-106 -600h-55l106 600h55z" />
    <glyph glyph-name="Iacute" unicode="&#xcd;" horiz-adv-x="193" 
d="M119 686l123 103l28 -40l-139 -80zM191 600l-106 -600h-55l106 600h55z" />
    <glyph glyph-name="Icircumflex" unicode="&#xce;" horiz-adv-x="193" 
d="M281 695l-21 -22l-73 86l-102 -86l-21 22l129 114zM191 600l-106 -600h-55l106 600h55z" />
    <glyph glyph-name="Idieresis" unicode="&#xcf;" horiz-adv-x="193" 
d="M278 677h-57l10 57h57zM121 677h-57l10 57h57zM191 600l-106 -600h-55l106 600h55z" />
    <glyph glyph-name="Eth" unicode="&#xd0;" horiz-adv-x="580" 
d="M553 293q-22 -133 -109.5 -213t-243.5 -80h-170l50 283h-56l7 38h56l49 279h156q80 0 137.5 -25t86 -67t39.5 -97.5t-2 -117.5zM287 551h-105l-41 -230h128l-7 -38h-127l-42 -234h111q134 0 204 70.5t88 180.5q11 49 3.5 94t-28 80t-68 56t-116.5 21z" />
    <glyph glyph-name="Ntilde" unicode="&#xd1;" horiz-adv-x="566" 
d="M564 600l-106 -600h-31l-257 485l-85 -485h-55l106 600h31l257 -485l85 485h55zM477 763q-5 -42 -25.5 -64t-48.5 -22q-23 0 -53.5 25.5t-43.5 25.5q-17 0 -26.5 -11t-13.5 -37h-28q6 43 26 64.5t48 21.5q23 0 54 -25.5t44 -25.5q32 0 39 48h28z" />
    <glyph glyph-name="Ograve" unicode="&#xd2;" horiz-adv-x="674" 
d="M647 300q-16 -138 -111 -226.5t-223 -88.5q-124 0 -199.5 89t-59.5 226q16 139 111 227t223 88q124 0 199.5 -89t59.5 -226zM590 300q14 118 -45.5 191.5t-162.5 73.5q-102 0 -180 -73.5t-91 -191.5t46 -191.5t162 -73.5q102 0 179.5 74t91.5 191zM465 686l-12 -17
l-139 80l28 40z" />
    <glyph glyph-name="Oacute" unicode="&#xd3;" horiz-adv-x="674" 
d="M647 300q-16 -138 -111 -226.5t-223 -88.5q-124 0 -199.5 89t-59.5 226q16 139 111 227t223 88q124 0 199.5 -89t59.5 -226zM590 300q14 118 -45.5 191.5t-162.5 73.5q-102 0 -180 -73.5t-91 -191.5t46 -191.5t162 -73.5q102 0 179.5 74t91.5 191zM332 686l123 103
l28 -40l-139 -80z" />
    <glyph glyph-name="Ocircumflex" unicode="&#xd4;" horiz-adv-x="674" 
d="M647 300q-16 -138 -111 -226.5t-223 -88.5q-124 0 -199.5 89t-59.5 226q16 139 111 227t223 88q124 0 199.5 -89t59.5 -226zM590 300q14 118 -45.5 191.5t-162.5 73.5q-102 0 -180 -73.5t-91 -191.5t46 -191.5t162 -73.5q102 0 179.5 74t91.5 191zM502 695l-21 -22
l-73 86l-102 -86l-21 22l129 114z" />
    <glyph glyph-name="Otilde" unicode="&#xd5;" horiz-adv-x="674" 
d="M647 300q-16 -138 -111 -226.5t-223 -88.5q-124 0 -199.5 89t-59.5 226q16 139 111 227t223 88q124 0 199.5 -89t59.5 -226zM590 300q14 118 -45.5 191.5t-162.5 73.5q-102 0 -180 -73.5t-91 -191.5t46 -191.5t162 -73.5q102 0 179.5 74t91.5 191zM521 763
q-5 -42 -25.5 -64t-48.5 -22q-23 0 -53.5 25.5t-43.5 25.5q-17 0 -26.5 -11t-13.5 -37h-28q6 43 26 64.5t48 21.5q23 0 54 -25.5t44 -25.5q32 0 39 48h28z" />
    <glyph glyph-name="Odieresis" unicode="&#xd6;" horiz-adv-x="674" 
d="M647 300q-16 -138 -111 -226.5t-223 -88.5q-124 0 -199.5 89t-59.5 226q16 139 111 227t223 88q124 0 199.5 -89t59.5 -226zM590 300q14 118 -45.5 191.5t-162.5 73.5q-102 0 -180 -73.5t-91 -191.5t46 -191.5t162 -73.5q102 0 179.5 74t91.5 191zM508 677h-57l10 57h57z
M351 677h-57l10 57h57z" />
    <glyph glyph-name="multiply" unicode="&#xd7;" horiz-adv-x="404" 
d="M370 346l-138 -119l96 -119l-30 -25l-96 119l-138 -118l-24 28l139 118l-97 119l30 25l96 -119l138 119z" />
    <glyph glyph-name="Oslash" unicode="&#xd8;" horiz-adv-x="674" 
d="M517 520l-316 -452q49 -33 118 -33q102 0 179.5 74t91.5 191q18 144 -73 220zM184 81l315 451q-48 33 -117 33q-102 0 -180 -73.5t-91 -191.5q-8 -71 11.5 -127.5t61.5 -91.5zM153 36q-56 42 -82.5 110.5t-16.5 153.5q16 139 111 227t223 88q80 0 142 -39l46 66l17 -13
l-45 -65q56 -42 82.5 -110.5t16.5 -153.5q-16 -138 -111 -226.5t-223 -88.5q-79 0 -143 39l-46 -66l-17 13z" />
    <glyph glyph-name="Ugrave" unicode="&#xd9;" horiz-adv-x="607" 
d="M605 600l-57 -322q-52 -294 -273 -294q-111 0 -166.5 74.5t-29.5 219.5l57 322h55l-57 -323q-22 -121 18 -182t126 -61q80 0 136.5 60.5t78.5 182.5l57 323h55zM446 686l-12 -17l-139 80l28 40z" />
    <glyph glyph-name="Uacute" unicode="&#xda;" horiz-adv-x="607" 
d="M605 600l-57 -322q-52 -294 -273 -294q-111 0 -166.5 74.5t-29.5 219.5l57 322h55l-57 -323q-22 -121 18 -182t126 -61q80 0 136.5 60.5t78.5 182.5l57 323h55zM313 686l123 103l28 -40l-139 -80z" />
    <glyph glyph-name="Ucircumflex" unicode="&#xdb;" horiz-adv-x="607" 
d="M605 600l-57 -322q-52 -294 -273 -294q-111 0 -166.5 74.5t-29.5 219.5l57 322h55l-57 -323q-22 -121 18 -182t126 -61q80 0 136.5 60.5t78.5 182.5l57 323h55zM483 695l-21 -22l-73 86l-102 -86l-21 22l129 114z" />
    <glyph glyph-name="Udieresis" unicode="&#xdc;" horiz-adv-x="607" 
d="M605 600l-57 -322q-52 -294 -273 -294q-111 0 -166.5 74.5t-29.5 219.5l57 322h55l-57 -323q-22 -121 18 -182t126 -61q80 0 136.5 60.5t78.5 182.5l57 323h55zM489 677h-57l10 57h57zM332 677h-57l10 57h57z" />
    <glyph glyph-name="Yacute" unicode="&#xdd;" horiz-adv-x="508" 
d="M563 600l-278 -360l-42 -240h-55l42 240l-150 360h55l128 -308l238 308h62zM285 686l123 103l28 -40l-139 -80z" />
    <glyph glyph-name="Thorn" unicode="&#xde;" horiz-adv-x="439" 
d="M191 600l-20 -115h114q87 0 124.5 -55.5t25.5 -132.5t-62 -124.5t-137 -47.5h-128l-23 -125h-55l106 600h55zM382 304q8 54 -17.5 93.5t-88.5 39.5h-114l-46 -264h122q64 0 99.5 38.5t44.5 92.5z" />
    <glyph glyph-name="germandbls" unicode="&#xdf;" horiz-adv-x="489" 
d="M438 101q-9 -56 -52.5 -82.5t-107.5 -26.5q-56 0 -109 24l9 44q45 -27 107 -27q39 0 67.5 18t33.5 51q4 25 -12 44t-40.5 33t-48.5 28.5t-39 39t-10 57.5q4 25 26 49.5t46.5 41t47 42.5t26.5 54q6 37 -18.5 59t-70.5 22q-51 0 -86.5 -32.5t-45.5 -88.5l-80 -451h-53
l80 451q13 74 64.5 119t122.5 45q67 0 106.5 -33t30.5 -91q-5 -34 -28 -64t-47 -47t-45.5 -37.5t-24.5 -39.5q-4 -23 12 -40.5t41 -31t49.5 -29t39 -41t9.5 -60.5z" />
    <glyph glyph-name="agrave" unicode="&#xe0;" horiz-adv-x="425" 
d="M391 341l-41 -234q-11 -66 -11 -107h-47q0 43 4 60q-48 -71 -136 -71q-70 0 -105.5 54t-23.5 132q11 77 63.5 127t121.5 50q40 0 72 -21t42 -53l22 63h39zM315 171q9 63 -18.5 101.5t-77.5 38.5t-89.5 -38.5t-48.5 -101.5q-10 -63 18 -102t77 -39q50 0 89.5 39t49.5 102z
M317 425l-12 -17l-139 80l28 40z" />
    <glyph glyph-name="aacute" unicode="&#xe1;" horiz-adv-x="425" 
d="M391 341l-41 -234q-11 -66 -11 -107h-47q0 43 4 60q-48 -71 -136 -71q-70 0 -105.5 54t-23.5 132q11 77 63.5 127t121.5 50q40 0 72 -21t42 -53l22 63h39zM315 171q9 63 -18.5 101.5t-77.5 38.5t-89.5 -38.5t-48.5 -101.5q-10 -63 18 -102t77 -39q50 0 89.5 39t49.5 102z
M187 425l123 103l28 -40l-139 -80z" />
    <glyph glyph-name="acircumflex" unicode="&#xe2;" horiz-adv-x="425" 
d="M391 341l-41 -234q-11 -66 -11 -107h-47q0 43 4 60q-48 -71 -136 -71q-70 0 -105.5 54t-23.5 132q11 77 63.5 127t121.5 50q40 0 72 -21t42 -53l22 63h39zM315 171q9 63 -18.5 101.5t-77.5 38.5t-89.5 -38.5t-48.5 -101.5q-10 -63 18 -102t77 -39q50 0 89.5 39t49.5 102z
M356 434l-21 -22l-73 86l-102 -86l-21 22l129 114z" />
    <glyph glyph-name="atilde" unicode="&#xe3;" horiz-adv-x="425" 
d="M391 341l-41 -234q-11 -66 -11 -107h-47q0 43 4 60q-48 -71 -136 -71q-70 0 -105.5 54t-23.5 132q11 77 63.5 127t121.5 50q40 0 72 -21t42 -53l22 63h39zM315 171q9 63 -18.5 101.5t-77.5 38.5t-89.5 -38.5t-48.5 -101.5q-10 -63 18 -102t77 -39q50 0 89.5 39t49.5 102z
M373 501q-5 -42 -25.5 -64t-48.5 -22q-23 0 -53.5 25.5t-43.5 25.5q-17 0 -26.5 -11t-13.5 -37h-28q6 43 26 64.5t48 21.5q23 0 54 -25.5t44 -25.5q32 0 39 48h28z" />
    <glyph glyph-name="adieresis" unicode="&#xe4;" horiz-adv-x="425" 
d="M391 341l-41 -234q-11 -66 -11 -107h-47q0 43 4 60q-48 -71 -136 -71q-70 0 -105.5 54t-23.5 132q11 77 63.5 127t121.5 50q40 0 72 -21t42 -53l22 63h39zM315 171q9 63 -18.5 101.5t-77.5 38.5t-89.5 -38.5t-48.5 -101.5q-10 -63 18 -102t77 -39q50 0 89.5 39t49.5 102z
M360 416h-57l10 57h57zM203 416h-57l10 57h57z" />
    <glyph glyph-name="aring" unicode="&#xe5;" horiz-adv-x="425" 
d="M391 341l-41 -234q-11 -66 -11 -107h-47q0 43 4 60q-48 -71 -136 -71q-70 0 -105.5 54t-23.5 132q11 77 63.5 127t121.5 50q40 0 72 -21t42 -53l22 63h39zM315 171q9 63 -18.5 101.5t-77.5 38.5t-89.5 -38.5t-48.5 -101.5q-10 -63 18 -102t77 -39q50 0 89.5 39t49.5 102z
M268 563q-25 0 -44.5 -17.5t-21.5 -42.5t13.5 -42t40.5 -17t44.5 17t21.5 42t-13.5 42.5t-40.5 17.5zM272 594q37 0 61 -27t20 -64q-4 -38 -33 -64t-67 -26q-37 0 -61.5 26.5t-20.5 63.5q4 38 33.5 64.5t67.5 26.5z" />
    <glyph glyph-name="ae" unicode="&#xe6;" horiz-adv-x="590" 
d="M264 77q-82 -86 -161 -86q-38 0 -61 24t-19 62q12 113 231 133l3 25q5 43 -10 61t-56 18q-55 0 -124 -42l5 44q64 38 132 38q86 0 100 -60q55 58 128 58q55 0 91 -33.5t34 -84.5q-2 -28 -11 -48h-244q-1 -4 -4 -29q-2 -56 28.5 -91.5t89.5 -35.5q62 0 113 39l-8 -46
q-47 -34 -119 -34q-49 0 -86 24t-52 64zM251 177q-169 -20 -177 -95q-3 -26 11 -38.5t35 -12.5q53 0 133 79q-6 29 -4 52zM511 242q1 31 -21 51t-60 20q-39 0 -71.5 -22.5t-48.5 -69.5h197q4 8 4 21z" />
    <glyph glyph-name="ccedilla" unicode="&#xe7;" horiz-adv-x="350" 
d="M152 -9q-64 10 -99 63t-24 123q11 78 67 126.5t128 48.5q64 0 103 -33l-7 -42q-38 34 -92 34q-55 0 -96.5 -36t-51.5 -98q-10 -65 22 -106t94 -41q46 0 93 35l-7 -46q-37 -29 -99 -30l-40 -43q32 -2 56 -20t21 -50q-5 -51 -49.5 -75t-107.5 -22l3 31q47 -2 77.5 13.5
t34.5 47.5q3 28 -27 38t-62 -1l2 17z" />
    <glyph glyph-name="egrave" unicode="&#xe8;" horiz-adv-x="369" 
d="M336 234q-2 -28 -11 -48h-244q-1 -4 -4 -29q-2 -56 28.5 -91.5t89.5 -35.5q62 0 113 39l-8 -46q-47 -34 -119 -34q-73 0 -115 48.5t-38 121.5q4 84 59 138.5t124 54.5q55 0 91 -33.5t34 -84.5zM290 242q1 31 -21 51t-60 20q-39 0 -71.5 -22.5t-48.5 -69.5h197q4 8 4 21z
M289 425l-12 -17l-139 80l28 40z" />
    <glyph glyph-name="eacute" unicode="&#xe9;" horiz-adv-x="369" 
d="M336 234q-2 -28 -11 -48h-244q-1 -4 -4 -29q-2 -56 28.5 -91.5t89.5 -35.5q62 0 113 39l-8 -46q-47 -34 -119 -34q-73 0 -115 48.5t-38 121.5q4 84 59 138.5t124 54.5q55 0 91 -33.5t34 -84.5zM290 242q1 31 -21 51t-60 20q-39 0 -71.5 -22.5t-48.5 -69.5h197q4 8 4 21z
M159 425l123 103l28 -40l-139 -80z" />
    <glyph glyph-name="ecircumflex" unicode="&#xea;" horiz-adv-x="369" 
d="M336 234q-2 -28 -11 -48h-244q-1 -4 -4 -29q-2 -56 28.5 -91.5t89.5 -35.5q62 0 113 39l-8 -46q-47 -34 -119 -34q-73 0 -115 48.5t-38 121.5q4 84 59 138.5t124 54.5q55 0 91 -33.5t34 -84.5zM290 242q1 31 -21 51t-60 20q-39 0 -71.5 -22.5t-48.5 -69.5h197q4 8 4 21z
M328 434l-21 -22l-73 86l-102 -86l-21 22l129 114z" />
    <glyph glyph-name="edieresis" unicode="&#xeb;" horiz-adv-x="369" 
d="M336 234q-2 -28 -11 -48h-244q-1 -4 -4 -29q-2 -56 28.5 -91.5t89.5 -35.5q62 0 113 39l-8 -46q-47 -34 -119 -34q-73 0 -115 48.5t-38 121.5q4 84 59 138.5t124 54.5q55 0 91 -33.5t34 -84.5zM290 242q1 31 -21 51t-60 20q-39 0 -71.5 -22.5t-48.5 -69.5h197q4 8 4 21z
M332 416h-57l10 57h57zM175 416h-57l10 57h57z" />
    <glyph glyph-name="igrave" unicode="&#xec;" horiz-adv-x="165" 
d="M132 341l-60 -341h-51l60 341h51zM172 425l-12 -17l-139 80l28 40z" />
    <glyph glyph-name="iacute" unicode="&#xed;" horiz-adv-x="165" 
d="M132 341l-60 -341h-51l60 341h51zM56 425l123 103l28 -40l-139 -80z" />
    <glyph glyph-name="icircumflex" unicode="&#xee;" horiz-adv-x="165" 
d="M132 341l-60 -341h-51l60 341h51zM225 434l-21 -22l-73 86l-102 -86l-21 22l129 114z" />
    <glyph glyph-name="idieresis" unicode="&#xef;" horiz-adv-x="165" 
d="M132 341l-60 -341h-51l60 341h51zM220 416h-57l10 57h57zM63 416h-57l10 57h57z" />
    <glyph glyph-name="eth" unicode="&#xf0;" horiz-adv-x="424" 
d="M203 612q46 -37 89 -89l92 50l12 -27l-86 -47q97 -153 74 -329q-11 -81 -68 -132t-130 -51q-78 0 -123.5 56.5t-33.5 134.5q12 77 67.5 126.5t128.5 49.5q75 0 109 -52q-10 95 -62 176l-92 -50l-10 28l84 47q-37 51 -78 84zM332 171q8 62 -22.5 102t-86.5 40
q-55 0 -95.5 -40t-48.5 -102q-8 -63 22.5 -103t85.5 -40q56 0 96.5 40.5t48.5 102.5z" />
    <glyph glyph-name="ntilde" unicode="&#xf1;" horiz-adv-x="411" 
d="M262 352q48 0 73 -28t25 -73q0 -25 -17 -118l-23 -133h-51l34 191q6 36 6 53q0 32 -19.5 48.5t-46.5 16.5q-43 0 -86.5 -41t-56.5 -110l-28 -158h-51l43 239q10 63 10 102h47q0 -48 -6 -80q28 44 67.5 67.5t79.5 23.5zM366 501q-5 -42 -25.5 -64t-48.5 -22
q-23 0 -53.5 25.5t-43.5 25.5q-17 0 -26.5 -11t-13.5 -37h-28q6 43 26 64.5t48 21.5q23 0 54 -25.5t44 -25.5q32 0 39 48h28z" />
    <glyph glyph-name="ograve" unicode="&#xf2;" horiz-adv-x="424" 
d="M383 171q-8 -77 -64.5 -130.5t-132.5 -53.5q-77 0 -121.5 53.5t-36.5 130.5q8 76 64.5 129.5t131.5 53.5q78 0 122.5 -53t36.5 -130zM332 171q8 62 -22.5 102t-86.5 40q-55 0 -95.5 -40t-48.5 -102q-8 -63 22.5 -103t85.5 -40q56 0 96.5 40.5t48.5 102.5zM303 425
l-12 -17l-139 80l28 40z" />
    <glyph glyph-name="oacute" unicode="&#xf3;" horiz-adv-x="424" 
d="M383 171q-8 -77 -64.5 -130.5t-132.5 -53.5q-77 0 -121.5 53.5t-36.5 130.5q8 76 64.5 129.5t131.5 53.5q78 0 122.5 -53t36.5 -130zM332 171q8 62 -22.5 102t-86.5 40q-55 0 -95.5 -40t-48.5 -102q-8 -63 22.5 -103t85.5 -40q56 0 96.5 40.5t48.5 102.5zM173 425
l123 103l28 -40l-139 -80z" />
    <glyph glyph-name="ocircumflex" unicode="&#xf4;" horiz-adv-x="424" 
d="M383 171q-8 -77 -64.5 -130.5t-132.5 -53.5q-77 0 -121.5 53.5t-36.5 130.5q8 76 64.5 129.5t131.5 53.5q78 0 122.5 -53t36.5 -130zM332 171q8 62 -22.5 102t-86.5 40q-55 0 -95.5 -40t-48.5 -102q-8 -63 22.5 -103t85.5 -40q56 0 96.5 40.5t48.5 102.5zM342 434
l-21 -22l-73 86l-102 -86l-21 22l129 114z" />
    <glyph glyph-name="otilde" unicode="&#xf5;" horiz-adv-x="424" 
d="M383 171q-8 -77 -64.5 -130.5t-132.5 -53.5q-77 0 -121.5 53.5t-36.5 130.5q8 76 64.5 129.5t131.5 53.5q78 0 122.5 -53t36.5 -130zM332 171q8 62 -22.5 102t-86.5 40q-55 0 -95.5 -40t-48.5 -102q-8 -63 22.5 -103t85.5 -40q56 0 96.5 40.5t48.5 102.5zM359 501
q-5 -42 -25.5 -64t-48.5 -22q-23 0 -53.5 25.5t-43.5 25.5q-17 0 -26.5 -11t-13.5 -37h-28q6 43 26 64.5t48 21.5q23 0 54 -25.5t44 -25.5q32 0 39 48h28z" />
    <glyph glyph-name="odieresis" unicode="&#xf6;" horiz-adv-x="424" 
d="M383 171q-8 -77 -64.5 -130.5t-132.5 -53.5q-77 0 -121.5 53.5t-36.5 130.5q8 76 64.5 129.5t131.5 53.5q78 0 122.5 -53t36.5 -130zM332 171q8 62 -22.5 102t-86.5 40q-55 0 -95.5 -40t-48.5 -102q-8 -63 22.5 -103t85.5 -40q56 0 96.5 40.5t48.5 102.5zM346 416h-57
l10 57h57zM189 416h-57l10 57h57z" />
    <glyph glyph-name="divide" unicode="&#xf7;" horiz-adv-x="404" 
d="M360 210h-317l7 39h317zM207 73h-58l10 58h58zM251 328h-58l10 58h58z" />
    <glyph glyph-name="oslash" unicode="&#xf8;" horiz-adv-x="424" 
d="M296 287l-167 -244q27 -15 58 -15q56 0 96.5 40.5t48.5 102.5q9 77 -36 116zM114 54l167 244q-27 15 -58 15q-55 0 -95.5 -40t-48.5 -102q-9 -76 35 -117zM89 17q-72 54 -61 154q8 76 64.5 129.5t131.5 53.5q47 0 82 -20l30 45l16 -11l-30 -44q34 -24 50 -64.5t11 -88.5
q-8 -77 -64.5 -130.5t-132.5 -53.5q-46 0 -81 20l-31 -45l-16 11z" />
    <glyph glyph-name="ugrave" unicode="&#xf9;" horiz-adv-x="411" 
d="M137 -11q-48 0 -73 28t-25 73q0 25 17 118l23 133h51l-34 -191q-6 -36 -6 -53q0 -32 19.5 -48.5t46.5 -16.5q44 0 87 40.5t56 110.5l28 158h51l-43 -239q-10 -55 -10 -102h-47q0 48 6 80q-28 -44 -67.5 -67.5t-79.5 -23.5zM304 425l-12 -17l-139 80l28 40z" />
    <glyph glyph-name="uacute" unicode="&#xfa;" horiz-adv-x="411" 
d="M137 -11q-48 0 -73 28t-25 73q0 25 17 118l23 133h51l-34 -191q-6 -36 -6 -53q0 -32 19.5 -48.5t46.5 -16.5q44 0 87 40.5t56 110.5l28 158h51l-43 -239q-10 -55 -10 -102h-47q0 48 6 80q-28 -44 -67.5 -67.5t-79.5 -23.5zM174 425l123 103l28 -40l-139 -80z" />
    <glyph glyph-name="ucircumflex" unicode="&#xfb;" horiz-adv-x="411" 
d="M137 -11q-48 0 -73 28t-25 73q0 25 17 118l23 133h51l-34 -191q-6 -36 -6 -53q0 -32 19.5 -48.5t46.5 -16.5q44 0 87 40.5t56 110.5l28 158h51l-43 -239q-10 -55 -10 -102h-47q0 48 6 80q-28 -44 -67.5 -67.5t-79.5 -23.5zM343 434l-21 -22l-73 86l-102 -86l-21 22
l129 114z" />
    <glyph glyph-name="udieresis" unicode="&#xfc;" horiz-adv-x="411" 
d="M137 -11q-48 0 -73 28t-25 73q0 25 17 118l23 133h51l-34 -191q-6 -36 -6 -53q0 -32 19.5 -48.5t46.5 -16.5q44 0 87 40.5t56 110.5l28 158h51l-43 -239q-10 -55 -10 -102h-47q0 48 6 80q-28 -44 -67.5 -67.5t-79.5 -23.5zM347 416h-57l10 57h57zM190 416h-57l10 57h57z
" />
    <glyph glyph-name="yacute" unicode="&#xfd;" horiz-adv-x="346" 
d="M358 341l-323 -536h-53l126 205l-84 331h49l69 -274l163 274h53zM155 425l123 103l28 -40l-139 -80z" />
    <glyph glyph-name="thorn" unicode="&#xfe;" horiz-adv-x="425" 
d="M98 170q-10 -63 18 -101.5t78 -38.5t89.5 38.5t48.5 101.5t-18.5 102t-76.5 39q-50 0 -89.5 -39t-49.5 -102zM127 600h51l-55 -310q48 62 130 62q70 0 105.5 -54t23.5 -132q-11 -77 -63.5 -127t-121.5 -50q-40 0 -72 21t-42 53l-46 -258h-51z" />
    <glyph glyph-name="ydieresis" unicode="&#xff;" horiz-adv-x="346" 
d="M358 341l-323 -536h-53l126 205l-84 331h49l69 -274l163 274h53zM303 416h-57l10 57h57zM146 416h-57l10 57h57z" />
    <glyph glyph-name="dotlessi" unicode="&#x131;" horiz-adv-x="165" 
d="M132 341l-60 -341h-51l60 341h51z" />
    <glyph glyph-name="Lslash" unicode="&#x141;" horiz-adv-x="405" 
d="M361 48l-9 -48h-322l48 267l-58 -39l-15 29l80 55l51 288h55l-43 -246l80 56l15 -29l-103 -72l-46 -261h267z" />
    <glyph glyph-name="lslash" unicode="&#x142;" horiz-adv-x="165" 
d="M135 356l57 39l15 -28l-80 -54l-55 -313h-51l48 273l-60 -41l-15 28l83 57l50 283h51z" />
    <glyph glyph-name="OE" unicode="&#x152;" horiz-adv-x="830" 
d="M846 600l-9 -48h-267l-37 -212h220l-9 -48h-219l-43 -244h267l-9 -48h-424q-80 0 -137.5 25t-86 67t-39.5 97.5t2 117.5q22 133 109.5 213t243.5 80h438zM515 552h-112q-69 0 -123 -20.5t-87.5 -57t-53 -79.5t-27.5 -95q-11 -49 -3.5 -94.5t28 -80.5t67.5 -56t117 -21
h106z" />
    <glyph glyph-name="oe" unicode="&#x153;" horiz-adv-x="672" 
d="M593 242q1 31 -21 51t-60 20q-39 0 -71.5 -22.5t-48.5 -69.5h197q4 8 4 21zM346 73q-61 -86 -160 -86q-77 0 -121.5 53.5t-36.5 130.5q8 76 64.5 129.5t131.5 53.5q101 0 143 -84q26 39 65.5 60.5t81.5 21.5q55 0 91 -33.5t34 -84.5q-2 -28 -11 -48h-244q-1 -4 -4 -29
q-2 -56 28.5 -91.5t89.5 -35.5q62 0 113 39l-8 -46q-47 -34 -119 -34q-49 0 -84.5 22.5t-53.5 61.5zM332 171q8 62 -22.5 102t-86.5 40q-55 0 -95.5 -40t-48.5 -102q-8 -63 22.5 -103t85.5 -40q56 0 96.5 40.5t48.5 102.5z" />
    <glyph glyph-name="Scaron" unicode="&#x160;" horiz-adv-x="438" 
d="M419 561l-17 -45q-57 50 -132 50q-51 0 -87.5 -26t-43.5 -71q-13 -92 100 -125q175 -51 154 -192q-11 -81 -69.5 -123.5t-137.5 -42.5q-110 0 -172 75l18 53q70 -80 161 -80q58 0 98 32t47 85t-21 87.5t-106 58.5q-72 22 -104 67.5t-23 106.5t63.5 102t130.5 41
q41 0 81 -16.5t60 -36.5zM190 790l21 22l73 -86l102 86l21 -22l-129 -114z" />
    <glyph glyph-name="scaron" unicode="&#x161;" horiz-adv-x="299" 
d="M265 324l-14 -38q-45 24 -85 24q-65 0 -75 -43q-5 -24 8.5 -40t54.5 -27q107 -33 91 -117q-8 -47 -43 -70.5t-84 -23.5q-53 0 -116 36l14 40q47 -33 103 -33q71 0 80 50q10 53 -71 77q-98 27 -83 109q6 37 39 60.5t82 23.5q59 0 99 -28zM80 528l21 22l73 -86l102 86
l21 -22l-129 -114z" />
    <glyph glyph-name="Ydieresis" unicode="&#x178;" horiz-adv-x="508" 
d="M563 600l-278 -360l-42 -240h-55l42 240l-150 360h55l128 -308l238 308h62zM441 677h-57l10 57h57zM284 677h-57l10 57h57z" />
    <glyph glyph-name="Zcaron" unicode="&#x17d;" horiz-adv-x="454" 
d="M474 566l-395 -518h304l-9 -48h-371l5 34l394 518h-303l9 48h371zM204 790l21 22l73 -86l102 86l21 -22l-129 -114z" />
    <glyph glyph-name="zcaron" unicode="&#x17e;" horiz-adv-x="329" 
d="M315 341l-4 -28l-245 -273h205l-7 -40h-269l5 28l245 273h-188l7 40h251zM108 528l21 22l73 -86l102 86l21 -22l-129 -114z" />
    <glyph glyph-name="florin" unicode="&#x192;" horiz-adv-x="263" 
d="M336 609l-10 -38q-16 4 -24 4q-37 0 -61 -23.5t-39 -82.5l-36 -137h99l-7 -38h-101l-100 -377q-31 -119 -131 -119q-34 0 -54 20l9 39q18 -20 44 -20q32 0 52 19.5t31 63.5l98 374h-70l7 38h72l36 137q38 147 150 147q21 0 35 -7z" />
    <glyph glyph-name="circumflex" unicode="&#x2c6;" horiz-adv-x="307" 
d="M276 434l-21 -22l-73 86l-102 -86l-21 22l129 114z" />
    <glyph glyph-name="caron" unicode="&#x2c7;" horiz-adv-x="300" 
d="M77 528l21 22l73 -86l102 86l21 -22l-129 -114z" />
    <glyph glyph-name="breve" unicode="&#x2d8;" horiz-adv-x="300" 
d="M270 503q-6 -39 -35.5 -65t-66.5 -26t-59.5 24.5t-22.5 66.5l15 1q6 -27 25 -43t46 -16q26 0 49.5 17.5t33.5 41.5z" />
    <glyph glyph-name="dotaccent" unicode="&#x2d9;" horiz-adv-x="307" 
d="M201 416h-57l10 57h57z" />
    <glyph glyph-name="ring" unicode="&#x2da;" horiz-adv-x="300" 
d="M188 563q-25 0 -44.5 -17.5t-21.5 -42.5t13.5 -42t40.5 -17t44.5 17t21.5 42t-13.5 42.5t-40.5 17.5zM192 594q37 0 61 -27t20 -64q-4 -38 -33 -64t-67 -26q-37 0 -61.5 26.5t-20.5 63.5q4 38 33.5 64.5t67.5 26.5z" />
    <glyph glyph-name="ogonek" unicode="&#x2db;" horiz-adv-x="300" 
d="M144 -78q-6 -28 -29 -45t-53 -17q-31 0 -51 21.5t-18 52.5q3 38 39 62t73 12l4 -4q-1 1 -5.5 -3t-5.5 -4h-8q-23 -1 -42 -16t-20 -35q-2 -23 11 -38.5t36 -15.5q35 0 51 27l9 18l7 -13z" />
    <glyph glyph-name="tilde" unicode="&#x2dc;" horiz-adv-x="300" 
d="M293 501q-5 -42 -25.5 -64t-48.5 -22q-23 0 -53.5 25.5t-43.5 25.5q-17 0 -26.5 -11t-13.5 -37h-28q6 43 26 64.5t48 21.5q23 0 54 -25.5t44 -25.5q32 0 39 48h28z" />
    <glyph glyph-name="hungarumlaut" unicode="&#x2dd;" horiz-adv-x="307" 
d="M309 491l-145 -82l-10 16l128 107zM201 491l-145 -82l-11 16l128 107z" />
    <glyph glyph-name="pi" unicode="&#x3c0;" horiz-adv-x="492" 
d="M479 336l-8 -43h-59l-52 -293h-51l52 293h-203l-52 -293h-51l52 293h-60l8 43h424z" />
    <glyph glyph-name="endash" unicode="&#x2013;" horiz-adv-x="379" 
d="M386 269l-8 -37h-371l8 37h371z" />
    <glyph glyph-name="emdash" unicode="&#x2014;" horiz-adv-x="609" 
d="M616 269l-7 -37h-602l8 37h601z" />
    <glyph glyph-name="quoteleft" unicode="&#x2018;" horiz-adv-x="189" 
d="M95 422l11 59q19 101 88 125l10 -19q-51 -27 -61 -99h30l-12 -66h-66z" />
    <glyph glyph-name="quoteright" unicode="&#x2019;" horiz-adv-x="189" 
d="M195 600l-11 -59q-19 -101 -88 -125l-10 19q51 27 61 99h-30l12 66h66z" />
    <glyph glyph-name="quotesinglbase" unicode="&#x201a;" horiz-adv-x="190" 
d="M101 66l-11 -59q-19 -101 -88 -125l-10 19q51 27 61 99h-30l12 66h66z" />
    <glyph glyph-name="quotedblleft" unicode="&#x201c;" horiz-adv-x="329" 
d="M235 422l11 59q19 101 88 125l10 -19q-51 -27 -61 -99h30l-12 -66h-66zM95 422l11 59q19 101 88 125l10 -19q-51 -27 -61 -99h30l-12 -66h-66z" />
    <glyph glyph-name="quotedblright" unicode="&#x201d;" horiz-adv-x="329" 
d="M335 600l-11 -59q-19 -101 -88 -125l-10 19q51 27 61 99h-30l12 66h66zM195 600l-11 -59q-19 -101 -88 -125l-10 19q51 27 61 99h-30l12 66h66z" />
    <glyph glyph-name="quotedblbase" unicode="&#x201e;" horiz-adv-x="329" 
d="M241 66l-11 -59q-19 -101 -88 -125l-10 19q51 27 61 99h-30l12 66h66zM101 66l-11 -59q-19 -101 -88 -125l-10 19q51 27 61 99h-30l12 66h66z" />
    <glyph glyph-name="dagger" unicode="&#x2020;" horiz-adv-x="410" 
d="M401 352h-149l-97 -549h-47l97 549h-149l7 41h149l36 207h47l-36 -207h149z" />
    <glyph glyph-name="daggerdbl" unicode="&#x2021;" horiz-adv-x="410" 
d="M340 9h-149l-36 -206h-47l36 206h-149l8 42h149l53 301h-149l7 41h149l36 206h47l-36 -206h149l-7 -41h-149l-53 -301h149z" />
    <glyph glyph-name="bullet" unicode="&#x2022;" horiz-adv-x="224" 
d="M125 309q28 0 45 -19t14 -47q-3 -27 -24 -46t-49 -19q-27 0 -44 19t-14 46q3 28 24 47t48 19z" />
    <glyph glyph-name="ellipsis" unicode="&#x2026;" horiz-adv-x="630" 
d="M98 0h-66l12 66h66zM308 0h-66l12 66h66zM518 0h-66l12 66h66z" />
    <glyph glyph-name="perthousand" unicode="&#x2030;" horiz-adv-x="944" 
d="M332 468q-8 -65 -47.5 -105t-91.5 -40q-49 0 -80.5 40.5t-23.5 104.5q8 65 48 105t91 40q49 0 80.5 -40.5t23.5 -104.5zM571 600l-453 -618l-23 17l453 618zM883 133q-8 -65 -47.5 -105t-91.5 -40q-49 0 -80.5 40.5t-23.5 104.5q8 65 48 105t91 40q49 0 80.5 -40.5
t23.5 -104.5zM288 468q7 49 -12 78.5t-52 29.5t-58.5 -29t-32.5 -79q-7 -49 12 -78.5t52 -29.5t58.5 29t32.5 79zM839 133q7 49 -12 78.5t-52 29.5t-58.5 -29t-32.5 -79q-7 -49 12 -78.5t52 -29.5t58.5 29t32.5 79zM579 133q-8 -65 -47.5 -105t-91.5 -40q-49 0 -80.5 40.5
t-23.5 104.5q8 65 48 105t91 40q49 0 80.5 -40.5t23.5 -104.5zM535 133q7 49 -12 78.5t-52 29.5t-58.5 -29t-32.5 -79q-7 -49 12 -78.5t52 -29.5t58.5 29t32.5 79z" />
    <glyph glyph-name="guilsinglleft" unicode="&#x2039;" horiz-adv-x="281" 
d="M271 361l-185 -158l128 -156l-21 -19l-159 178l223 178z" />
    <glyph glyph-name="guilsinglright" unicode="&#x203a;" horiz-adv-x="281" 
d="M5 51l185 158l-128 156l21 19l159 -178l-223 -178z" />
    <glyph glyph-name="fraction" unicode="&#x2044;" horiz-adv-x="190" 
d="M348 600l-453 -618l-23 17l453 618z" />
    <glyph glyph-name="Euro" unicode="&#x20ac;" horiz-adv-x="490" 
d="M506 580l-9 -50q-45 40 -118 40q-68 0 -122 -50.5t-81 -139.5h180l-6 -35h-183q-6 -22 -9 -44l-6 -45h182l-6 -35h-178q-1 -90 36 -139.5t114 -49.5q61 0 123 40l-8 -50q-57 -36 -126 -36q-95 0 -145.5 61.5t-48.5 173.5h-61l6 35h57l6 45q3 22 9 44h-56l6 35h59
q35 112 102.5 174t158.5 62q73 0 124 -36z" />
    <glyph glyph-name="trademark" unicode="&#x2122;" horiz-adv-x="760" 
d="M762 600l-59 -333h-46l37 209l9 47q-23 -40 -26 -46l-129 -210h-32l-54 209l-10 47q-6 -41 -8 -47l-37 -209h-46l59 333h54l70 -262l163 262h55zM362 600l-7 -42h-111l-52 -291h-49l52 291h-111l7 42h271z" />
    <glyph glyph-name="Omega" unicode="&#x2126;" horiz-adv-x="534" 
d="M517 396q-9 -64 -50.5 -120t-98.5 -85l-25 -143h103l-8 -48h-148l38 224q55 21 93 68.5t45 101.5q9 70 -30 122.5t-115 52.5t-128.5 -52.5t-61.5 -122.5q-7 -56 14.5 -103t71.5 -69l-38 -222h-146l8 48h104l25 146q-50 29 -75 83.5t-16 118.5q12 90 81 153.5t167 63.5
q91 0 146.5 -65t43.5 -152z" />
    <glyph glyph-name="partialdiff" unicode="&#x2202;" horiz-adv-x="486" 
d="M444 265q-14 -81 -42 -138.5t-64.5 -87t-71.5 -42t-72 -12.5q-81 0 -129.5 56.5t-33.5 139.5q15 85 77.5 140t143.5 55q44 0 85.5 -21t57.5 -52q37 265 -143 265q-67 0 -129 -40l10 53q53 34 129 34q122 0 166.5 -93t15.5 -257zM385 247q-15 37 -52 60t-85 23
q-62 0 -105 -40.5t-55 -108.5q-12 -67 20.5 -108.5t93.5 -41.5q27 0 52 9.5t51 32t47 67t33 107.5z" />
    <glyph glyph-name="Delta" unicode="&#x2206;" horiz-adv-x="549" 
d="M473 0h-476l340 612h19zM421 46l-92 471l-260 -471h352z" />
    <glyph glyph-name="product" unicode="&#x220f;" horiz-adv-x="586" 
d="M619 600l-8 -48h-60l-98 -552h-55l98 552h-288l-98 -552h-55l98 552h-60l8 48h518z" />
    <glyph glyph-name="summation" unicode="&#x2211;" horiz-adv-x="494" 
d="M540 600l-8 -46h-377l161 -329l-279 -349h390l-8 -46h-464l2 17l302 378l-174 357l4 18h451z" />
    <glyph glyph-name="minus" unicode="&#x2212;" horiz-adv-x="404" 
d="M351 249l-7 -40h-284l7 40h284z" />
    <glyph glyph-name="radical" unicode="&#x221a;" horiz-adv-x="424" 
d="M533 741l-417 -762h-12l-70 288l45 19l51 -224l371 679h32z" />
    <glyph glyph-name="infinity" unicode="&#x221e;" horiz-adv-x="690" 
d="M536 354q56 0 89 -36.5t27 -89.5t-45 -89t-95 -36q-38 0 -82.5 31t-81.5 72q-119 -103 -187 -103q-57 0 -89.5 36t-26.5 89q6 54 44.5 90t95.5 36q67 0 164 -104q117 104 187 104zM616 228q5 38 -18 65.5t-61 27.5q-54 0 -163 -93q90 -93 144 -93q37 0 65 28t33 65z
M322 228q-88 93 -143 93q-38 0 -66 -27.5t-32 -65.5q-4 -37 19 -65t60 -28q49 0 162 93z" />
    <glyph glyph-name="integral" unicode="&#x222b;" horiz-adv-x="228" 
d="M323 645l-6 -39q-24 6 -37 6q-43 0 -65 -27.5t-35 -98.5l-99 -561q-23 -124 -130 -124q-40 0 -59 22l7 39q20 -20 50 -20q34 0 53 21.5t27 67.5l97 552q16 92 53.5 130.5t102.5 38.5q22 0 41 -7z" />
    <glyph glyph-name="approxequal" unicode="&#x2248;" horiz-adv-x="403" 
d="M312 156q-28 -33 -71 -33q-23 0 -59 16.5t-54 16.5q-17 0 -34.5 -8t-27.5 -16l-9 -8l7 38q28 33 71 33q23 0 59 -16.5t54 -16.5q17 0 34.5 8t27.5 16l9 8zM347 297q-28 -33 -71 -33q-23 0 -64 16.5t-59 16.5q-17 0 -34.5 -8t-26.5 -16l-10 -8l7 38q28 33 71 33
q23 0 64 -16.5t59 -16.5q17 0 34.5 8t26.5 16l10 8z" />
    <glyph glyph-name="notequal" unicode="&#x2260;" horiz-adv-x="403" 
d="M362 406l-69 -86h57l-7 -39h-83l-77 -102h142l-7 -39h-168l-82 -103l-21 16l68 87h-56l7 39h82l77 102h-141l7 39h167l83 103z" />
    <glyph glyph-name="lessequal" unicode="&#x2264;" horiz-adv-x="385" 
d="M367 408l-242 -135l193 -134l-22 -32l-241 168l299 167zM323 38l-6 -38h-323l7 38h322z" />
    <glyph glyph-name="greaterequal" unicode="&#x2265;" horiz-adv-x="385" 
d="M323 38l-6 -38h-323l7 38h322zM41 142l242 135l-193 134l22 32l241 -168l-299 -167z" />
    <glyph glyph-name="lozenge" unicode="&#x25ca;" horiz-adv-x="466" 
d="M439 294l-254 -340l-135 340l254 332zM395 296l-102 261l-200 -265l103 -269z" />
    <glyph glyph-name="zero.oprp" horiz-adv-x="521" 
d="M284 447q98 0 153 -70.5t40 -168.5t-83.5 -160.5t-159.5 -62.5q-98 0 -152 70t-40 169q14 98 82.5 160.5t159.5 62.5zM283 403q-69 0 -122.5 -49.5t-65.5 -129.5q-13 -88 27.5 -141.5t112.5 -53.5q69 0 122.5 50t65.5 129q13 87 -27.5 141t-112.5 54z" />
    <glyph glyph-name="one.oprp" horiz-adv-x="256" 
d="M196 443l-78 -443h-55l68 380l-64 -6l7 37z" />
    <glyph glyph-name="two.oprp" horiz-adv-x="462" 
d="M409 312q-4 -52 -40 -91t-96 -75l-164 -98h274l-9 -48h-357l7 41l191 120q43 27 67 44.5t46.5 45.5t24.5 56q4 46 -26.5 69t-79.5 23q-81 0 -166 -61l10 55q76 54 161 54q74 0 118 -37t39 -98z" />
    <glyph glyph-name="three.oprp" horiz-adv-x="462" 
d="M436 402l-242 -224q84 10 137.5 -43t42.5 -137q-12 -91 -75.5 -145t-154.5 -54q-45 0 -86.5 15.5t-65.5 39.5l8 56q58 -63 149 -63q69 0 115 40.5t55 110.5q8 63 -23.5 102.5t-92.5 39.5q-58 0 -99 -34l-21 27l271 251h-277l8 48h357z" />
    <glyph glyph-name="four.oprp" horiz-adv-x="491" 
d="M431 47l-7 -47h-106l-34 -195h-54l34 195h-272l6 35l366 412h33l-72 -400h106zM325 344l-265 -297h211z" />
    <glyph glyph-name="five.oprp" horiz-adv-x="454" 
d="M426 432l-8 -48h-271l-41 -229q48 40 112 40q76 0 121.5 -52t33.5 -139q-12 -92 -76.5 -148t-155.5 -56q-45 0 -86.5 15.5t-65.5 39.5l8 56q58 -63 149 -63q66 0 114.5 43t57.5 113q8 65 -22 106t-92 41q-80 0 -130 -78l-29 12l62 347h319z" />
    <glyph glyph-name="six.oprp" horiz-adv-x="497" 
d="M484 580l-8 -51q-44 37 -116 37q-92 0 -158 -73.5t-86 -209.5q23 44 67.5 69t94.5 25q86 0 132.5 -57.5t35.5 -143.5q-10 -85 -69 -137.5t-140 -52.5q-37 0 -70.5 13.5t-62.5 43.5t-41.5 88t-2.5 136q22 167 103 257.5t204 90.5q36 0 68.5 -10.5t48.5 -24.5zM393 179
q7 69 -25 110.5t-97 41.5q-57 0 -105.5 -39.5t-54.5 -99.5q-7 -73 29.5 -117.5t94.5 -44.5q63 0 107 41t51 108z" />
    <glyph glyph-name="seven.oprp" horiz-adv-x="415" 
d="M417 403q-57 -67 -168 -265t-158 -333h-62q51 131 160.5 324.5t157.5 254.5h-297l8 48h363z" />
    <glyph glyph-name="eight.oprp" horiz-adv-x="503" 
d="M463 481q-2 -52 -38 -93t-93 -56q113 -42 109 -156q-3 -85 -63.5 -137.5t-155.5 -52.5q-80 0 -133 46.5t-50 118.5t52 123t119 63q-37 16 -58.5 48t-20.5 75q2 69 54.5 112.5t124.5 43.5q66 0 110.5 -38t42.5 -97zM411 476q2 46 -27 72.5t-75 26.5q-52 0 -88 -31.5
t-38 -84.5q-2 -45 27.5 -74t74.5 -29q49 0 86.5 34.5t39.5 85.5zM249 305q-59 0 -107 -41t-50 -107q-2 -58 37.5 -93t100.5 -35t108 40t50 106q3 59 -37 94.5t-102 35.5z" />
    <glyph glyph-name="nine.oprp" horiz-adv-x="497" 
d="M6 -165l8 51q44 -37 116 -37q90 0 158 81.5t88 220.5q-23 -44 -67.5 -69t-94.5 -25q-86 0 -132.5 57.5t-35.5 143.5q10 85 69 137.5t140 52.5q37 0 70.5 -13.5t62.5 -43.5t41.5 -88t2.5 -136q-22 -169 -104.5 -268t-204.5 -99q-36 0 -68.5 10.5t-48.5 24.5zM99 255
q-7 -69 25 -110.5t97 -41.5q57 0 105.5 39.5t54.5 99.5q7 73 -29.5 117.5t-94.5 44.5q-63 0 -107 -41t-51 -108z" />
    <glyph glyph-name="zero.otab" 
d="M268 447q94 0 146 -70.5t37 -168.5t-80.5 -160.5t-152.5 -62.5q-94 0 -145.5 70t-36.5 169q14 98 79.5 160.5t152.5 62.5zM267 403q-65 0 -115.5 -49.5t-62.5 -129.5q-13 -88 24.5 -141.5t105.5 -53.5q65 0 115.5 50t62.5 129q13 87 -24.5 141t-105.5 54z" />
    <glyph glyph-name="one.otab" 
d="M312 443l-78 -443h-55l68 380l-64 -6l7 37z" />
    <glyph glyph-name="two.otab" 
d="M420 312q-8 -91 -136 -166l-164 -98h274l-9 -48h-357l7 41l191 120q63 39 98.5 72t39.5 74q4 46 -26.5 69t-79.5 23q-81 0 -166 -61l10 55q76 54 161 54q74 0 118 -37t39 -98z" />
    <glyph glyph-name="three.otab" 
d="M449 402l-242 -224q85 10 138.5 -43t41.5 -137q-12 -91 -75.5 -145t-154.5 -54q-45 0 -86.5 15.5t-65.5 39.5l8 56q58 -63 149 -63q69 0 115 40.5t55 110.5q8 63 -23.5 102.5t-92.5 39.5q-58 0 -99 -34l-21 27l271 251h-277l8 48h357z" />
    <glyph glyph-name="four.otab" 
d="M429 47l-7 -47h-106l-34 -195h-54l34 195h-272l6 35l366 412h33l-72 -400h106zM323 344l-265 -297h211z" />
    <glyph glyph-name="five.otab" 
d="M442 432l-8 -48h-271l-41 -229q48 40 112 40q76 0 121.5 -52t33.5 -139q-12 -92 -76.5 -148t-155.5 -56q-45 0 -86.5 15.5t-65.5 39.5l8 56q58 -63 149 -63q66 0 114.5 43t57.5 113q8 65 -22 106t-92 41q-80 0 -130 -78l-29 12l62 347h319z" />
    <glyph glyph-name="six.otab" 
d="M479 580l-8 -51q-44 37 -116 37q-92 0 -158 -73.5t-86 -209.5q23 44 67.5 69t94.5 25q86 0 132.5 -57.5t35.5 -143.5q-10 -85 -69 -137.5t-140 -52.5q-37 0 -70.5 13.5t-62.5 43.5t-41.5 88t-2.5 136q22 167 103 257.5t204 90.5q36 0 68.5 -10.5t48.5 -24.5zM388 179
q8 68 -24.5 110t-97.5 42q-57 0 -105 -39.5t-55 -99.5q-7 -73 29.5 -117.5t94.5 -44.5q63 0 107 41t51 108z" />
    <glyph glyph-name="seven.otab" 
d="M452 403q-57 -67 -168 -265t-158 -333h-62q51 131 160.5 324.5t157.5 254.5h-297l8 48h363z" />
    <glyph glyph-name="eight.otab" 
d="M454 481q-2 -52 -38 -93t-93 -56q113 -42 109 -156q-3 -85 -62.5 -137.5t-154.5 -52.5q-79 0 -131.5 46.5t-49.5 118.5t52 123t119 63q-37 16 -59 48t-20 75q2 69 53.5 112.5t123.5 43.5q65 0 109 -38t42 -97zM402 476q2 46 -26 72.5t-74 26.5q-52 0 -87 -31.5t-37 -84.5
q-1 -46 27.5 -74.5t72.5 -28.5q48 0 85 34.5t39 85.5zM242 305q-58 0 -105.5 -41t-49.5 -107q-3 -58 36 -93t100 -35t107 40t49 106q3 59 -36 94.5t-101 35.5z" />
    <glyph glyph-name="nine.otab" 
d="M1 -165l8 51q44 -37 116 -37q90 0 158 81.5t88 220.5q-23 -44 -67.5 -69t-94.5 -25q-86 0 -132.5 57.5t-35.5 143.5q10 85 69 137.5t140 52.5q37 0 70.5 -13.5t62.5 -43.5t41.5 -88t2.5 -136q-22 -169 -104.5 -268t-204.5 -99q-36 0 -68.5 10.5t-48.5 24.5zM94 255
q-7 -69 25 -110.5t97 -41.5q57 0 105.5 39.5t54.5 99.5q7 73 -29.5 117.5t-94.5 44.5q-63 0 -107 -41t-51 -108z" />
    <glyph glyph-name="zero.ltab" 
d="M461 301q-22 -143 -89.5 -229t-158.5 -86q-94 0 -137 86t-21 229t89.5 229t158.5 86q94 0 137 -86t21 -229zM406 301q19 126 -10.5 196.5t-96.5 70.5q-65 0 -118 -71.5t-71 -195.5q-18 -126 11.5 -196.5t95.5 -70.5q65 0 118 71.5t71 195.5z" />
    <glyph glyph-name="one.ltab" 
d="M340 611l-107 -611h-55l97 548l-64 -6l7 37z" />
    <glyph glyph-name="two.ltab" 
d="M437 438q-9 -70 -44 -120t-90 -97l-202 -173h281l-8 -48h-352l6 40l221 195q55 48 90 95t42 107q8 66 -23 98.5t-85 32.5q-77 0 -156 -61l9 55q26 22 68 38t87 16q79 0 122.5 -48t33.5 -130z" />
    <glyph glyph-name="three.ltab" 
d="M479 570l-237 -205q84 10 137 -43t41 -137q-12 -91 -75.5 -145t-154.5 -54q-45 0 -86.5 15.5t-65.5 39.5l8 56q58 -63 149 -63q69 0 115 40.5t55 110.5q8 63 -23.5 102.5t-92.5 39.5q-58 0 -99 -34l-22 30l265 229h-273l8 48h356z" />
    <glyph glyph-name="four.ltab" 
d="M457 204l-7 -47h-106l-28 -157h-54l28 157h-271l5 35l367 418h33l-73 -406h106zM352 507l-266 -303h211z" />
    <glyph glyph-name="five.ltab" 
d="M472 600l-8 -48h-271l-38 -211q48 40 112 40q76 0 121.5 -52t33.5 -139q-12 -92 -76.5 -148t-155.5 -56q-45 0 -86.5 15.5t-65.5 39.5l8 56q58 -63 149 -63q66 0 114.5 43t57.5 113q8 65 -22 106t-92 41q-80 0 -130 -78l-29 12l59 329h319z" />
    <glyph glyph-name="six.ltab" 
d="M479 580l-8 -51q-44 37 -116 37q-92 0 -158 -73.5t-86 -209.5q23 44 67.5 69t94.5 25q86 0 132.5 -57.5t35.5 -143.5q-10 -85 -69 -137.5t-140 -52.5q-37 0 -70.5 13.5t-62.5 43.5t-41.5 88t-2.5 136q22 167 103 257.5t204 90.5q36 0 68.5 -10.5t48.5 -24.5zM388 179
q8 68 -24.5 110t-97.5 42q-57 0 -105 -39.5t-55 -99.5q-7 -73 29.5 -117.5t94.5 -44.5q63 0 107 41t51 108z" />
    <glyph glyph-name="seven.ltab" 
d="M482 571q-60 -71 -166.5 -254.5t-153.5 -316.5h-62q50 129 155 307.5t157 244.5h-297l8 48h363z" />
    <glyph glyph-name="eight.ltab" 
d="M454 481q-2 -52 -38 -93t-93 -56q113 -42 109 -156q-3 -85 -62.5 -137.5t-154.5 -52.5q-79 0 -131.5 46.5t-49.5 118.5t52 123t119 63q-37 16 -59 48t-20 75q2 69 53.5 112.5t123.5 43.5q65 0 109 -38t42 -97zM402 476q2 46 -26 72.5t-74 26.5q-52 0 -87 -31.5t-37 -84.5
q-1 -46 27.5 -74.5t72.5 -28.5q48 0 85 34.5t39 85.5zM242 305q-58 0 -105.5 -41t-49.5 -107q-3 -58 36 -93t100 -35t107 40t49 106q3 59 -36 94.5t-101 35.5z" />
    <glyph glyph-name="nine.ltab" 
d="M33 22l8 51q44 -37 116 -37q92 0 158 73.5t86 209.5q-23 -44 -67.5 -69t-94.5 -25q-86 0 -132.5 57.5t-35.5 143.5q10 85 69 137.5t140 52.5q37 0 70.5 -13.5t62.5 -43.5t41.5 -88t2.5 -136q-22 -167 -103 -257.5t-204 -90.5q-36 0 -68.5 10.5t-48.5 24.5zM124 423
q-7 -69 25 -110.5t97 -41.5q57 0 105.5 39.5t54.5 99.5q7 73 -29.5 117.5t-94.5 44.5q-63 0 -107 -41t-51 -108z" />
    <glyph glyph-name="questiondown.caps" horiz-adv-x="403" 
d="M284 600h66l-12 -66h-66zM19 134q13 117 171 188l60 27l16 89h46l-21 -117l-62 -29q-76 -35 -112 -71t-41 -85q-6 -52 28 -77.5t92 -25.5q41 0 91 19.5t82 49.5l-6 -57q-31 -26 -80.5 -43.5t-95.5 -17.5q-77 0 -126.5 38.5t-41.5 111.5z" />
    <glyph glyph-name="exclamdown.caps" horiz-adv-x="212" 
d="M142 600h66l-12 -66h-66zM102 0h-67l94 438h35z" />
    <glyph glyph-name="at.caps" horiz-adv-x="675" 
d="M676 353q-10 -95 -77.5 -170t-132.5 -75q-55 0 -61 53q-18 -24 -46.5 -40.5t-57.5 -16.5q-61 0 -83.5 53t-0.5 130q22 76 81.5 129t121.5 53q31 0 62 -17h41l-71 -250q-8 -29 0.5 -46.5t32.5 -17.5q47 0 97.5 65t59.5 148q11 101 -52.5 166.5t-163.5 65.5
q-126 0 -225.5 -94t-113.5 -222q-13 -123 60 -201t190 -78q112 0 221 66l9 -21q-112 -74 -238 -74q-134 0 -217.5 88.5t-70.5 217.5q15 144 128.5 247.5t257.5 103.5q118 0 190 -73.5t59 -189.5zM472 416q-25 21 -57 21q-48 0 -91.5 -43.5t-61.5 -107.5q-19 -63 -4.5 -104.5
t60.5 -41.5q30 0 60.5 26.5t40.5 60.5z" />
    <glyph glyph-name="Q.alt" horiz-adv-x="674" 
d="M590 300q14 118 -45.5 191.5t-162.5 73.5q-102 0 -180 -73.5t-91 -191.5t46 -191.5t162 -73.5q102 0 179.5 74t91.5 191zM365 -11l25 -55q22 -49 47 -68t63 -19q53 0 99 49l22 -29q-57 -66 -137 -66q-101 0 -149 113l-30 71q-121 3 -194 91.5t-57 223.5q16 139 111 227
t223 88q124 0 199.5 -89t59.5 -226q-15 -124 -93.5 -209t-188.5 -102z" />
    <glyph glyph-name="Q.alt2" horiz-adv-x="674" 
d="M647 300q-12 -102 -69 -179.5t-143 -111.5l80 -142h-65l-69 125q-35 -8 -67 -8q-124 0 -200 89.5t-60 226.5q16 139 111 227.5t223 88.5q124 0 199.5 -89.5t59.5 -226.5zM591 300q14 118 -46.5 193t-163.5 75q-102 0 -179.5 -75t-90.5 -193q-14 -118 46 -193t163 -75
q101 0 179 75t92 193z" />
    <glyph glyph-name="a.alt" horiz-adv-x="437" 
d="M315 171q9 63 -18.5 101.5t-77.5 38.5t-89.5 -38.5t-48.5 -101.5q-10 -63 18 -102t77 -39q50 0 89.5 39t49.5 102zM343 62q-7 -35 17 -35q10 0 25 5v-24q-23 -15 -49 -15q-52 0 -46 58q-48 -62 -130 -62q-70 0 -105.5 54t-23.5 132q11 77 63.5 127t121.5 50q40 0 72 -21
t42 -53l23 63h39z" />
    <glyph glyph-name="aacute.alt" horiz-adv-x="437" 
d="M315 171q9 63 -18.5 101.5t-77.5 38.5t-89.5 -38.5t-48.5 -101.5q-10 -63 18 -102t77 -39q50 0 89.5 39t49.5 102zM343 62q-7 -35 17 -35q10 0 25 5v-24q-23 -15 -49 -15q-52 0 -46 58q-48 -62 -130 -62q-70 0 -105.5 54t-23.5 132q11 77 63.5 127t121.5 50q40 0 72 -21
t42 -53l23 63h39zM187 425l123 103l28 -40l-139 -80z" />
    <glyph glyph-name="acircumflex.alt" horiz-adv-x="437" 
d="M315 171q9 63 -18.5 101.5t-77.5 38.5t-89.5 -38.5t-48.5 -101.5q-10 -63 18 -102t77 -39q50 0 89.5 39t49.5 102zM343 62q-7 -35 17 -35q10 0 25 5v-24q-23 -15 -49 -15q-52 0 -46 58q-48 -62 -130 -62q-70 0 -105.5 54t-23.5 132q11 77 63.5 127t121.5 50q40 0 72 -21
t42 -53l23 63h39zM356 434l-21 -22l-73 86l-102 -86l-21 22l129 114z" />
    <glyph glyph-name="adieresis.alt" horiz-adv-x="437" 
d="M315 171q9 63 -18.5 101.5t-77.5 38.5t-89.5 -38.5t-48.5 -101.5q-10 -63 18 -102t77 -39q50 0 89.5 39t49.5 102zM343 62q-7 -35 17 -35q10 0 25 5v-24q-23 -15 -49 -15q-52 0 -46 58q-48 -62 -130 -62q-70 0 -105.5 54t-23.5 132q11 77 63.5 127t121.5 50q40 0 72 -21
t42 -53l23 63h39zM360 416h-57l10 57h57zM203 416h-57l10 57h57z" />
    <glyph glyph-name="agrave.alt" horiz-adv-x="437" 
d="M315 171q9 63 -18.5 101.5t-77.5 38.5t-89.5 -38.5t-48.5 -101.5q-10 -63 18 -102t77 -39q50 0 89.5 39t49.5 102zM343 62q-7 -35 17 -35q10 0 25 5v-24q-23 -15 -49 -15q-52 0 -46 58q-48 -62 -130 -62q-70 0 -105.5 54t-23.5 132q11 77 63.5 127t121.5 50q40 0 72 -21
t42 -53l23 63h39zM317 425l-12 -17l-139 80l28 40z" />
    <glyph glyph-name="aring.alt" horiz-adv-x="437" 
d="M315 171q9 63 -18.5 101.5t-77.5 38.5t-89.5 -38.5t-48.5 -101.5q-10 -63 18 -102t77 -39q50 0 89.5 39t49.5 102zM343 62q-7 -35 17 -35q10 0 25 5v-24q-23 -15 -49 -15q-52 0 -46 58q-48 -62 -130 -62q-70 0 -105.5 54t-23.5 132q11 77 63.5 127t121.5 50q40 0 72 -21
t42 -53l23 63h39zM268 563q-25 0 -44.5 -17.5t-21.5 -42.5t13.5 -42t40.5 -17t44.5 17t21.5 42t-13.5 42.5t-40.5 17.5zM272 594q37 0 61 -27t20 -64q-4 -38 -33 -64t-67 -26q-37 0 -61.5 26.5t-20.5 63.5q4 38 33.5 64.5t67.5 26.5z" />
    <glyph glyph-name="atilde.alt" horiz-adv-x="437" 
d="M315 171q9 63 -18.5 101.5t-77.5 38.5t-89.5 -38.5t-48.5 -101.5q-10 -63 18 -102t77 -39q50 0 89.5 39t49.5 102zM343 62q-7 -35 17 -35q10 0 25 5v-24q-23 -15 -49 -15q-52 0 -46 58q-48 -62 -130 -62q-70 0 -105.5 54t-23.5 132q11 77 63.5 127t121.5 50q40 0 72 -21
t42 -53l23 63h39zM373 501q-5 -42 -25.5 -64t-48.5 -22q-23 0 -53.5 25.5t-43.5 25.5q-17 0 -26.5 -11t-13.5 -37h-28q6 43 26 64.5t48 21.5q23 0 54 -25.5t44 -25.5q32 0 39 48h28z" />
    <glyph glyph-name="d.alt" horiz-adv-x="437" 
d="M315 171q9 63 -18.5 101.5t-77.5 38.5t-89.5 -38.5t-48.5 -101.5q-10 -63 18 -102t77 -39q50 0 89.5 39t49.5 102zM343 62q-7 -35 17 -35q10 0 25 5v-24q-23 -15 -49 -15q-52 0 -46 58q-48 -62 -130 -62q-70 0 -105.5 54t-23.5 132q11 77 63.5 127t121.5 50q40 0 72 -21
t42 -53l57 322h51z" />
    <glyph glyph-name="f.alt" horiz-adv-x="225" 
d="M282 609l-7 -37q-14 4 -23 4q-33 0 -53.5 -21t-29.5 -75l-25 -139h92l-7 -38h-91l-86 -498h-51l86 498h-65l7 38h64l25 139q24 135 130 135q16 0 34 -6z" />
    <glyph glyph-name="t.alt" horiz-adv-x="236" 
d="M226 341l-6 -38h-87l-36 -204q-13 -67 40 -67q23 0 44 14l8 -31q-30 -22 -67 -22q-41 0 -63 27.5t-13 78.5l36 204h-51l6 38h52l18 101h51l-18 -101h86z" />
    <glyph glyph-name="u.alt" horiz-adv-x="424" 
d="M279 72q-59 -83 -142 -83q-48 0 -73 28t-25 73q0 25 17 118l23 133h51l-34 -191q-6 -36 -6 -53q0 -32 19.5 -48.5t46.5 -16.5q44 0 87 40.5t56 110.5l28 158h51l-50 -279q-7 -35 17 -35q10 0 25 5v-24q-23 -15 -49 -15q-57 0 -44 69z" />
    <glyph glyph-name="uacute.alt" horiz-adv-x="424" 
d="M279 72q-59 -83 -142 -83q-48 0 -73 28t-25 73q0 25 17 118l23 133h51l-34 -191q-6 -36 -6 -53q0 -32 19.5 -48.5t46.5 -16.5q44 0 87 40.5t56 110.5l28 158h51l-50 -279q-7 -35 17 -35q10 0 25 5v-24q-23 -15 -49 -15q-57 0 -44 69zM174 425l123 103l28 -40l-139 -80z
" />
    <glyph glyph-name="ucircumflex.alt" horiz-adv-x="424" 
d="M279 72q-59 -83 -142 -83q-48 0 -73 28t-25 73q0 25 17 118l23 133h51l-34 -191q-6 -36 -6 -53q0 -32 19.5 -48.5t46.5 -16.5q44 0 87 40.5t56 110.5l28 158h51l-50 -279q-7 -35 17 -35q10 0 25 5v-24q-23 -15 -49 -15q-57 0 -44 69zM343 434l-21 -22l-73 86l-102 -86
l-21 22l129 114z" />
    <glyph glyph-name="udieresis.alt" horiz-adv-x="424" 
d="M279 72q-59 -83 -142 -83q-48 0 -73 28t-25 73q0 25 17 118l23 133h51l-34 -191q-6 -36 -6 -53q0 -32 19.5 -48.5t46.5 -16.5q44 0 87 40.5t56 110.5l28 158h51l-50 -279q-7 -35 17 -35q10 0 25 5v-24q-23 -15 -49 -15q-57 0 -44 69zM347 416h-57l10 57h57zM190 416h-57
l10 57h57z" />
    <glyph glyph-name="ugrave.alt" horiz-adv-x="424" 
d="M279 72q-59 -83 -142 -83q-48 0 -73 28t-25 73q0 25 17 118l23 133h51l-34 -191q-6 -36 -6 -53q0 -32 19.5 -48.5t46.5 -16.5q44 0 87 40.5t56 110.5l28 158h51l-50 -279q-7 -35 17 -35q10 0 25 5v-24q-23 -15 -49 -15q-57 0 -44 69zM304 425l-12 -17l-139 80l28 40z" />
    <glyph glyph-name="y.alt" horiz-adv-x="411" 
d="M137 -11q-48 0 -73 28t-25 73q0 25 17 118l23 133h51l-34 -191q-6 -36 -6 -53q0 -32 19.5 -48.5t46.5 -16.5q44 0 87 40.5t56 110.5l28 158h51l-63 -356q-18 -102 -63 -144.5t-126 -42.5q-48 0 -104 29v46q53 -31 109 -31q55 0 87 31.5t46 113.5l16 87q-27 -41 -65 -63
t-78 -22z" />
    <glyph glyph-name="yacute.alt" horiz-adv-x="411" 
d="M137 -11q-48 0 -73 28t-25 73q0 25 17 118l23 133h51l-34 -191q-6 -36 -6 -53q0 -32 19.5 -48.5t46.5 -16.5q44 0 87 40.5t56 110.5l28 158h51l-63 -356q-18 -102 -63 -144.5t-126 -42.5q-48 0 -104 29v46q53 -31 109 -31q55 0 87 31.5t46 113.5l16 87q-27 -41 -65 -63
t-78 -22zM194 425l123 103l28 -40l-139 -80z" />
    <glyph glyph-name="ydieresis.alt" horiz-adv-x="411" 
d="M137 -11q-48 0 -73 28t-25 73q0 25 17 118l23 133h51l-34 -191q-6 -36 -6 -53q0 -32 19.5 -48.5t46.5 -16.5q44 0 87 40.5t56 110.5l28 158h51l-63 -356q-18 -102 -63 -144.5t-126 -42.5q-48 0 -104 29v46q53 -31 109 -31q55 0 87 31.5t46 113.5l16 87q-27 -41 -65 -63
t-78 -22zM342 416h-57l10 57h57zM185 416h-57l10 57h57z" />
    <glyph glyph-name="fi.alt" horiz-adv-x="390" 
d="M282 609l-7 -37q-14 4 -23 4q-33 0 -53.5 -21t-29.5 -75l-25 -139h92l-7 -38h-91l-86 -498h-51l86 498h-65l7 38h64l25 139q24 135 130 135q16 0 34 -6zM378 457h-51l10 61h51zM297 0h-51l60 341h51z" />
    <glyph glyph-name="fl.alt" horiz-adv-x="386" 
d="M400 610l-108 -610h-51l99 563q-32 13 -64 13q-46 0 -73 -25t-38 -91l-21 -119h92l-7 -38h-91l-86 -498h-51l86 498h-65l7 38h64l20 113q29 159 165 159q27 0 69 -13z" />
    <glyph glyph-name="mu.alt" horiz-adv-x="424" 
d="M74 17l-38 -212h-51l95 536h51l-34 -191q-6 -36 -6 -53q0 -32 19.5 -48.5t46.5 -16.5q44 0 87 40.5t56 110.5l28 158h51l-50 -279q-7 -35 17 -35q10 0 25 5v-24q-23 -15 -49 -15q-57 0 -44 69l2 10q-59 -83 -142 -83q-41 0 -64 28z" />
    <glyph glyph-name="ordfeminine.alt" horiz-adv-x="393" 
d="M335 449q8 57 -16.5 90.5t-69.5 33.5t-80 -34t-44 -90q-9 -57 16 -91t69 -34q46 0 81.5 34t43.5 91zM361 351q-5 -32 15 -32q10 0 22 5v-22q-22 -15 -44 -15q-21 0 -32.5 13.5t-8.5 40.5q-44 -56 -117 -56q-63 0 -94 48.5t-22 118.5q10 70 57 115t109 45q36 0 65 -19
t38 -48l21 57h35z" />
    </font>
</defs>
</svg>
