<?xml version="1.0" standalone="no"?>
<!DOCTYPE svg PUBLIC "-//W3C//DTD SVG 1.1//EN" "http://www.w3.org/Graphics/SVG/1.1/DTD/svg11.dtd" >
<svg>
<metadata>
Created by FontForge 20110222 at Wed Sep  3 14:09:22 2014
 By deploy user
Copyright (c) Emigre Inc, 2011. Designed by Zuzana Licko. All rights reserved.
</metadata>
<defs>
<font id="MrEavesModOT-Book" horiz-adv-x="310" >
  <font-face 
    font-family="MrEavesModOTBook"
    font-weight="350"
    font-stretch="normal"
    units-per-em="1000"
    panose-1="2 11 5 3 6 5 2 2 2 2"
    ascent="800"
    descent="-200"
    x-height="341"
    cap-height="600"
    bbox="-129 -234.151 908 846"
    underline-thickness="30"
    underline-position="-70"
    unicode-range="U+0010-FB02"
  />
<missing-glyph horiz-adv-x="500" 
 />
    <glyph glyph-name="fi" unicode="fi" horiz-adv-x="416" 
d="M188 612q18 0 36 -7v-37q-20 4 -29 4q-35 0 -49 -20t-14 -77v-134h92v-40h-92v-301h-51v301h-70v40h70v134q0 72 26.5 104.5t80.5 32.5zM352 457h-51v61h51v-61zM352 0h-51v341h51v-341z" />
    <glyph glyph-name="fl" unicode="fl" horiz-adv-x="416" 
d="M301 551q-32 18 -68 18q-50 0 -75.5 -24.5t-25.5 -87.5v-116h92v-40h-92v-301h-51v301h-70v40h70v109q0 82 38.5 122t107.5 40q42 0 74 -15l51 12v-609h-51v551z" />
    <glyph glyph-name=".notdef" horiz-adv-x="500" 
 />
    <glyph glyph-name=".null" horiz-adv-x="0" 
 />
    <glyph glyph-name="nonmarkingreturn" horiz-adv-x="333" 
 />
    <glyph glyph-name="DLE" horiz-adv-x="481" 
d="M426 58l-25 -25l-76 75q-37 -29 -85 -29t-85 29l-75 -75l-25 25l75 74q-30 38 -30 86t29 85l-74 75l25 25l75 -75q38 30 85 30q49 0 85 -30l76 75l25 -24l-75 -76q29 -37 29 -85q0 -46 -29 -85zM347 218q0 44 -31.5 75.5t-75.5 31.5t-75 -31.5t-31 -75.5t31 -74.5
t75 -30.5t75.5 30.5t31.5 74.5z" />
    <glyph glyph-name="space" unicode=" " horiz-adv-x="173" 
 />
    <glyph glyph-name="exclam" unicode="!" horiz-adv-x="220" 
d="M77 600h67l-16 -437h-35zM143 0h-66v66h66v-66z" />
    <glyph glyph-name="quotedbl" unicode="&#x22;" horiz-adv-x="342" 
d="M87 412l-15 188h60l-15 -188h-30zM225 412l-15 188h60l-15 -188h-30z" />
    <glyph glyph-name="numbersign" unicode="#" horiz-adv-x="414" 
d="M390 465l-8 -40h-68l-25 -155h70l-8 -40h-69l-22 -136h-38l22 136h-114l-22 -136h-38l22 136h-69l7 40h69l25 155h-70l7 40h69l22 135h38l-22 -135h114l22 135h38l-22 -135h70zM276 425h-114l-25 -155h114z" />
    <glyph glyph-name="dollar" unicode="$" horiz-adv-x="457" 
d="M416 163q0 -74 -49 -117t-119 -48v-81h-32v81q-56 3 -103 22t-72 44l11 49q66 -64 164 -71v251q-160 44 -160 162q0 59 43.5 100.5t116.5 45.5v82h32v-82q39 -3 77.5 -17.5t60.5 -32.5l-11 -41q-59 40 -127 46v-219q84 -26 126 -67.5t42 -106.5zM216 346v211
q-51 -4 -80 -31.5t-29 -70.5q0 -73 109 -109zM365 159q0 44 -26.5 73.5t-90.5 50.5v-241q51 5 84 36.5t33 80.5z" />
    <glyph glyph-name="percent" unicode="%" horiz-adv-x="657" 
d="M295 469q0 -64 -35 -105t-85 -41q-51 0 -85.5 40.5t-34.5 105.5t34.5 105t85.5 40q50 0 85 -40.5t35 -104.5zM528 604l-373 -620l-26 13l373 620zM251 469q0 49 -21 78.5t-55 29.5t-55 -29t-21 -79t21 -79.5t55 -29.5t55 29.5t21 79.5zM602 134q0 -64 -35 -105t-85 -41
q-51 0 -85.5 40.5t-34.5 105.5t34.5 105t85.5 40q50 0 85 -40.5t35 -104.5zM558 134q0 49 -21 78.5t-55 29.5t-55 -29t-21 -79t21 -79.5t55 -29.5t55 29.5t21 79.5z" />
    <glyph glyph-name="ampersand" unicode="&#x26;" horiz-adv-x="633" 
d="M633 34q-37 -50 -92 -50q-77 0 -146 61q-53 -61 -144 -61q-83 0 -141.5 44.5t-58.5 127.5q0 89 119 164q-53 91 -53 154q0 61 46 101.5t115 40.5q61 0 101 -33.5t40 -84.5q0 -20 -5.5 -37.5t-18 -33.5t-23 -27.5t-32.5 -26.5t-33 -22t-37.5 -22t-34.5 -20
q78 -109 159 -192q30 51 32 183h138v-43h-96q-8 -117 -41 -171q65 -60 124 -60q38 0 63 32zM368 498q0 36 -25.5 56.5t-64.5 20.5q-48 0 -78 -28.5t-30 -71.5q0 -59 43 -130q6 4 32.5 19.5t33.5 20t27 18t26.5 21.5t17.5 21t14.5 26t3.5 27zM365 76q-86 86 -171 209
q-43 -29 -66 -59.5t-23 -71.5q0 -58 44 -92.5t107 -34.5q71 0 109 49z" />
    <glyph glyph-name="quotesingle" unicode="'" horiz-adv-x="204" 
d="M87 412l-15 188h60l-15 -188h-30z" />
    <glyph glyph-name="parenleft" unicode="(" horiz-adv-x="302" 
d="M274 -95l-14 -16q-182 163 -182 406q0 128 50.5 230.5t131.5 175.5l14 -16q-35 -38 -64.5 -84.5t-58 -131.5t-28.5 -174t28.5 -174t58 -131.5t64.5 -84.5z" />
    <glyph glyph-name="parenright" unicode=")" horiz-adv-x="302" 
d="M28 -95q35 38 64.5 84.5t58 131.5t28.5 174t-28.5 174t-58 131.5t-64.5 84.5l14 16q81 -73 131.5 -175.5t50.5 -230.5q0 -243 -182 -406z" />
    <glyph glyph-name="asterisk" unicode="*" horiz-adv-x="381" 
d="M183 442q-4 51 -13 91.5t-9 45.5q0 35 29 35t29 -35q0 -7 -4 -23t-9.5 -46t-8.5 -68q41 29 72 57t36 31q29 18 44 -8q14 -25 -15 -43q-6 -4 -22 -8t-45.5 -14.5t-63.5 -26.5q46 -22 86.5 -34.5t44.5 -14.5q30 -17 15 -43q-14 -25 -44 -8q-4 2 -35 30.5t-73 57.5
q4 -51 13 -91.5t9 -45.5q0 -35 -29 -35t-29 35q0 7 4 23t9.5 46t8.5 68q-41 -29 -72 -57t-36 -31q-29 -18 -44 8q-14 25 15 43q6 4 22 8t45.5 14.5t63.5 26.5q-46 22 -86.5 34.5t-44.5 14.5q-30 17 -15 43q14 25 44 8q4 -2 35 -30.5t73 -57.5z" />
    <glyph glyph-name="plus" unicode="+" horiz-adv-x="421" 
d="M378 209h-148v-148h-39v148h-148v39h148v148h39v-148h148v-39z" />
    <glyph glyph-name="comma" unicode="," horiz-adv-x="210" 
d="M138 6q0 -46 -19 -79.5t-53 -44.5l-12 19q47 24 47 99h-29v66h66v-60z" />
    <glyph glyph-name="hyphen" unicode="-" horiz-adv-x="281" 
d="M51 229h179v-46h-179v46z" />
    <glyph glyph-name="period" unicode="." horiz-adv-x="210" 
d="M138 0h-66v66h66v-66z" />
    <glyph glyph-name="slash" unicode="/" horiz-adv-x="309" 
d="M310 607l-282 -625l-29 12l282 625z" />
    <glyph glyph-name="zero" unicode="0" horiz-adv-x="540" 
d="M50 300q0 144 62.5 229.5t157.5 85.5t157.5 -85.5t62.5 -229.5q0 -145 -62 -230t-158 -85q-95 0 -157.5 85t-62.5 230zM435 300q0 125 -46 196t-119 71t-119 -71t-46 -196t46 -196t119 -71t119 71t46 196z" />
    <glyph glyph-name="one" unicode="1" horiz-adv-x="253" 
d="M105 540h-64v40l117 29v-609h-53v540z" />
    <glyph glyph-name="two" unicode="2" horiz-adv-x="441" 
d="M33 44l169 180q38 40 58.5 65t41 67.5t20.5 82.5q0 68 -36 97.5t-91 29.5q-72 0 -147 -58v52q24 21 67 38t82 17q80 0 130.5 -45t50.5 -125q0 -48 -23 -97t-42.5 -73t-51.5 -57l-163 -169h293v-49h-358v44z" />
    <glyph glyph-name="three" unicode="3" horiz-adv-x="465" 
d="M50 40v52q69 -58 159 -58q69 0 111 39.5t42 110.5q0 64 -37.5 103t-103.5 39q-50 0 -91 -36l-25 28l225 233h-278v49h356v-31l-195 -199q86 6 144 -46t58 -141q0 -90 -58.5 -144t-146.5 -54q-46 0 -89.5 15.5t-70.5 39.5z" />
    <glyph glyph-name="four" unicode="4" horiz-adv-x="512" 
d="M321 158h-289v35l312 415h30v-405h109v-45h-109v-158h-53v158zM321 203v304l-229 -304h229z" />
    <glyph glyph-name="five" unicode="5" horiz-adv-x="457" 
d="M50 40v52q67 -58 159 -58q68 0 110.5 40.5t42.5 110.5q0 64 -36 102.5t-101 38.5q-80 0 -125 -75l-29 12v337h320v-49h-270v-222q46 43 116 43q75 0 126.5 -50.5t51.5 -136.5q0 -90 -58.5 -145t-146.5 -55q-46 0 -89.5 15.5t-70.5 39.5z" />
    <glyph glyph-name="six" unicode="6" horiz-adv-x="501" 
d="M457 179q0 -84 -57 -139t-139 -55q-38 0 -71.5 13t-65.5 42.5t-50.5 87.5t-18.5 138q0 164 62.5 256.5t182.5 92.5q79 0 124 -34v-53q-57 38 -123 38q-186 0 -194 -283q19 40 63 67t101 27q81 0 133.5 -55t52.5 -143zM403 179q0 68 -38 110t-104 42q-59 0 -102.5 -39.5
t-43.5 -100.5q0 -72 41 -116t101 -44q65 0 105.5 40.5t40.5 107.5z" />
    <glyph glyph-name="seven" unicode="7" horiz-adv-x="432" 
d="M334 551h-313v49h378v-31q-53 -81 -134 -260t-104 -309h-61q29 129 109.5 306.5t124.5 244.5z" />
    <glyph glyph-name="eight" unicode="8" horiz-adv-x="520" 
d="M471 160q0 -76 -61.5 -125.5t-149.5 -49.5t-149.5 49.5t-61.5 125.5q0 67 39 112t102 61q-50 16 -78 52.5t-28 85.5q0 62 52.5 103t123.5 41t123 -41t52 -103q0 -49 -27 -85.5t-77 -52.5q63 -16 101.5 -61t38.5 -112zM380 463q0 48 -35 77.5t-85 29.5q-51 0 -86 -29.5
t-35 -77.5q0 -45 36 -77t85 -32q48 0 84 32t36 77zM415 168q0 62 -45 100t-110 38t-110 -38t-45 -100q0 -59 45 -97.5t110 -38.5q64 0 109.5 38.5t45.5 97.5z" />
    <glyph glyph-name="nine" unicode="9" horiz-adv-x="501" 
d="M44 421q0 84 57 139t139 55q38 0 71.5 -13t65.5 -42.5t50.5 -87.5t18.5 -138q0 -164 -62.5 -256.5t-182.5 -92.5q-79 0 -124 34v53q57 -38 123 -38q186 0 194 283q-19 -40 -63 -67t-101 -27q-81 0 -133.5 55t-52.5 143zM98 421q0 -68 38 -110t104 -42q58 0 102 39.5
t44 100.5q0 72 -41 116t-101 44q-65 0 -105.5 -40.5t-40.5 -107.5z" />
    <glyph glyph-name="colon" unicode=":" horiz-adv-x="210" 
d="M138 266h-66v66h66v-66zM138 0h-66v66h66v-66z" />
    <glyph glyph-name="semicolon" unicode=";" horiz-adv-x="210" 
d="M138 266h-66v66h66v-66zM138 6q0 -46 -19 -79.5t-54 -44.5l-9 17q45 29 45 101h-29v66h66v-60z" />
    <glyph glyph-name="less" unicode="&#x3c;" horiz-adv-x="425" 
d="M368 38l-19 -28l-291 219l291 218l19 -27l-246 -191z" />
    <glyph glyph-name="equal" unicode="=" horiz-adv-x="421" 
d="M345 280h-269v39h269v-39zM345 139h-269v39h269v-39z" />
    <glyph glyph-name="greater" unicode="&#x3e;" horiz-adv-x="425" 
d="M367 229l-292 -219l-18 28l246 191l-246 191l18 27z" />
    <glyph glyph-name="question" unicode="?" horiz-adv-x="415" 
d="M194 0h-66v66h66v-66zM137 284l43 20q82 38 113.5 75t31.5 84q0 51 -37 77t-98 26q-39 0 -84.5 -18t-78.5 -47v52q28 26 75.5 44t93.5 18q77 0 131 -38.5t54 -110.5q0 -63 -41 -107.5t-112 -79.5l-43 -21l-7 -95h-35z" />
    <glyph glyph-name="at" unicode="@" horiz-adv-x="687" 
d="M657 266q0 -95 -60 -170t-125 -75q-55 0 -66 53q-16 -24 -42.5 -40.5t-55.5 -16.5q-61 0 -89 53t-14 130q13 76 67 129t116 53q33 0 64 -16l41 -1l-44 -250q-11 -64 39 -64q47 0 91 65t44 148q0 101 -69.5 165.5t-170.5 64.5q-126 0 -215.5 -93t-89.5 -221
q0 -123 80.5 -201t197.5 -78q112 0 214 66l11 -21q-104 -74 -230 -74q-134 0 -227 88.5t-93 217.5q0 144 102.5 247.5t246.5 103.5q118 0 197.5 -73.5t79.5 -189.5zM446 329q-27 21 -59 21q-48 0 -87 -43.5t-50 -107.5q-12 -65 6.5 -105.5t64.5 -40.5q30 0 58 26.5t34 60.5z
" />
    <glyph glyph-name="A" unicode="A" horiz-adv-x="577" 
d="M146 174l-71 -174h-57l248 600h45l248 -600h-60l-72 174h-281zM407 223l-121 295l-120 -295h241z" />
    <glyph glyph-name="B" unicode="B" horiz-adv-x="485" 
d="M70 600h186q81 0 122 -43t41 -110q0 -40 -16.5 -76t-54.5 -52q53 -15 78 -57t25 -93q0 -76 -46.5 -122.5t-138.5 -46.5h-196v600zM266 49q69 0 99.5 33.5t30.5 86.5q0 54 -30.5 88t-99.5 34h-141v-242h141zM256 340q58 0 84 30.5t26 76.5t-26 75t-84 29h-131v-211h131z
" />
    <glyph glyph-name="C" unicode="C" horiz-adv-x="591" 
d="M41 300q0 141 89 227t218 86q53 0 107 -16.5t90 -43.5v-58q-86 67 -197 67q-110 0 -180 -72.5t-70 -189.5t70 -189.5t180 -72.5q111 0 197 67v-58q-36 -27 -90 -43.5t-107 -16.5q-129 0 -218 86t-89 227z" />
    <glyph glyph-name="D" unicode="D" horiz-adv-x="608" 
d="M70 600h176q160 0 240.5 -84t80.5 -216t-80.5 -216t-240.5 -84h-176v600zM247 52q138 0 200.5 69.5t62.5 178.5t-62.5 178.5t-200.5 69.5h-122v-496h122z" />
    <glyph glyph-name="E" unicode="E" horiz-adv-x="460" 
d="M70 600h340v-49h-285v-211h235v-49h-235v-242h285v-49h-340v600z" />
    <glyph glyph-name="F" unicode="F" horiz-adv-x="424" 
d="M70 600h340v-49h-285v-211h235v-49h-235v-291h-55v600z" />
    <glyph glyph-name="G" unicode="G" horiz-adv-x="639" 
d="M515 77v162h-123v49h178v-241q-3 -2 -25.5 -12.5t-31.5 -14.5t-32.5 -12.5t-40.5 -12t-42 -7t-50 -3.5q-129 0 -218 86.5t-89 228.5q0 141 89 227t218 86q53 0 107 -16.5t90 -43.5v-58q-86 67 -197 67q-110 0 -180 -72.5t-70 -189.5t70.5 -190.5t179.5 -73.5
q100 0 167 41z" />
    <glyph glyph-name="H" unicode="H" horiz-adv-x="608" 
d="M70 600h55v-260h358v260h55v-600h-55v291h-358v-291h-55v600z" />
    <glyph glyph-name="I" unicode="I" horiz-adv-x="195" 
d="M70 600h55v-600h-55v600z" />
    <glyph glyph-name="J" unicode="J" horiz-adv-x="195" 
d="M125 600v-671q0 -127 -106 -127q-38 0 -69 28v46q26 -26 62 -26q32 0 45 18t13 66v666h55z" />
    <glyph glyph-name="K" unicode="K" horiz-adv-x="513" 
d="M520 0h-74l-321 295v-295h-55v600h55v-293l291 293h67l-295 -296z" />
    <glyph glyph-name="L" unicode="L" horiz-adv-x="424" 
d="M70 600h55v-551h285v-49h-340v600z" />
    <glyph glyph-name="M" unicode="M" horiz-adv-x="732" 
d="M70 600h62l235 -527l235 527h60v-600h-55v408v28t0.5 27t0.5 21.5v15.5v6l-6 -16q-6 -15 -15.5 -38.5t-17.5 -41.5l-182 -410h-44l-182 410q-8 19 -17.5 42t-15 38t-6.5 16v-6v-15.5t0.5 -21.5t0.5 -27v-28v-408h-53v600z" />
    <glyph glyph-name="N" unicode="N" horiz-adv-x="593" 
d="M70 600h38l363 -489v489h52v-600h-38l-363 489v-489h-52v600z" />
    <glyph glyph-name="O" unicode="O" horiz-adv-x="696" 
d="M41 300q0 137 87 226t220 89q132 0 219.5 -89t87.5 -226t-87 -226t-220 -89t-220 88.5t-87 226.5zM598 300q0 117 -71 190.5t-179 73.5q-110 0 -180 -73t-70 -191t70 -191t180 -73q108 0 179 73.5t71 190.5z" />
    <glyph glyph-name="P" unicode="P" horiz-adv-x="458" 
d="M70 600h186q91 0 138 -52t47 -129t-47 -129t-138 -52h-131v-238h-55v600zM256 287q68 0 99 38.5t31 93.5q0 54 -31 93t-99 39h-131v-264h131z" />
    <glyph glyph-name="Q" unicode="Q" horiz-adv-x="696" 
d="M411 -9l30 -54q27 -48 54.5 -68.5t65.5 -20.5q17 0 32 4v-46q-23 -6 -45 -6q-97 0 -159 118l-35 67h-6q-133 0 -220 88.5t-87 226.5q0 137 87 226t220 89q132 0 219.5 -89t87.5 -226q0 -120 -67.5 -204.5t-176.5 -104.5zM598 300q0 117 -71 190.5t-179 73.5
q-110 0 -180 -73t-70 -191t70 -191t180 -73q108 0 179 73.5t71 190.5z" />
    <glyph glyph-name="R" unicode="R" horiz-adv-x="510" 
d="M309 254l179 -254h-65l-172 248h-126v-248h-55v600h186q92 0 138.5 -50t46.5 -126q0 -64 -33.5 -110t-98.5 -60zM256 297q69 0 99.5 36.5t30.5 90.5t-31 90.5t-99 36.5h-131v-254h131z" />
    <glyph glyph-name="S" unicode="S" horiz-adv-x="457" 
d="M40 54l11 55q75 -73 176 -73q57 0 95.5 32t38.5 84t-32 84t-115 55q-76 21 -117 65.5t-41 106.5q0 63 50 106.5t131 43.5q84 0 150 -50l-12 -47q-69 48 -138 48q-58 0 -91.5 -28t-33.5 -73q0 -84 125 -118q180 -48 180 -186q0 -81 -57 -126.5t-133 -45.5q-60 0 -109.5 20
t-77.5 47z" />
    <glyph glyph-name="T" unicode="T" horiz-adv-x="511" 
d="M228 551h-214v49h483v-49h-214v-551h-55v551z" />
    <glyph glyph-name="U" unicode="U" horiz-adv-x="637" 
d="M70 278v322h55v-323q0 -121 51.5 -181t141.5 -60t142 60t52 181v323h55v-322q0 -147 -66.5 -220t-182.5 -73t-182 73t-66 220z" />
    <glyph glyph-name="V" unicode="V" horiz-adv-x="577" 
d="M18 600h60l213 -516l211 516h57l-248 -600h-45z" />
    <glyph glyph-name="W" unicode="W" horiz-adv-x="824" 
d="M18 600h58l162 -496l158 496h38l157 -496l160 496h55l-198 -600h-38l-157 492l-159 -492h-38z" />
    <glyph glyph-name="X" unicode="X" horiz-adv-x="536" 
d="M234 309l-209 291h69l175 -249l177 249h65l-208 -293l219 -307h-69l-185 267l-189 -267h-65z" />
    <glyph glyph-name="Y" unicode="Y" horiz-adv-x="535" 
d="M240 241l-225 359h63l191 -308l191 308h60l-225 -359v-241h-55v241z" />
    <glyph glyph-name="Z" unicode="Z" horiz-adv-x="471" 
d="M40 37l323 514h-323v49h390v-37l-323 -514h323v-49h-390v37z" />
    <glyph glyph-name="bracketleft" unicode="[" horiz-adv-x="296" 
d="M252 -88h-142v766h142v-31h-99v-704h99v-31z" />
    <glyph glyph-name="backslash" unicode="\" horiz-adv-x="309" 
d="M310 -8l-29 -10l-283 627l29 10z" />
    <glyph glyph-name="bracketright" unicode="]" horiz-adv-x="296" 
d="M187 -88h-143v31h100v704h-100v31h143v-766z" />
    <glyph glyph-name="asciicircum" unicode="^" horiz-adv-x="457" 
d="M437 301l-28 -18l-180 268l-181 -268l-27 18l208 316z" />
    <glyph glyph-name="underscore" unicode="_" 
d="M314 -32h-318v32h318v-32z" />
    <glyph glyph-name="grave" unicode="`" 
d="M218 422l-12 -17l-139 80l28 40z" />
    <glyph glyph-name="a" unicode="a" horiz-adv-x="463" 
d="M399 0h-44l-3 62q-19 -37 -58 -56t-80 -19q-73 0 -121.5 52.5t-48.5 131.5t48.5 131t121.5 52q41 0 80 -19t58 -56l3 62h44v-341zM223 311q-54 0 -91 -38t-37 -102q0 -65 37 -103t91 -38q53 0 90.5 38t37.5 103t-37.5 102.5t-90.5 37.5z" />
    <glyph glyph-name="b" unicode="b" horiz-adv-x="463" 
d="M419 171q0 -79 -48.5 -131.5t-121.5 -52.5q-41 0 -80 19t-58 56l-2 -62h-45v600h51v-314q19 33 56.5 50.5t77.5 17.5q73 0 121.5 -52t48.5 -131zM240 311q-53 0 -90.5 -37.5t-37.5 -102.5t37.5 -103t90.5 -38t90.5 38.5t37.5 102.5t-37.5 102t-90.5 38z" />
    <glyph glyph-name="c" unicode="c" horiz-adv-x="379" 
d="M338 22q-49 -34 -116 -34q-77 0 -127.5 51.5t-50.5 131.5t50.5 131t127.5 51q66 0 116 -35v-46q-48 38 -111 38q-58 0 -95 -38.5t-37 -100.5t37 -101t95 -39q63 0 111 38v-47z" />
    <glyph glyph-name="d" unicode="d" horiz-adv-x="463" 
d="M399 0h-44l-3 62q-19 -37 -58 -56t-80 -19q-73 0 -121.5 52.5t-48.5 131.5t48.5 131t121.5 52q40 0 77.5 -17.5t56.5 -50.5v314h51v-600zM223 311q-54 0 -91 -38t-37 -102q0 -65 37 -103t91 -38q53 0 90.5 38t37.5 103t-37.5 102.5t-90.5 37.5z" />
    <glyph glyph-name="e" unicode="e" horiz-adv-x="400" 
d="M352 221q0 -12 -4 -36h-252q-5 -62 28.5 -108t111.5 -46q58 0 111 42v-42q-46 -43 -132 -43q-75 0 -123 53t-48 133t49 130t115 50q62 0 103 -37.5t41 -95.5zM302 222q4 39 -22 65t-71 26q-40 0 -70.5 -23.5t-39.5 -67.5h203z" />
    <glyph glyph-name="f" unicode="f" horiz-adv-x="237" 
d="M188 612q18 0 36 -7v-37q-20 4 -29 4q-35 0 -49 -20t-14 -77v-134h92v-40h-92v-301h-51v301h-70v40h70v134q0 72 26.5 104.5t80.5 32.5z" />
    <glyph glyph-name="g" unicode="g" horiz-adv-x="463" 
d="M399 -3q0 -58 -16.5 -98.5t-45.5 -60.5t-58.5 -28.5t-63.5 -8.5q-77 0 -140 42v46q71 -44 145 -44q54 0 91 35t37 113v62q-19 -33 -56.5 -50.5t-77.5 -17.5q-73 0 -121.5 52.5t-48.5 131.5t48.5 131t121.5 52q41 0 80 -19t58 -56l3 62h44v-344zM351 171q0 65 -37.5 102.5
t-90.5 37.5q-54 0 -91 -38t-37 -102q0 -65 37 -103t91 -38q53 0 90.5 38t37.5 103z" />
    <glyph glyph-name="h" unicode="h" horiz-adv-x="440" 
d="M377 0h-51v197q0 111 -91 111q-45 0 -82.5 -36t-37.5 -81v-191h-51v600h51v-321q19 32 55.5 53.5t78.5 21.5q128 0 128 -151v-203z" />
    <glyph glyph-name="i" unicode="i" horiz-adv-x="179" 
d="M115 457h-51v61h51v-61zM115 0h-51v341h51v-341z" />
    <glyph glyph-name="j" unicode="j" horiz-adv-x="179" 
d="M115 457h-51v61h51v-61zM115 -98q0 -101 -87 -101q-30 0 -57 21v39q24 -20 48 -20q25 0 35 14t10 51v435h51v-439z" />
    <glyph glyph-name="k" unicode="k" horiz-adv-x="369" 
d="M352 0h-64l-173 177v-177h-51v600h51v-408l170 149h62l-178 -155z" />
    <glyph glyph-name="l" unicode="l" horiz-adv-x="179" 
d="M115 0h-51v600h51v-600z" />
    <glyph glyph-name="m" unicode="m" horiz-adv-x="666" 
d="M603 0h-51v200q0 59 -20.5 83.5t-62.5 24.5q-43 0 -76.5 -36t-33.5 -81v-191h-51v200q0 59 -20.5 83.5t-62.5 24.5t-76 -36t-34 -81v-191h-51v341h45l3 -63q17 33 50.5 54.5t74.5 21.5q86 0 114 -80q46 80 130 80q122 0 122 -149v-205z" />
    <glyph glyph-name="n" unicode="n" horiz-adv-x="440" 
d="M377 0h-51v197q0 111 -91 111q-45 0 -82.5 -36t-37.5 -81v-191h-51v341h45l3 -64q18 33 56.5 55t80.5 22q128 0 128 -151v-203z" />
    <glyph glyph-name="o" unicode="o" horiz-adv-x="450" 
d="M410 171q0 -77 -52.5 -131t-132.5 -54q-79 0 -132 54t-53 131t53 130.5t132 53.5q80 0 132.5 -53.5t52.5 -130.5zM359 171q0 62 -38 101t-96 39t-96 -39t-38 -101q0 -61 38.5 -101t95.5 -40q58 0 96 40t38 101z" />
    <glyph glyph-name="p" unicode="p" horiz-adv-x="463" 
d="M419 171q0 -79 -48.5 -131.5t-121.5 -52.5q-40 0 -77.5 17.5t-56.5 50.5v-250h-51v536h44l3 -62q19 37 58 56t80 19q73 0 121.5 -52t48.5 -131zM368 171q0 64 -37.5 102t-90.5 38t-90.5 -37.5t-37.5 -102.5t37.5 -103t90.5 -38t90.5 38.5t37.5 102.5z" />
    <glyph glyph-name="q" unicode="q" horiz-adv-x="463" 
d="M44 171q0 79 48.5 131t121.5 52q41 0 80 -19t58 -56l3 62h44v-536h-51v250q-19 -33 -56.5 -50.5t-77.5 -17.5q-73 0 -121.5 52.5t-48.5 131.5zM95 171q0 -64 37.5 -102.5t90.5 -38.5t90.5 38t37.5 103t-37.5 102.5t-90.5 37.5t-90.5 -38t-37.5 -102z" />
    <glyph glyph-name="r" unicode="r" horiz-adv-x="271" 
d="M245 298q-48 8 -89 -21.5t-41 -73.5v-203h-51v341h45l3 -62q20 31 57 53t76 22v-56z" />
    <glyph glyph-name="s" unicode="s" horiz-adv-x="330" 
d="M289 98q0 -51 -35.5 -81t-93.5 -30q-65 0 -122 35l10 42q59 -34 114 -34q78 0 78 61q0 23 -20 37t-67 26q-51 13 -77 40t-26 61q0 43 31 71t89 28q47 0 101 -27l-10 -41q-46 26 -91 26q-72 0 -72 -52q0 -23 17.5 -36.5t56.5 -23.5q57 -13 87 -40t30 -62z" />
    <glyph glyph-name="t" unicode="t" horiz-adv-x="261" 
d="M231 301h-75v-301h-51v301h-75v40h75v115h51v-115h75v-40z" />
    <glyph glyph-name="u" unicode="u" horiz-adv-x="440" 
d="M63 341h51v-197q0 -111 91 -111q45 0 82.5 36t37.5 81v191h51v-341h-45l-3 64q-18 -33 -56.5 -55t-80.5 -22q-128 0 -128 151v203z" />
    <glyph glyph-name="v" unicode="v" horiz-adv-x="365" 
d="M350 341l-148 -344h-39l-148 344h53l116 -278l115 278h51z" />
    <glyph glyph-name="w" unicode="w" horiz-adv-x="576" 
d="M557 341l-131 -344h-38l-99 266l-101 -266h-38l-131 344h51l101 -270l99 270h38l102 -270l98 270h49z" />
    <glyph glyph-name="x" unicode="x" horiz-adv-x="364" 
d="M347 0h-59l-107 141l-107 -141h-57l136 172l-129 169h58l101 -134l102 134h55l-128 -165z" />
    <glyph glyph-name="y" unicode="y" horiz-adv-x="365" 
d="M350 341l-226 -536h-51l84 199l-142 337h53l116 -285l115 285h51z" />
    <glyph glyph-name="z" unicode="z" horiz-adv-x="337" 
d="M300 0h-269v32l201 267h-191v42h255v-32l-201 -267h205v-42z" />
    <glyph glyph-name="braceleft" unicode="{" horiz-adv-x="302" 
d="M262 -87l-15 -21q-55 32 -70 72t-15 144q0 51 -7 84.5t-24 52t-30 25.5t-41 17v19q23 8 33.5 12.5t26.5 17.5t23 30t13 47t6 72q0 104 15 144t70 72l15 -22q-40 -26 -49 -61.5t-9 -131.5q0 -54 -6.5 -89.5t-21.5 -55.5t-31 -29t-43 -16q36 -10 55 -23.5t33 -54t14 -112.5
q0 -95 9 -130.5t49 -62.5z" />
    <glyph glyph-name="bar" unicode="|" horiz-adv-x="210" 
d="M123 -96h-36v782h36v-782z" />
    <glyph glyph-name="braceright" unicode="}" horiz-adv-x="302" 
d="M242 287q-28 -10 -41 -17t-30 -25.5t-24 -52t-7 -84.5q0 -104 -15 -144t-70 -72l-15 21q40 27 49 62.5t9 130.5q0 72 14 112.5t33 54t55 23.5q-27 7 -43 16t-31 29t-21.5 55.5t-6.5 89.5q0 96 -9 131.5t-49 61.5l15 22q55 -32 70 -72t15 -144q0 -42 6 -72t13 -47t23 -30
t26.5 -17.5t33.5 -12.5v-19z" />
    <glyph glyph-name="asciitilde" unicode="~" horiz-adv-x="425" 
d="M286 149q-23 0 -77.5 35.5t-75.5 35.5q-19 0 -27.5 -15t-14.5 -49h-26q0 53 20.5 81t53.5 28q23 0 78 -35.5t76 -35.5q18 0 26.5 15t14.5 49h26q-3 -109 -74 -109z" />
    <glyph glyph-name="nbspace" unicode="&#xa0;" horiz-adv-x="173" 
 />
    <glyph glyph-name="exclamdown" unicode="&#xa1;" horiz-adv-x="220" 
d="M143 -162h-67l16 437h35zM143 366h-66v66h66v-66z" />
    <glyph glyph-name="cent" unicode="&#xa2;" horiz-adv-x="396" 
d="M236 83v-166h-32v167q-70 6 -115 56.5t-45 125.5t45 125t115 56v170h32v-169q56 -3 102 -35v-46q-43 35 -102 38v-279q59 3 102 38v-47q-45 -31 -102 -34zM204 128v275q-49 -8 -79 -45t-30 -92t30 -92.5t79 -45.5z" />
    <glyph glyph-name="sterling" unicode="&#xa3;" horiz-adv-x="497" 
d="M443 0h-414v47q61 1 78 26.5t17 107.5v107h-79v37h79v46q0 244 187 244q55 0 109 -33v-50q-56 38 -110 38q-64 0 -97 -44.5t-33 -154.5v-46h158v-37h-158v-68q0 -81 -14.5 -120t-45.5 -53h323v-47z" />
    <glyph glyph-name="currency" unicode="&#xa4;" horiz-adv-x="494" 
d="M450 21q-49 -36 -125 -36q-93 0 -153 62.5t-77 174.5h-60v33h57q-2 15 -2 47q0 30 2 44h-57v33h60q15 113 75.5 174.5t154.5 61.5q71 0 125 -36v-49q-50 40 -123 40q-74 0 -119.5 -49.5t-58.5 -141.5h182v-33h-185q-2 -14 -2 -44q0 -32 2 -47h185v-33h-182
q15 -91 60.5 -141.5t117.5 -50.5q68 0 123 40v-49z" />
    <glyph glyph-name="yen" unicode="&#xa5;" horiz-adv-x="535" 
d="M295 239v-65h122v-36h-122v-138h-55v138h-122v36h122v65h-122v36h101l-204 325h63l191 -308l191 308h60l-204 -325h101v-36h-122z" />
    <glyph glyph-name="brokenbar" unicode="&#xa6;" horiz-adv-x="210" 
d="M123 355h-36v331h36v-331zM123 -96h-36v331h36v-331z" />
    <glyph glyph-name="section" unicode="&#xa7;" horiz-adv-x="414" 
d="M382 218q0 -58 -34 -94.5t-87 -47.5q101 -44 101 -132q0 -58 -45 -97.5t-122 -39.5q-73 0 -136 43l11 43q64 -42 125 -42q55 0 85.5 25t30.5 65q0 38 -25.5 64t-87.5 43q-166 44 -166 156q0 58 33 94t87 48q-100 43 -100 132q0 58 45 97.5t121 39.5q74 0 137 -43l-12 -43
q-64 42 -125 42q-55 0 -85 -25t-30 -65q0 -38 25.5 -64t86.5 -43q167 -45 167 -156zM334 210q0 42 -29.5 68.5t-97.5 46.5q-52 -2 -90 -32.5t-38 -80.5q0 -42 29.5 -68.5t98.5 -46.5q52 2 89.5 32.5t37.5 80.5z" />
    <glyph glyph-name="dieresis" unicode="&#xa8;" 
d="M262 415h-57v57h57v-57zM105 415h-57v57h57v-57z" />
    <glyph glyph-name="copyright" unicode="&#xa9;" horiz-adv-x="685" 
d="M659 300q0 -131 -92.5 -224t-223.5 -93t-224 93t-93 224t93 224t224 93t223.5 -93t92.5 -224zM636 300q0 121 -86 207t-207 86t-207 -85.5t-86 -207.5q0 -121 86 -207t207 -86t207 86t86 207zM484 134q-51 -37 -126 -37q-83 0 -142 55.5t-59 147.5t59 147.5t142 55.5
q76 0 126 -38v-49q-54 42 -123 42q-64 0 -108 -43t-44 -115t44 -115t108 -43q70 0 123 41v-49z" />
    <glyph glyph-name="ordfeminine" unicode="&#xaa;" horiz-adv-x="417" 
d="M359 295h-40l-2 56q-18 -33 -52.5 -50.5t-71.5 -17.5q-66 0 -109.5 47t-43.5 119q0 71 43.5 118t109.5 47q37 0 71.5 -17t52.5 -51l2 56h40v-307zM201 573q-49 0 -81.5 -33t-32.5 -91t32.5 -91.5t81.5 -33.5q48 0 81.5 33.5t33.5 91.5q0 59 -33.5 91.5t-81.5 32.5z" />
    <glyph glyph-name="guillemotleft" unicode="&#xab;" horiz-adv-x="393" 
d="M343 342l17 -20l-117 -117l117 -117l-17 -20l-156 137zM248 46l-17 -20l-195 179l195 179l17 -20l-156 -159z" />
    <glyph glyph-name="logicalnot" unicode="&#xac;" horiz-adv-x="532" 
d="M434 79h-39v140h-319v39h358v-179z" />
    <glyph glyph-name="registered" unicode="&#xae;" horiz-adv-x="496" 
d="M479 384q0 -96 -68 -163.5t-163 -67.5t-163 67.5t-68 163.5t68 163.5t163 67.5t163 -67.5t68 -163.5zM456 384q0 86 -61 147t-147 61t-147 -61t-61 -147t61 -147t147 -61t147 61t61 147zM367 247h-45l-78 113h-45v-113h-40v280h99q43 0 66 -24t23 -60q0 -29 -15.5 -51
t-46.5 -29zM253 493h-54v-99h54q54 0 54 49q0 50 -54 50z" />
    <glyph glyph-name="macron" unicode="&#xaf;" horiz-adv-x="298" 
d="M243 406h-187v42h187v-42z" />
    <glyph glyph-name="degree" unicode="&#xb0;" horiz-adv-x="375" 
d="M187 612q61 0 105.5 -44t44.5 -106t-44 -106t-106 -44t-106 44t-44 106t44.5 106t105.5 44zM187 576q-47 0 -80 -33.5t-33 -80.5t33 -80.5t80 -33.5t80.5 33.5t33.5 80.5q0 46 -33.5 80t-80.5 34z" />
    <glyph glyph-name="plusminus" unicode="&#xb1;" horiz-adv-x="398" 
d="M367 0h-336v39h336v-39zM366 270h-148v-148h-39v148h-148v39h148v148h39v-148h148v-39z" />
    <glyph glyph-name="twosuperior" unicode="&#xb2;" horiz-adv-x="265" 
d="M228 357h-199v24l87 95q59 63 59 111q0 31 -17 46t-42 15q-40 0 -80 -32v40q38 30 87 30q44 0 71.5 -25.5t27.5 -69.5q0 -58 -62 -120l-73 -75h141v-39z" />
    <glyph glyph-name="threesuperior" unicode="&#xb3;" horiz-adv-x="278" 
d="M242 456q0 -49 -32.5 -78.5t-82.5 -29.5q-49 0 -90 30v41q40 -35 86 -35q32 0 52 19.5t20 53.5q0 30 -17 48t-47 18q-28 0 -46 -15l-17 21l111 109h-139v39h199v-24l-102 -100q47 3 76 -24.5t29 -72.5z" />
    <glyph glyph-name="acute" unicode="&#xb4;" 
d="M92 422l123 103l28 -40l-139 -80z" />
    <glyph glyph-name="mu" unicode="&#xb5;" horiz-adv-x="440" 
d="M63 341h51v-197q0 -111 91 -111q45 0 82.5 36t37.5 81v191h51v-341h-45l-3 64q-18 -33 -56.5 -55t-80.5 -22q-46 0 -77 22v-204h-51v536z" />
    <glyph glyph-name="paragraph" unicode="&#xb6;" horiz-adv-x="476" 
d="M182 274q-67 7 -109 53t-42 109q0 68 46 116t112 48h249v-32h-66v-759h-40v759h-110v-759h-40v465z" />
    <glyph glyph-name="periodcentered" unicode="&#xb7;" horiz-adv-x="210" 
d="M138 173h-66v66h66v-66z" />
    <glyph glyph-name="cedilla" unicode="&#xb8;" 
d="M228 -124q0 -53 -43.5 -77.5t-107.5 -22.5v32q48 -2 78 14.5t30 48.5q0 28 -31.5 38.5t-63.5 -0.5v18l82 102l28 -9l-59 -72q33 -2 60 -20.5t27 -51.5z" />
    <glyph glyph-name="onesuperior" unicode="&#xb9;" horiz-adv-x="179" 
d="M116 357h-46v283h-34v28l80 16v-327z" />
    <glyph glyph-name="ordmasculine" unicode="&#xba;" horiz-adv-x="405" 
d="M369 449q0 -69 -47.5 -118t-119.5 -49q-71 0 -118.5 49t-47.5 118t47.5 117t118.5 48q72 0 119.5 -48t47.5 -117zM322 449q0 56 -33.5 90t-86.5 34q-52 0 -85.5 -34t-33.5 -90q0 -55 34 -90.5t85 -35.5q53 0 86.5 35.5t33.5 90.5z" />
    <glyph glyph-name="guillemotright" unicode="&#xbb;" horiz-adv-x="393" 
d="M145 46l156 159l-156 159l17 20l195 -179l-195 -179zM50 342l156 -137l-156 -137l-17 20l117 117l-117 117z" />
    <glyph glyph-name="onequarter" unicode="&#xbc;" horiz-adv-x="562" 
d="M438 606l-362 -624l-26 13l362 624zM527 83h-58v-83h-46v83h-149v22l158 219h37v-207h58v-34zM423 117v142l-104 -142h104zM121 280h-46v283h-34v28l80 16v-327z" />
    <glyph glyph-name="onehalf" unicode="&#xbd;" horiz-adv-x="574" 
d="M438 606l-362 -624l-26 13l362 624zM532 0h-199v24l87 95q59 63 59 111q0 31 -17 46t-42 15q-40 0 -80 -32v40q38 30 87 30q44 0 71.5 -25.5t27.5 -69.5q0 -55 -62 -120l-73 -75h141v-39zM121 280h-46v283h-34v28l80 16v-327z" />
    <glyph glyph-name="threequarters" unicode="&#xbe;" horiz-adv-x="661" 
d="M537 606l-362 -624l-26 13l362 624zM626 83h-58v-83h-46v83h-149v22l158 219h37v-207h58v-34zM522 117v142l-104 -142h104zM247 379q0 -49 -32.5 -78.5t-82.5 -29.5q-49 0 -90 30v41q40 -35 86 -35q32 0 52 19.5t20 53.5q0 30 -17 48t-47 18q-28 0 -46 -15l-17 21
l111 109h-139v39h199v-24l-102 -100q47 3 76 -24.5t29 -72.5z" />
    <glyph glyph-name="questiondown" unicode="&#xbf;" horiz-adv-x="415" 
d="M278 157l-43 -20q-83 -39 -114 -76t-31 -85q0 -51 37 -77t98 -26q39 0 84.5 18t78.5 47v-52q-28 -26 -75.5 -44t-93.5 -18q-77 0 -131 38.5t-54 110.5q0 63 41 107.5t112 79.5l43 21l7 95h35zM287 366h-66v66h66v-66z" />
    <glyph glyph-name="Agrave" unicode="&#xc0;" horiz-adv-x="577" 
d="M146 174l-71 -174h-57l248 600h45l248 -600h-60l-72 174h-281zM407 223l-121 295l-120 -295h241zM350 683l-12 -17l-139 80l28 40z" />
    <glyph glyph-name="Aacute" unicode="&#xc1;" horiz-adv-x="577" 
d="M146 174l-71 -174h-57l248 600h45l248 -600h-60l-72 174h-281zM407 223l-121 295l-120 -295h241zM224 683l123 103l28 -40l-139 -80z" />
    <glyph glyph-name="Acircumflex" unicode="&#xc2;" horiz-adv-x="577" 
d="M146 174l-71 -174h-57l248 600h45l248 -600h-60l-72 174h-281zM407 223l-121 295l-120 -295h241zM400 692l-22 -22l-91 86l-91 -86l-22 22l113 114z" />
    <glyph glyph-name="Atilde" unicode="&#xc3;" horiz-adv-x="577" 
d="M146 174l-71 -174h-57l248 600h45l248 -600h-60l-72 174h-281zM407 223l-121 295l-120 -295h241zM407 762q-1 -42 -19 -64t-46 -22q-23 0 -61.5 24.5t-51.5 24.5q-17 0 -25 -10t-10 -36h-28q1 43 19 64.5t46 21.5q23 0 61.5 -24.5t51.5 -24.5q17 0 25.5 10t9.5 36h28z
" />
    <glyph glyph-name="Adieresis" unicode="&#xc4;" horiz-adv-x="577" 
d="M146 174l-71 -174h-57l248 600h45l248 -600h-60l-72 174h-281zM407 223l-121 295l-120 -295h241zM394 676h-57v57h57v-57zM237 676h-57v57h57v-57z" />
    <glyph glyph-name="Aring" unicode="&#xc5;" horiz-adv-x="577" 
d="M146 174l-71 -174h-57l248 600h45l248 -600h-60l-72 174h-281zM407 223l-121 295l-120 -295h241zM287 815q-25 0 -42.5 -17.5t-17.5 -42.5t17.5 -42t42.5 -17t42.5 17t17.5 42t-17.5 42.5t-42.5 17.5zM287 846q37 0 64 -27t27 -64t-26.5 -63.5t-64.5 -26.5t-64.5 26.5
t-26.5 63.5t27 64t64 27z" />
    <glyph glyph-name="AE" unicode="&#xc6;" horiz-adv-x="782" 
d="M732 0h-340v174h-225l-95 -174h-57l327 600h390v-49h-285v-211h235v-49h-235v-242h285v-49zM392 223v328h-21l-178 -328h199z" />
    <glyph glyph-name="Ccedilla" unicode="&#xc7;" horiz-adv-x="591" 
d="M325 -12q-122 8 -203 92.5t-81 219.5q0 141 89 227t218 86q53 0 107 -16.5t90 -43.5v-58q-86 67 -197 67q-110 0 -180 -72.5t-70 -189.5t70 -189.5t180 -72.5q111 0 197 67v-58q-73 -55 -186 -60l-40 -49q33 -2 60 -20.5t27 -51.5q0 -53 -43.5 -77.5t-107.5 -22.5v32
q48 -2 78 14.5t30 48.5q0 28 -31.5 38.5t-63.5 -0.5v18z" />
    <glyph glyph-name="Egrave" unicode="&#xc8;" horiz-adv-x="460" 
d="M70 600h340v-49h-285v-211h235v-49h-235v-242h285v-49h-340v600zM308 683l-12 -17l-139 80l28 40z" />
    <glyph glyph-name="Eacute" unicode="&#xc9;" horiz-adv-x="460" 
d="M70 600h340v-49h-285v-211h235v-49h-235v-242h285v-49h-340v600zM182 683l123 103l28 -40l-139 -80z" />
    <glyph glyph-name="Ecircumflex" unicode="&#xca;" horiz-adv-x="460" 
d="M70 600h340v-49h-285v-211h235v-49h-235v-242h285v-49h-340v600zM358 692l-22 -22l-91 86l-91 -86l-22 22l113 114z" />
    <glyph glyph-name="Edieresis" unicode="&#xcb;" horiz-adv-x="460" 
d="M70 600h340v-49h-285v-211h235v-49h-235v-242h285v-49h-340v600zM352 676h-57v57h57v-57zM195 676h-57v57h57v-57z" />
    <glyph glyph-name="Igrave" unicode="&#xcc;" horiz-adv-x="195" 
d="M160 683l-12 -17l-139 80l28 40zM70 600h55v-600h-55v600z" />
    <glyph glyph-name="Iacute" unicode="&#xcd;" horiz-adv-x="195" 
d="M34 683l123 103l28 -40l-139 -80zM70 600h55v-600h-55v600z" />
    <glyph glyph-name="Icircumflex" unicode="&#xce;" horiz-adv-x="195" 
d="M210 692l-22 -22l-91 86l-91 -86l-22 22l113 114zM70 600h55v-600h-55v600z" />
    <glyph glyph-name="Idieresis" unicode="&#xcf;" horiz-adv-x="195" 
d="M204 676h-57v57h57v-57zM47 676h-57v57h57v-57zM70 600h55v-600h-55v600z" />
    <glyph glyph-name="Eth" unicode="&#xd0;" horiz-adv-x="608" 
d="M70 282h-56v39h56v279h176q160 0 240.5 -84t80.5 -216t-80.5 -216t-240.5 -84h-176v282zM125 321h146v-39h-146v-230h122q138 0 200.5 69.5t62.5 178.5t-62.5 178.5t-200.5 69.5h-122v-227z" />
    <glyph glyph-name="Ntilde" unicode="&#xd1;" horiz-adv-x="593" 
d="M70 600h38l363 -489v489h52v-600h-38l-363 489v-489h-52v600zM412 762q-1 -42 -19 -64t-46 -22q-23 0 -61.5 24.5t-51.5 24.5q-17 0 -25 -10t-10 -36h-28q1 43 19 64.5t46 21.5q23 0 61.5 -24.5t51.5 -24.5q17 0 25.5 10t9.5 36h28z" />
    <glyph glyph-name="Ograve" unicode="&#xd2;" horiz-adv-x="696" 
d="M41 300q0 137 87 226t220 89q132 0 219.5 -89t87.5 -226t-87 -226t-220 -89t-220 88.5t-87 226.5zM598 300q0 117 -71 190.5t-179 73.5q-110 0 -180 -73t-70 -191t70 -191t180 -73q108 0 179 73.5t71 190.5zM411 683l-12 -17l-139 80l28 40z" />
    <glyph glyph-name="Oacute" unicode="&#xd3;" horiz-adv-x="696" 
d="M41 300q0 137 87 226t220 89q132 0 219.5 -89t87.5 -226t-87 -226t-220 -89t-220 88.5t-87 226.5zM598 300q0 117 -71 190.5t-179 73.5q-110 0 -180 -73t-70 -191t70 -191t180 -73q108 0 179 73.5t71 190.5zM285 683l123 103l28 -40l-139 -80z" />
    <glyph glyph-name="Ocircumflex" unicode="&#xd4;" horiz-adv-x="696" 
d="M41 300q0 137 87 226t220 89q132 0 219.5 -89t87.5 -226t-87 -226t-220 -89t-220 88.5t-87 226.5zM598 300q0 117 -71 190.5t-179 73.5q-110 0 -180 -73t-70 -191t70 -191t180 -73q108 0 179 73.5t71 190.5zM461 692l-22 -22l-91 86l-91 -86l-22 22l113 114z" />
    <glyph glyph-name="Otilde" unicode="&#xd5;" horiz-adv-x="696" 
d="M41 300q0 137 87 226t220 89q132 0 219.5 -89t87.5 -226t-87 -226t-220 -89t-220 88.5t-87 226.5zM598 300q0 117 -71 190.5t-179 73.5q-110 0 -180 -73t-70 -191t70 -191t180 -73q108 0 179 73.5t71 190.5zM468 762q-1 -42 -19 -64t-46 -22q-23 0 -61.5 24.5t-51.5 24.5
q-17 0 -25 -10t-10 -36h-28q1 43 19 64.5t46 21.5q23 0 61.5 -24.5t51.5 -24.5q17 0 25.5 10t9.5 36h28z" />
    <glyph glyph-name="Odieresis" unicode="&#xd6;" horiz-adv-x="696" 
d="M41 300q0 137 87 226t220 89q132 0 219.5 -89t87.5 -226t-87 -226t-220 -89t-220 88.5t-87 226.5zM598 300q0 117 -71 190.5t-179 73.5q-110 0 -180 -73t-70 -191t70 -191t180 -73q108 0 179 73.5t71 190.5zM455 676h-57v57h57v-57zM298 676h-57v57h57v-57z" />
    <glyph glyph-name="multiply" unicode="&#xd7;" horiz-adv-x="421" 
d="M330 82l-119 118l-119 -118l-28 27l119 119l-119 119l28 27l119 -118l119 118l27 -27l-119 -119l119 -119z" />
    <glyph glyph-name="Oslash" unicode="&#xd8;" horiz-adv-x="696" 
d="M485 525l-259 -460q53 -29 122 -29q108 0 179 73.5t71 190.5q0 74 -30 132.5t-83 92.5zM208 76l259 460q-54 28 -119 28q-110 0 -180 -73t-70 -191q0 -151 110 -224zM182 30q-66 41 -103.5 111.5t-37.5 158.5q0 137 87 226t220 89q79 0 144 -34l36 63l19 -9l-36 -64
q67 -40 105.5 -111t38.5 -160q0 -137 -87 -226t-220 -89q-83 0 -148 35l-36 -64l-19 9z" />
    <glyph glyph-name="Ugrave" unicode="&#xd9;" horiz-adv-x="637" 
d="M70 278v322h55v-323q0 -121 51.5 -181t141.5 -60t142 60t52 181v323h55v-322q0 -147 -66.5 -220t-182.5 -73t-182 73t-66 220zM381 683l-12 -17l-139 80l28 40z" />
    <glyph glyph-name="Uacute" unicode="&#xda;" horiz-adv-x="637" 
d="M70 278v322h55v-323q0 -121 51.5 -181t141.5 -60t142 60t52 181v323h55v-322q0 -147 -66.5 -220t-182.5 -73t-182 73t-66 220zM255 683l123 103l28 -40l-139 -80z" />
    <glyph glyph-name="Ucircumflex" unicode="&#xdb;" horiz-adv-x="637" 
d="M70 278v322h55v-323q0 -121 51.5 -181t141.5 -60t142 60t52 181v323h55v-322q0 -147 -66.5 -220t-182.5 -73t-182 73t-66 220zM431 692l-22 -22l-91 86l-91 -86l-22 22l113 114z" />
    <glyph glyph-name="Udieresis" unicode="&#xdc;" horiz-adv-x="637" 
d="M70 278v322h55v-323q0 -121 51.5 -181t141.5 -60t142 60t52 181v323h55v-322q0 -147 -66.5 -220t-182.5 -73t-182 73t-66 220zM425 676h-57v57h57v-57zM268 676h-57v57h57v-57z" />
    <glyph glyph-name="Yacute" unicode="&#xdd;" horiz-adv-x="535" 
d="M240 241l-225 359h63l191 -308l191 308h60l-225 -359v-241h-55v241zM217 683l123 103l28 -40l-139 -80z" />
    <glyph glyph-name="Thorn" unicode="&#xde;" horiz-adv-x="458" 
d="M70 600h55v-114h131q91 0 138 -52t47 -129t-47 -129t-138 -52h-131v-124h-55v600zM256 173q68 0 99 38.5t31 93.5q0 54 -31 93t-99 39h-131v-264h131z" />
    <glyph glyph-name="germandbls" unicode="&#xdf;" horiz-adv-x="497" 
d="M463 107q0 -57 -40.5 -87t-103.5 -30q-57 0 -112 24v45q53 -27 112 -27q40 0 67.5 18t27.5 52q0 25 -19.5 44.5t-47 33t-55 28.5t-47 39.5t-19.5 56.5q0 25 18 48t39 38.5t39 40.5t18 54q0 39 -27.5 61.5t-74.5 22.5q-52 0 -84.5 -34t-32.5 -89v-446h-53v446
q0 73 49.5 119t119.5 46q66 0 109 -34t43 -92q0 -34 -18 -62t-39 -43.5t-39 -35t-18 -38.5q0 -28 29.5 -49t64.5 -34.5t64.5 -43.5t29.5 -72z" />
    <glyph glyph-name="agrave" unicode="&#xe0;" horiz-adv-x="463" 
d="M399 0h-44l-3 62q-19 -37 -58 -56t-80 -19q-73 0 -121.5 52.5t-48.5 131.5t48.5 131t121.5 52q41 0 80 -19t58 -56l3 62h44v-341zM223 311q-54 0 -91 -38t-37 -102q0 -65 37 -103t91 -38q53 0 90.5 38t37.5 103t-37.5 102.5t-90.5 37.5zM298 422l-12 -17l-139 80l28 40z
" />
    <glyph glyph-name="aacute" unicode="&#xe1;" horiz-adv-x="463" 
d="M399 0h-44l-3 62q-19 -37 -58 -56t-80 -19q-73 0 -121.5 52.5t-48.5 131.5t48.5 131t121.5 52q41 0 80 -19t58 -56l3 62h44v-341zM223 311q-54 0 -91 -38t-37 -102q0 -65 37 -103t91 -38q53 0 90.5 38t37.5 103t-37.5 102.5t-90.5 37.5zM172 422l123 103l28 -40l-139 -80
z" />
    <glyph glyph-name="acircumflex" unicode="&#xe2;" horiz-adv-x="463" 
d="M399 0h-44l-3 62q-19 -37 -58 -56t-80 -19q-73 0 -121.5 52.5t-48.5 131.5t48.5 131t121.5 52q41 0 80 -19t58 -56l3 62h44v-341zM223 311q-54 0 -91 -38t-37 -102q0 -65 37 -103t91 -38q53 0 90.5 38t37.5 103t-37.5 102.5t-90.5 37.5zM348 431l-22 -22l-91 86l-91 -86
l-22 22l113 114z" />
    <glyph glyph-name="atilde" unicode="&#xe3;" horiz-adv-x="463" 
d="M399 0h-44l-3 62q-19 -37 -58 -56t-80 -19q-73 0 -121.5 52.5t-48.5 131.5t48.5 131t121.5 52q41 0 80 -19t58 -56l3 62h44v-341zM223 311q-54 0 -91 -38t-37 -102q0 -65 37 -103t91 -38q53 0 90.5 38t37.5 103t-37.5 102.5t-90.5 37.5zM355 501q-1 -42 -19 -64t-46 -22
q-23 0 -61.5 24.5t-51.5 24.5q-17 0 -25 -10t-10 -36h-28q1 43 19 64.5t46 21.5q23 0 61.5 -24.5t51.5 -24.5q17 0 25.5 10t9.5 36h28z" />
    <glyph glyph-name="adieresis" unicode="&#xe4;" horiz-adv-x="463" 
d="M399 0h-44l-3 62q-19 -37 -58 -56t-80 -19q-73 0 -121.5 52.5t-48.5 131.5t48.5 131t121.5 52q41 0 80 -19t58 -56l3 62h44v-341zM223 311q-54 0 -91 -38t-37 -102q0 -65 37 -103t91 -38q53 0 90.5 38t37.5 103t-37.5 102.5t-90.5 37.5zM342 415h-57v57h57v-57zM185 415
h-57v57h57v-57z" />
    <glyph glyph-name="aring" unicode="&#xe5;" horiz-adv-x="463" 
d="M399 0h-44l-3 62q-19 -37 -58 -56t-80 -19q-73 0 -121.5 52.5t-48.5 131.5t48.5 131t121.5 52q41 0 80 -19t58 -56l3 62h44v-341zM223 311q-54 0 -91 -38t-37 -102q0 -65 37 -103t91 -38q53 0 90.5 38t37.5 103t-37.5 102.5t-90.5 37.5zM235 560q-25 0 -42.5 -17.5
t-17.5 -42.5t17.5 -42t42.5 -17t42.5 17t17.5 42t-17.5 42.5t-42.5 17.5zM235 591q37 0 64 -26.5t27 -64.5q0 -37 -26.5 -63.5t-64.5 -26.5t-64.5 26.5t-26.5 63.5q0 38 27 64.5t64 26.5z" />
    <glyph glyph-name="ae" unicode="&#xe6;" horiz-adv-x="617" 
d="M519 222q4 39 -22 65t-71 26q-40 0 -70.5 -23.5t-39.5 -67.5h203zM261 171q-82 -7 -130 -33t-48 -62q0 -46 58 -46q28 0 65 21.5t67 51.5q-12 36 -12 68zM302 295q48 59 123 59q62 0 103 -37.5t41 -95.5q0 -12 -4 -36h-252q-5 -62 28.5 -108t111.5 -46q59 0 111 42v-42
q-46 -43 -132 -43q-96 0 -145 83q-83 -82 -162 -82q-40 0 -65 23.5t-25 61.5q0 58 63.5 92t162.5 43v26q0 41 -18 58.5t-60 17.5q-55 0 -124 -42v47q25 14 64 26t68 12q87 0 111 -59z" />
    <glyph glyph-name="ccedilla" unicode="&#xe7;" horiz-adv-x="379" 
d="M206 -11q-71 5 -116.5 56t-45.5 126q0 80 50.5 131t127.5 51q66 0 116 -35v-46q-48 38 -111 38q-58 0 -95 -38.5t-37 -100.5t37 -101t95 -39q63 0 111 38v-47q-44 -30 -98 -33l-33 -41q33 -2 60 -20.5t27 -51.5q0 -53 -43.5 -77.5t-107.5 -22.5v32q48 -2 78 14.5t30 48.5
q0 28 -31.5 38.5t-63.5 -0.5v18z" />
    <glyph glyph-name="egrave" unicode="&#xe8;" horiz-adv-x="400" 
d="M352 221q0 -12 -4 -36h-252q-5 -62 28.5 -108t111.5 -46q58 0 111 42v-42q-46 -43 -132 -43q-75 0 -123 53t-48 133t49 130t115 50q62 0 103 -37.5t41 -95.5zM302 222q4 39 -22 65t-71 26q-40 0 -70.5 -23.5t-39.5 -67.5h203zM277 422l-12 -17l-139 80l28 40z" />
    <glyph glyph-name="eacute" unicode="&#xe9;" horiz-adv-x="400" 
d="M352 221q0 -12 -4 -36h-252q-5 -62 28.5 -108t111.5 -46q58 0 111 42v-42q-46 -43 -132 -43q-75 0 -123 53t-48 133t49 130t115 50q62 0 103 -37.5t41 -95.5zM302 222q4 39 -22 65t-71 26q-40 0 -70.5 -23.5t-39.5 -67.5h203zM151 422l123 103l28 -40l-139 -80z" />
    <glyph glyph-name="ecircumflex" unicode="&#xea;" horiz-adv-x="400" 
d="M352 221q0 -12 -4 -36h-252q-5 -62 28.5 -108t111.5 -46q58 0 111 42v-42q-46 -43 -132 -43q-75 0 -123 53t-48 133t49 130t115 50q62 0 103 -37.5t41 -95.5zM302 222q4 39 -22 65t-71 26q-40 0 -70.5 -23.5t-39.5 -67.5h203zM327 431l-22 -22l-91 86l-91 -86l-22 22
l113 114z" />
    <glyph glyph-name="edieresis" unicode="&#xeb;" horiz-adv-x="400" 
d="M352 221q0 -12 -4 -36h-252q-5 -62 28.5 -108t111.5 -46q58 0 111 42v-42q-46 -43 -132 -43q-75 0 -123 53t-48 133t49 130t115 50q62 0 103 -37.5t41 -95.5zM302 222q4 39 -22 65t-71 26q-40 0 -70.5 -23.5t-39.5 -67.5h203zM321 415h-57v57h57v-57zM164 415h-57v57h57
v-57z" />
    <glyph glyph-name="igrave" unicode="&#xec;" horiz-adv-x="179" 
d="M115 0h-51v341h51v-341zM153 422l-12 -17l-139 80l28 40z" />
    <glyph glyph-name="iacute" unicode="&#xed;" horiz-adv-x="179" 
d="M115 0h-51v341h51v-341zM27 422l123 103l28 -40l-139 -80z" />
    <glyph glyph-name="icircumflex" unicode="&#xee;" horiz-adv-x="179" 
d="M115 0h-51v341h51v-341zM203 431l-22 -22l-91 86l-91 -86l-22 22l113 114z" />
    <glyph glyph-name="idieresis" unicode="&#xef;" horiz-adv-x="179" 
d="M115 0h-51v341h51v-341zM197 415h-57v57h57v-57zM40 415h-57v57h57v-57z" />
    <glyph glyph-name="eth" unicode="&#xf0;" horiz-adv-x="450" 
d="M410 187q0 -88 -51.5 -144.5t-133.5 -56.5q-79 0 -132 54t-53 131t53 130.5t132 53.5q80 0 124 -60q-23 93 -97 184l-89 -51l-15 27l82 49q-40 47 -96 87l22 25q58 -41 108 -92l85 51l16 -27l-79 -48q124 -154 124 -313zM359 171q0 62 -38 101t-96 39t-96 -39t-38 -101
q0 -61 38.5 -101t95.5 -40q58 0 96 40t38 101z" />
    <glyph glyph-name="ntilde" unicode="&#xf1;" horiz-adv-x="440" 
d="M377 0h-51v197q0 111 -91 111q-45 0 -82.5 -36t-37.5 -81v-191h-51v341h45l3 -64q18 33 56.5 55t80.5 22q128 0 128 -151v-203zM340 501q-1 -42 -19 -64t-46 -22q-23 0 -61.5 24.5t-51.5 24.5q-17 0 -25 -10t-10 -36h-28q1 43 19 64.5t46 21.5q23 0 61.5 -24.5
t51.5 -24.5q17 0 25.5 10t9.5 36h28z" />
    <glyph glyph-name="ograve" unicode="&#xf2;" horiz-adv-x="450" 
d="M410 171q0 -77 -52.5 -131t-132.5 -54q-79 0 -132 54t-53 131t53 130.5t132 53.5q80 0 132.5 -53.5t52.5 -130.5zM359 171q0 62 -38 101t-96 39t-96 -39t-38 -101q0 -61 38.5 -101t95.5 -40q58 0 96 40t38 101zM291 422l-12 -17l-139 80l28 40z" />
    <glyph glyph-name="oacute" unicode="&#xf3;" horiz-adv-x="450" 
d="M410 171q0 -77 -52.5 -131t-132.5 -54q-79 0 -132 54t-53 131t53 130.5t132 53.5q80 0 132.5 -53.5t52.5 -130.5zM359 171q0 62 -38 101t-96 39t-96 -39t-38 -101q0 -61 38.5 -101t95.5 -40q58 0 96 40t38 101zM165 422l123 103l28 -40l-139 -80z" />
    <glyph glyph-name="ocircumflex" unicode="&#xf4;" horiz-adv-x="450" 
d="M410 171q0 -77 -52.5 -131t-132.5 -54q-79 0 -132 54t-53 131t53 130.5t132 53.5q80 0 132.5 -53.5t52.5 -130.5zM359 171q0 62 -38 101t-96 39t-96 -39t-38 -101q0 -61 38.5 -101t95.5 -40q58 0 96 40t38 101zM341 431l-22 -22l-91 86l-91 -86l-22 22l113 114z" />
    <glyph glyph-name="otilde" unicode="&#xf5;" horiz-adv-x="450" 
d="M410 171q0 -77 -52.5 -131t-132.5 -54q-79 0 -132 54t-53 131t53 130.5t132 53.5q80 0 132.5 -53.5t52.5 -130.5zM359 171q0 62 -38 101t-96 39t-96 -39t-38 -101q0 -61 38.5 -101t95.5 -40q58 0 96 40t38 101zM348 501q-1 -42 -19 -64t-46 -22q-23 0 -61.5 24.5
t-51.5 24.5q-17 0 -25 -10t-10 -36h-28q1 43 19 64.5t46 21.5q23 0 61.5 -24.5t51.5 -24.5q17 0 25.5 10t9.5 36h28z" />
    <glyph glyph-name="odieresis" unicode="&#xf6;" horiz-adv-x="450" 
d="M410 171q0 -77 -52.5 -131t-132.5 -54q-79 0 -132 54t-53 131t53 130.5t132 53.5q80 0 132.5 -53.5t52.5 -130.5zM359 171q0 62 -38 101t-96 39t-96 -39t-38 -101q0 -61 38.5 -101t95.5 -40q58 0 96 40t38 101zM335 415h-57v57h57v-57zM178 415h-57v57h57v-57z" />
    <glyph glyph-name="divide" unicode="&#xf7;" horiz-adv-x="421" 
d="M369 209h-317v39h317v-39zM240 72h-58v58h58v-58zM240 327h-58v58h58v-58z" />
    <glyph glyph-name="oslash" unicode="&#xf8;" horiz-adv-x="450" 
d="M303 287l-140 -242q27 -15 62 -15q58 0 96 40t38 101q0 78 -56 116zM147 54l140 243q-28 14 -62 14q-58 0 -96 -39t-38 -101q0 -76 56 -117zM124 15q-39 24 -61.5 65.5t-22.5 90.5q0 77 53 130.5t132 53.5q45 0 85 -19l25 43l16 -10l-25 -42q39 -25 61.5 -66.5
t22.5 -89.5q0 -77 -52.5 -131t-132.5 -54q-47 0 -85 20l-25 -44l-16 10z" />
    <glyph glyph-name="ugrave" unicode="&#xf9;" horiz-adv-x="440" 
d="M63 341h51v-197q0 -111 91 -111q45 0 82.5 36t37.5 81v191h51v-341h-45l-3 64q-18 -33 -56.5 -55t-80.5 -22q-128 0 -128 151v203zM282 422l-12 -17l-139 80l28 40z" />
    <glyph glyph-name="uacute" unicode="&#xfa;" horiz-adv-x="440" 
d="M63 341h51v-197q0 -111 91 -111q45 0 82.5 36t37.5 81v191h51v-341h-45l-3 64q-18 -33 -56.5 -55t-80.5 -22q-128 0 -128 151v203zM156 422l123 103l28 -40l-139 -80z" />
    <glyph glyph-name="ucircumflex" unicode="&#xfb;" horiz-adv-x="440" 
d="M63 341h51v-197q0 -111 91 -111q45 0 82.5 36t37.5 81v191h51v-341h-45l-3 64q-18 -33 -56.5 -55t-80.5 -22q-128 0 -128 151v203zM332 431l-22 -22l-91 86l-91 -86l-22 22l113 114z" />
    <glyph glyph-name="udieresis" unicode="&#xfc;" horiz-adv-x="440" 
d="M63 341h51v-197q0 -111 91 -111q45 0 82.5 36t37.5 81v191h51v-341h-45l-3 64q-18 -33 -56.5 -55t-80.5 -22q-128 0 -128 151v203zM326 415h-57v57h57v-57zM169 415h-57v57h57v-57z" />
    <glyph glyph-name="yacute" unicode="&#xfd;" horiz-adv-x="365" 
d="M350 341l-226 -536h-51l84 199l-142 337h53l116 -285l115 285h51zM122 422l123 103l28 -40l-139 -80z" />
    <glyph glyph-name="thorn" unicode="&#xfe;" horiz-adv-x="463" 
d="M368 171q0 64 -37.5 102t-90.5 38t-90.5 -37.5t-37.5 -102.5t37.5 -103t90.5 -38t90.5 38.5t37.5 102.5zM64 600h51v-314q20 34 57.5 51t76.5 17q73 0 121.5 -52t48.5 -131t-48.5 -131.5t-121.5 -52.5q-40 0 -77.5 17.5t-56.5 50.5v-250h-51v795z" />
    <glyph glyph-name="ydieresis" unicode="&#xff;" horiz-adv-x="365" 
d="M350 341l-226 -536h-51l84 199l-142 337h53l116 -285l115 285h51zM292 415h-57v57h57v-57zM135 415h-57v57h57v-57z" />
    <glyph glyph-name="dotlessi" unicode="&#x131;" horiz-adv-x="179" 
d="M115 0h-51v341h51v-341z" />
    <glyph glyph-name="Lslash" unicode="&#x141;" horiz-adv-x="424" 
d="M70 270l-52 -40l-19 27l71 55v288h55v-245l74 57l19 -27l-93 -72v-264h285v-49h-340v270z" />
    <glyph glyph-name="lslash" unicode="&#x142;" horiz-adv-x="179" 
d="M115 320v-320h-51v281l-56 -43l-18 26l74 57v279h51v-239l55 43l19 -26z" />
    <glyph glyph-name="OE" unicode="&#x152;" horiz-adv-x="873" 
d="M823 0h-460q-162 0 -242 83.5t-80 216.5t80 216.5t242 83.5h460v-49h-285v-211h235v-49h-235v-242h285v-49zM361 51h122v498h-122q-138 0 -200 -69.5t-62 -179.5t62 -179.5t200 -69.5z" />
    <glyph glyph-name="oe" unicode="&#x153;" horiz-adv-x="715" 
d="M617 222q4 39 -22 65t-71 26q-40 0 -70.5 -23.5t-39.5 -67.5h203zM384 74q-24 -40 -66 -64t-93 -24q-79 0 -132 54t-53 131t53 130.5t132 53.5q51 0 92 -23t65 -63q22 40 60 62.5t81 22.5q62 0 103 -37.5t41 -95.5q0 -12 -4 -36h-252q-5 -62 28.5 -108t111.5 -46
q59 0 111 42v-42q-46 -43 -132 -43q-98 0 -146 86zM359 171q0 62 -38 101t-96 39t-96 -39t-38 -101q0 -61 38.5 -101t95.5 -40q58 0 96 40t38 101z" />
    <glyph glyph-name="Scaron" unicode="&#x160;" horiz-adv-x="457" 
d="M40 54l11 55q75 -73 176 -73q57 0 95.5 32t38.5 84t-32 84t-115 55q-76 21 -117 65.5t-41 106.5q0 63 50 106.5t131 43.5q84 0 150 -50l-12 -47q-69 48 -138 48q-58 0 -91.5 -28t-33.5 -73q0 -84 125 -118q180 -48 180 -186q0 -81 -57 -126.5t-133 -45.5q-60 0 -109.5 20
t-77.5 47zM343 786l-113 -114l-113 114l22 22l91 -86l91 86z" />
    <glyph glyph-name="scaron" unicode="&#x161;" horiz-adv-x="330" 
d="M289 98q0 -51 -35.5 -81t-93.5 -30q-65 0 -122 35l10 42q59 -34 114 -34q78 0 78 61q0 23 -20 37t-67 26q-51 13 -77 40t-26 61q0 43 31 71t89 28q47 0 101 -27l-10 -41q-46 26 -91 26q-72 0 -72 -52q0 -23 17.5 -36.5t56.5 -23.5q57 -13 87 -40t30 -62zM279 525
l-113 -114l-113 114l22 22l91 -86l91 86z" />
    <glyph glyph-name="Ydieresis" unicode="&#x178;" horiz-adv-x="535" 
d="M240 241l-225 359h63l191 -308l191 308h60l-225 -359v-241h-55v241zM376 676h-57v57h57v-57zM219 676h-57v57h57v-57z" />
    <glyph glyph-name="Zcaron" unicode="&#x17d;" horiz-adv-x="471" 
d="M40 37l323 514h-323v49h390v-37l-323 -514h323v-49h-390v37zM341 786l-113 -114l-113 114l22 22l91 -86l91 86z" />
    <glyph glyph-name="zcaron" unicode="&#x17e;" horiz-adv-x="337" 
d="M300 0h-269v32l201 267h-191v42h255v-32l-201 -267h205v-42zM278 525l-113 -114l-113 114l22 22l91 -86l91 86z" />
    <glyph glyph-name="florin" unicode="&#x192;" horiz-adv-x="263" 
d="M143 290l-31 -371q-5 -56 -35 -89.5t-85 -33.5q-39 0 -60 21l3 39q23 -19 52 -19q34 0 51 21t21 67l31 365h-88l4 45h88l9 111q7 92 42 130.5t100 38.5q18 0 41 -7l-3 -38q-30 5 -37 5q-44 0 -64 -27t-26 -99l-9 -114h117l-4 -45h-117z" />
    <glyph glyph-name="circumflex" unicode="&#x2c6;" 
d="M268 431l-22 -22l-91 86l-91 -86l-22 22l113 114z" />
    <glyph glyph-name="caron" unicode="&#x2c7;" 
d="M268 525l-113 -114l-113 114l22 22l91 -86l91 86z" />
    <glyph glyph-name="breve" unicode="&#x2d8;" 
d="M247 503q-1 -39 -28 -65t-64 -26t-62.5 24.5t-29.5 66.5l15 1q20 -59 77 -59q26 0 48 17.5t29 41.5z" />
    <glyph glyph-name="dotaccent" unicode="&#x2d9;" 
d="M184 415h-57v57h57v-57z" />
    <glyph glyph-name="ring" unicode="&#x2da;" 
d="M155 560q-25 0 -42.5 -17.5t-17.5 -42.5t17.5 -42t42.5 -17t42.5 17t17.5 42t-17.5 42.5t-42.5 17.5zM155 591q37 0 64 -26.5t27 -64.5q0 -37 -26.5 -63.5t-64.5 -26.5t-64.5 26.5t-26.5 63.5q0 38 27 64.5t64 26.5z" />
    <glyph glyph-name="ogonek" unicode="&#x2db;" 
d="M214 -80q-4 -29 -28 -47.5t-56 -18.5q-34 0 -56.5 23t-22.5 56q0 41 37.5 66.5t77.5 12.5l5 -4q-1 0 -5.5 -4t-5.5 -4h-8q-25 -1 -45 -17t-20 -38q0 -23 15.5 -40t40.5 -17q40 0 54 29q7 14 7 19z" />
    <glyph glyph-name="tilde" unicode="&#x2dc;" 
d="M275 501q-1 -42 -19 -64t-46 -22q-23 0 -61.5 24.5t-51.5 24.5q-17 0 -25 -10t-10 -36h-28q1 43 19 64.5t46 21.5q23 0 61.5 -24.5t51.5 -24.5q17 0 25.5 10t9.5 36h28z" />
    <glyph glyph-name="hungarumlaut" unicode="&#x2dd;" horiz-adv-x="314" 
d="M19 422l123 103l28 -40l-139 -80zM136 422l123 103l28 -40l-139 -80z" />
    <glyph glyph-name="pi" unicode="&#x3c0;" horiz-adv-x="489" 
d="M455 296h-61v-296h-53v296h-194v-296h-53v296h-60v45h421v-45z" />
    <glyph glyph-name="endash" unicode="&#x2013;" horiz-adv-x="384" 
d="M385 186h-386v37h386v-37z" />
    <glyph glyph-name="emdash" unicode="&#x2014;" horiz-adv-x="626" 
d="M627 186h-628v37h628v-37z" />
    <glyph glyph-name="quoteleft" unicode="&#x2018;" horiz-adv-x="208" 
d="M70 479q0 46 19 79.5t53 44.5l12 -19q-47 -24 -47 -99h29v-66h-66v60z" />
    <glyph glyph-name="quoteright" unicode="&#x2019;" horiz-adv-x="208" 
d="M138 540q0 -46 -19 -79.5t-53 -44.5l-12 19q47 24 47 99h-29v66h66v-60z" />
    <glyph glyph-name="quotesinglbase" unicode="&#x201a;" horiz-adv-x="208" 
d="M138 6q0 -46 -19 -79.5t-53 -44.5l-12 19q47 24 47 99h-29v66h66v-60z" />
    <glyph glyph-name="quotedblleft" unicode="&#x201c;" horiz-adv-x="346" 
d="M208 479q0 46 19 79.5t53 44.5l12 -19q-47 -24 -47 -99h29v-66h-66v60zM70 479q0 46 19 79.5t53 44.5l12 -19q-47 -24 -47 -99h29v-66h-66v60z" />
    <glyph glyph-name="quotedblright" unicode="&#x201d;" horiz-adv-x="346" 
d="M138 540q0 -46 -19 -79.5t-53 -44.5l-12 19q47 24 47 99h-29v66h66v-60zM276 540q0 -46 -19 -79.5t-53 -44.5l-12 19q47 24 47 99h-29v66h66v-60z" />
    <glyph glyph-name="quotedblbase" unicode="&#x201e;" horiz-adv-x="346" 
d="M138 6q0 -46 -19 -79.5t-53 -44.5l-12 19q47 24 47 99h-29v66h66v-60zM276 6q0 -46 -19 -79.5t-53 -44.5l-12 19q47 24 47 99h-29v66h66v-60z" />
    <glyph glyph-name="dagger" unicode="&#x2020;" horiz-adv-x="411" 
d="M378 352h-149v-549h-47v549h-149v41h149v207h47v-207h149v-41z" />
    <glyph glyph-name="daggerdbl" unicode="&#x2021;" horiz-adv-x="411" 
d="M378 9h-149v-206h-47v206h-149v42h149v301h-149v41h149v206h47v-206h149v-41h-149v-301h149v-42z" />
    <glyph glyph-name="bullet" unicode="&#x2022;" horiz-adv-x="233" 
d="M116 354q28 0 47 -19t19 -47q0 -27 -19 -46t-47 -19q-27 0 -46 19t-19 46q0 28 19 47t46 19z" />
    <glyph glyph-name="ellipsis" unicode="&#x2026;" horiz-adv-x="640" 
d="M143 0h-66v66h66v-66zM353 0h-66v66h66v-66zM563 0h-66v66h66v-66z" />
    <glyph glyph-name="perthousand" unicode="&#x2030;" horiz-adv-x="963" 
d="M295 469q0 -64 -35 -105t-85 -41q-51 0 -85.5 40.5t-34.5 105.5t34.5 105t85.5 40q50 0 85 -40.5t35 -104.5zM528 604l-373 -620l-26 13l373 620zM251 469q0 49 -21 78.5t-55 29.5t-55 -29t-21 -79t21 -79.5t55 -29.5t55 29.5t21 79.5zM908 134q0 -64 -35 -105t-85 -41
q-51 0 -85.5 40.5t-34.5 105.5t34.5 105t85.5 40q50 0 85 -40.5t35 -104.5zM864 134q0 49 -21 78.5t-55 29.5t-55 -29t-21 -79t21 -79.5t55 -29.5t55 29.5t21 79.5zM602 134q0 -64 -35 -105t-85 -41q-51 0 -85.5 40.5t-34.5 105.5t34.5 105t85.5 40q50 0 85 -40.5t35 -104.5
zM558 134q0 49 -21 78.5t-55 29.5t-55 -29t-21 -79t21 -79.5t55 -29.5t55 29.5t21 79.5z" />
    <glyph glyph-name="guilsinglleft" unicode="&#x2039;" horiz-adv-x="281" 
d="M250 47l-17 -20l-195 179l195 179l17 -20l-156 -159z" />
    <glyph glyph-name="guilsinglright" unicode="&#x203a;" horiz-adv-x="281" 
d="M31 47l156 159l-156 159l17 20l195 -179l-195 -179z" />
    <glyph glyph-name="fraction" unicode="&#x2044;" horiz-adv-x="130" 
d="M259 606l-362 -624l-26 13l362 624z" />
    <glyph glyph-name="zerosuperior" unicode="&#x2070;" horiz-adv-x="326" 
d="M288 518q0 -78 -35 -124t-90 -46t-90 46t-35 124t35 123.5t90 45.5t90 -45.5t35 -123.5zM240 518q0 64 -21.5 97.5t-55.5 33.5q-35 0 -56 -33.5t-21 -97.5q0 -65 21 -98.5t56 -33.5q34 0 55.5 34t21.5 98z" />
    <glyph glyph-name="foursuperior" unicode="&#x2074;" horiz-adv-x="313" 
d="M283 440h-58v-83h-46v83h-149v22l158 219h37v-207h58v-34zM179 474v142l-104 -142h104z" />
    <glyph glyph-name="fivesuperior" unicode="&#x2075;" horiz-adv-x="276" 
d="M242 458q0 -50 -32.5 -80t-82.5 -30q-49 0 -90 30v41q40 -35 86 -35q33 0 52.5 20.5t19.5 53.5q0 31 -17 49t-46 18q-40 0 -62 -32l-21 10v174h178v-39h-140v-98q18 20 55 20q42 0 71 -28.5t29 -73.5z" />
    <glyph glyph-name="sixsuperior" unicode="&#x2076;" horiz-adv-x="301" 
d="M266 455q0 -47 -32.5 -77t-78.5 -30q-47 0 -81 34.5t-34 117.5q0 87 34.5 136.5t101.5 49.5q44 0 71 -19v-37q-28 20 -69 20q-86 0 -90 -121v-9q8 18 30 30t45 12q46 0 74.5 -30t28.5 -77zM219 454q0 33 -16.5 53.5t-47.5 20.5q-28 0 -47.5 -19t-18.5 -51q1 -37 19 -57
t45 -20q31 0 48.5 20t17.5 53z" />
    <glyph glyph-name="sevensuperior" unicode="&#x2077;" horiz-adv-x="265" 
d="M237 654q-27 -41 -68 -134.5t-53 -162.5h-48q13 68 53.5 156t65.5 125h-161v39h211v-23z" />
    <glyph glyph-name="eightsuperior" unicode="&#x2078;" 
d="M272 443q0 -42 -34 -68.5t-83 -26.5t-83.5 26.5t-34.5 68.5q0 34 21 58t54 34q-56 21 -56 73q0 34 29.5 56.5t69.5 22.5t69 -22.5t29 -56.5q0 -51 -55 -73q33 -10 53.5 -34t20.5 -58zM211 604q0 24 -15.5 38.5t-40.5 14.5t-41 -14.5t-16 -38.5q0 -23 16.5 -38.5
t40.5 -15.5t40 15.5t16 38.5zM226 447q0 31 -20.5 50.5t-50.5 19.5q-31 0 -51.5 -19.5t-20.5 -50.5q0 -30 20.5 -48.5t51.5 -18.5t51 18.5t20 48.5z" />
    <glyph glyph-name="ninesuperior" unicode="&#x2079;" horiz-adv-x="301" 
d="M261 535q0 -87 -34.5 -136.5t-101.5 -49.5q-44 0 -71 19v37q28 -20 69 -20q86 0 90 121v9q-8 -18 -30 -30t-45 -12q-46 0 -74.5 30t-28.5 77t32 77t79 30t81 -34.5t34 -117.5zM148 654q-31 0 -48.5 -20t-17.5 -53t16.5 -53.5t47.5 -20.5q28 0 47.5 19t18.5 51
q-1 37 -19.5 57t-44.5 20z" />
    <glyph glyph-name="zeroinferior" unicode="&#x2080;" horiz-adv-x="326" 
d="M288 56q0 -78 -35 -124t-90 -46t-90 46t-35 124t35 123.5t90 45.5t90 -45.5t35 -123.5zM240 56q0 64 -21.5 97.5t-55.5 33.5q-35 0 -56 -33.5t-21 -97.5q0 -65 21 -98.5t56 -33.5q34 0 55.5 34t21.5 98z" />
    <glyph glyph-name="oneinferior" unicode="&#x2081;" horiz-adv-x="179" 
d="M116 -105h-46v283h-34v28l80 16v-327z" />
    <glyph glyph-name="twoinferior" unicode="&#x2082;" horiz-adv-x="265" 
d="M228 -105h-199v24l87 95q59 63 59 111q0 31 -17 46t-42 15q-40 0 -80 -32v40q38 30 87 30q44 0 71.5 -25.5t27.5 -69.5q0 -58 -62 -120l-73 -75h141v-39z" />
    <glyph glyph-name="threeinferior" unicode="&#x2083;" horiz-adv-x="278" 
d="M242 -6q0 -49 -32.5 -78.5t-82.5 -29.5q-49 0 -90 30v41q40 -35 86 -35q32 0 52 19.5t20 53.5q0 30 -17 48t-47 18q-28 0 -46 -15l-17 21l111 109h-139v39h199v-24l-102 -100q47 3 76 -24.5t29 -72.5z" />
    <glyph glyph-name="fourinferior" unicode="&#x2084;" horiz-adv-x="313" 
d="M283 -22h-58v-83h-46v83h-149v22l158 219h37v-207h58v-34zM179 12v142l-104 -142h104z" />
    <glyph glyph-name="fiveinferior" unicode="&#x2085;" horiz-adv-x="276" 
d="M242 -4q0 -50 -32.5 -80t-82.5 -30q-49 0 -90 30v41q40 -35 86 -35q33 0 52.5 20.5t19.5 53.5q0 31 -17 49t-46 18q-40 0 -62 -32l-21 10v174h178v-39h-140v-98q18 20 55 20q42 0 71 -28.5t29 -73.5z" />
    <glyph glyph-name="sixinferior" unicode="&#x2086;" horiz-adv-x="300" 
d="M265 -8q0 -46 -32 -76t-78 -30q-47 0 -81 34.5t-34 117.5q0 87 34.5 136.5t101.5 49.5q45 0 70 -19v-37q-28 20 -68 20q-87 0 -90 -124q10 16 31 25.5t43 9.5q46 0 74.5 -30t28.5 -77zM218 -9q0 34 -17 54t-47 20q-23 0 -42.5 -15t-24.5 -42q1 -45 19 -67t47 -22
q30 0 47.5 20t17.5 52z" />
    <glyph glyph-name="seveninferior" unicode="&#x2087;" horiz-adv-x="265" 
d="M237 192q-27 -41 -68 -134.5t-53 -162.5h-48q13 68 53.5 156t65.5 125h-161v39h211v-23z" />
    <glyph glyph-name="eightinferior" unicode="&#x2088;" 
d="M272 -19q0 -42 -33 -68.5t-84 -26.5t-84.5 26.5t-33.5 68.5q0 33 22.5 57t57.5 35q-28 10 -44.5 29.5t-16.5 44.5q0 34 29 56t70 22t69.5 -22t28.5 -56q0 -25 -16.5 -44.5t-44.5 -29.5q35 -11 57.5 -35t22.5 -57zM211 143q0 24 -15.5 38t-40.5 14q-26 0 -41.5 -14
t-15.5 -38q0 -21 15.5 -36.5t41.5 -18.5q25 3 40.5 18.5t15.5 36.5zM226 -15q0 29 -19.5 47.5t-51.5 22.5q-33 -4 -52.5 -22.5t-19.5 -47.5q0 -30 19.5 -48.5t52.5 -18.5q32 0 51.5 18.5t19.5 48.5z" />
    <glyph glyph-name="nineinferior" unicode="&#x2089;" horiz-adv-x="300" 
d="M260 73q0 -87 -34 -136.5t-101 -49.5q-44 0 -71 19v37q30 -20 69 -20q87 0 90 124q-24 -35 -75 -35q-45 0 -73.5 30t-28.5 77t31.5 76.5t78.5 29.5q46 0 80 -34.5t34 -117.5zM214 103q-1 45 -19.5 67t-46.5 22q-30 0 -47.5 -19.5t-17.5 -52.5q0 -34 16.5 -54t47.5 -20
q23 0 42 14.5t25 42.5z" />
    <glyph glyph-name="Euro" unicode="&#x20ac;" horiz-adv-x="494" 
d="M450 21q-49 -36 -125 -36q-93 0 -153 62.5t-77 174.5h-60v33h57q-2 15 -2 47q0 30 2 44h-57v33h60q15 113 75.5 174.5t154.5 61.5q71 0 125 -36v-49q-50 40 -123 40q-74 0 -119.5 -49.5t-58.5 -141.5h182v-33h-185q-2 -14 -2 -44q0 -32 2 -47h185v-33h-182
q15 -91 60.5 -141.5t117.5 -50.5q68 0 123 40v-49z" />
    <glyph glyph-name="trademark" unicode="&#x2122;" horiz-adv-x="793" 
d="M390 600h50l122 -266l120 266h51v-333h-42v262l-118 -262h-24l-117 262v-262h-42v333zM139 556h-111v44h272v-44h-112v-289h-49v289z" />
    <glyph glyph-name="Omega" unicode="&#x2126;" horiz-adv-x="537" 
d="M370 192v-143h103v-49h-147v222q51 21 81.5 69t30.5 103q0 70 -46 123t-123 53t-123 -53t-46 -123q0 -55 30 -102t82 -70v-222h-147v49h103v142q-54 30 -87.5 85t-33.5 120q0 89 63 154t159 65q95 0 158.5 -65t63.5 -154q0 -65 -33.5 -119.5t-87.5 -84.5z" />
    <glyph glyph-name="onethird" unicode="&#x2153;" horiz-adv-x="577" 
d="M116 280h-46v283h-34v28l80 16v-327zM433 606l-362 -624l-26 13l362 624zM541 99q0 -49 -32.5 -78.5t-82.5 -29.5q-49 0 -90 30v41q40 -35 86 -35q32 0 52 19.5t20 53.5q0 30 -17 48t-47 18q-28 0 -46 -15l-17 21l111 109h-139v39h199v-24l-102 -100q47 3 76 -24.5
t29 -72.5z" />
    <glyph glyph-name="twothirds" unicode="&#x2154;" horiz-adv-x="663" 
d="M233 280h-199v24l87 95q59 63 59 111q0 31 -17 46t-42 15q-40 0 -80 -32v40q38 30 87 30q44 0 71.5 -25.5t27.5 -69.5q0 -58 -62 -120l-73 -75h141v-39zM519 606l-362 -624l-26 13l362 624zM627 99q0 -49 -32.5 -78.5t-82.5 -29.5q-49 0 -90 30v41q40 -35 86 -35
q32 0 52 19.5t20 53.5q0 30 -17 48t-47 18q-28 0 -46 -15l-17 21l111 109h-139v39h199v-24l-102 -100q47 3 76 -24.5t29 -72.5z" />
    <glyph glyph-name="oneeighth" unicode="&#x215b;" horiz-adv-x="589" 
d="M116 280h-46v283h-34v28l80 16v-327zM433 606l-362 -624l-26 13l362 624zM551 86q0 -42 -33 -68.5t-84 -26.5t-84.5 26.5t-33.5 68.5q0 33 22.5 57t57.5 35q-28 10 -44.5 29.5t-16.5 44.5q0 34 29 56t70 22t69.5 -22t28.5 -56q0 -25 -16.5 -44.5t-44.5 -29.5
q35 -11 57.5 -35t22.5 -57zM490 248q0 24 -15.5 38t-40.5 14q-26 0 -41.5 -14t-15.5 -38q0 -21 15.5 -36.5t41.5 -18.5q25 3 40.5 18.5t15.5 36.5zM505 90q0 29 -19.5 47.5t-51.5 22.5q-33 -4 -52.5 -22.5t-19.5 -47.5q0 -30 19.5 -48.5t52.5 -18.5q32 0 51.5 18.5
t19.5 48.5z" />
    <glyph glyph-name="threeeighths" unicode="&#x215c;" horiz-adv-x="688" 
d="M242 379q0 -49 -32.5 -78.5t-82.5 -29.5q-49 0 -90 30v41q40 -35 86 -35q32 0 52 19.5t20 53.5q0 30 -17 48t-47 18q-28 0 -46 -15l-17 21l111 109h-139v39h199v-24l-102 -100q47 3 76 -24.5t29 -72.5zM532 606l-362 -624l-26 13l362 624zM650 86q0 -42 -33 -68.5
t-84 -26.5t-84.5 26.5t-33.5 68.5q0 33 22.5 57t57.5 35q-28 10 -44.5 29.5t-16.5 44.5q0 34 29 56t70 22t69.5 -22t28.5 -56q0 -25 -16.5 -44.5t-44.5 -29.5q35 -11 57.5 -35t22.5 -57zM589 248q0 24 -15.5 38t-40.5 14q-26 0 -41.5 -14t-15.5 -38q0 -21 15.5 -36.5
t41.5 -18.5q25 3 40.5 18.5t15.5 36.5zM604 90q0 29 -19.5 47.5t-51.5 22.5q-33 -4 -52.5 -22.5t-19.5 -47.5q0 -30 19.5 -48.5t52.5 -18.5q32 0 51.5 18.5t19.5 48.5z" />
    <glyph glyph-name="fiveeighths" unicode="&#x215d;" horiz-adv-x="686" 
d="M242 381q0 -50 -32.5 -80t-82.5 -30q-49 0 -90 30v41q40 -35 86 -35q33 0 52.5 20.5t19.5 53.5q0 31 -17 49t-46 18q-40 0 -62 -32l-21 10v174h178v-39h-140v-98q18 20 55 20q42 0 71 -28.5t29 -73.5zM530 606l-362 -624l-26 13l362 624zM648 86q0 -42 -33 -68.5
t-84 -26.5t-84.5 26.5t-33.5 68.5q0 33 22.5 57t57.5 35q-28 10 -44.5 29.5t-16.5 44.5q0 34 29 56t70 22t69.5 -22t28.5 -56q0 -25 -16.5 -44.5t-44.5 -29.5q35 -11 57.5 -35t22.5 -57zM587 248q0 24 -15.5 38t-40.5 14q-26 0 -41.5 -14t-15.5 -38q0 -21 15.5 -36.5
t41.5 -18.5q25 3 40.5 18.5t15.5 36.5zM602 90q0 29 -19.5 47.5t-51.5 22.5q-33 -4 -52.5 -22.5t-19.5 -47.5q0 -30 19.5 -48.5t52.5 -18.5q32 0 51.5 18.5t19.5 48.5z" />
    <glyph glyph-name="seveneighths" unicode="&#x215e;" horiz-adv-x="615" 
d="M237 577q-27 -41 -68 -134.5t-53 -162.5h-48q13 68 53.5 156t65.5 125h-161v39h211v-23zM459 606l-362 -624l-26 13l362 624zM577 86q0 -42 -33 -68.5t-84 -26.5t-84.5 26.5t-33.5 68.5q0 33 22.5 57t57.5 35q-28 10 -44.5 29.5t-16.5 44.5q0 34 29 56t70 22t69.5 -22
t28.5 -56q0 -25 -16.5 -44.5t-44.5 -29.5q35 -11 57.5 -35t22.5 -57zM516 248q0 24 -15.5 38t-40.5 14q-26 0 -41.5 -14t-15.5 -38q0 -21 15.5 -36.5t41.5 -18.5q25 3 40.5 18.5t15.5 36.5zM531 90q0 29 -19.5 47.5t-51.5 22.5q-33 -4 -52.5 -22.5t-19.5 -47.5
q0 -30 19.5 -48.5t52.5 -18.5q32 0 51.5 18.5t19.5 48.5z" />
    <glyph glyph-name="partialdiff" unicode="&#x2202;" horiz-adv-x="501" 
d="M38 179q7 88 64.5 143t138.5 55q58 0 99.5 -27t56.5 -67q16 283 -169 283q-67 0 -126 -38l4 53q49 34 127 34q120 0 174.5 -92.5t40.5 -256.5q-7 -80 -31 -138t-58 -87.5t-69 -42.5t-73 -13q-82 0 -134 55t-45 139zM92 179q-6 -67 31 -107.5t102 -40.5q59 0 104 44
t52 116q6 61 -34.5 100.5t-99.5 39.5q-66 0 -107.5 -42t-47.5 -110z" />
    <glyph glyph-name="Delta" unicode="&#x2206;" horiz-adv-x="560" 
d="M523 0h-486l233 600h20zM455 46l-175 450l-175 -450h350z" />
    <glyph glyph-name="product" unicode="&#x220f;" horiz-adv-x="607" 
d="M572 551h-60v-551h-56v551h-305v-551h-55v551h-61v49h537v-49z" />
    <glyph glyph-name="summation" unicode="&#x2211;" horiz-adv-x="510" 
d="M105 553l217 -327l-222 -349h403v-47h-479v17l238 374l-240 361v18h466v-47h-383z" />
    <glyph glyph-name="minus" unicode="&#x2212;" horiz-adv-x="421" 
d="M359 209h-297v39h297v-39z" />
    <glyph glyph-name="radical" unicode="&#x221a;" horiz-adv-x="427" 
d="M445 741l-285 -762h-12l-122 288l39 18l94 -228l255 684h31z" />
    <glyph glyph-name="infinity" unicode="&#x221e;" horiz-adv-x="686" 
d="M523 353q55 0 90.5 -36.5t35.5 -89.5q0 -52 -35.5 -88.5t-90.5 -36.5q-72 0 -180 103q-110 -103 -179 -103q-56 0 -91.5 36.5t-35.5 88.5q0 54 35 90t92 36q68 0 179 -104q106 104 180 104zM614 227q0 39 -25.5 66t-64.5 27q-58 0 -155 -93q98 -93 155 -93q38 0 64 27.5
t26 65.5zM317 227q-100 93 -155 93q-38 0 -63.5 -27t-25.5 -66q0 -38 25.5 -65.5t63.5 -27.5q55 0 155 93z" />
    <glyph glyph-name="integral" unicode="&#x222b;" horiz-adv-x="223" 
d="M249 607q-30 5 -37 5q-44 0 -61.5 -26.5t-17.5 -99.5v-562q0 -56 -27 -89.5t-82 -33.5q-38 0 -62 21v39q23 -19 53 -19q34 0 49.5 21t15.5 67v553q0 93 31 131t96 38q19 0 42 -7v-38z" />
    <glyph glyph-name="approxequal" unicode="&#x2248;" horiz-adv-x="420" 
d="M343 155q-23 -33 -66 -33q-23 0 -69 16.5t-64 16.5q-17 0 -33.5 -8t-24.5 -16l-8 -8v38q23 33 66 33q23 0 69 -16.5t64 -16.5q17 0 33.5 8t24.5 16l8 8v-38zM343 296q-23 -33 -66 -33q-23 0 -69 16.5t-64 16.5q-17 0 -33.5 -8t-24.5 -16l-8 -8v38q23 33 66 33
q23 0 69 -16.5t64 -16.5q17 0 33.5 8t24.5 16l8 8v-38z" />
    <glyph glyph-name="notequal" unicode="&#x2260;" horiz-adv-x="420" 
d="M345 139h-177l-67 -103l-22 16l57 87h-60v39h85l66 102h-151v39h176l67 103l22 -16l-57 -87h61v-39h-86l-66 -102h152v-39z" />
    <glyph glyph-name="lessequal" unicode="&#x2264;" horiz-adv-x="402" 
d="M327 98l-286 170l286 168l17 -33l-225 -136l225 -135zM367 0h-336v39h336v-39z" />
    <glyph glyph-name="greaterequal" unicode="&#x2265;" horiz-adv-x="402" 
d="M75 98l-17 34l225 135l-225 136l17 33l286 -168zM35 0v39h336v-39h-336z" />
    <glyph glyph-name="lozenge" unicode="&#x25ca;" horiz-adv-x="469" 
d="M429 294l-196 -333l-196 333l196 332zM386 294l-153 266l-153 -266l153 -266z" />
    <glyph glyph-name="Lslashsmall" unicode="&#xf6f9;" horiz-adv-x="337" 
d="M318 0h-258v187l-36 -27l-16 25l52 38v210h53v-172l52 38l16 -25l-68 -50v-178h205v-46z" />
    <glyph glyph-name="OEsmall" unicode="&#xf6fa;" horiz-adv-x="661" 
d="M616 0h-338q-120 0 -179.5 60.5t-59.5 156.5t59.5 156t179.5 60h338v-46h-205v-136h168v-46h-168v-159h205v-46zM358 46v341h-81q-97 0 -140.5 -47t-43.5 -123t43.5 -123.5t140.5 -47.5h81z" />
    <glyph glyph-name="Scaronsmall" unicode="&#xf6fd;" horiz-adv-x="364" 
d="M326 118q0 -61 -43 -94t-102 -33q-92 0 -144 50l12 52q57 -55 132 -55q40 0 66 19.5t26 54.5q0 34 -22.5 55.5t-80.5 37.5q-59 15 -90 48t-31 78q0 47 38.5 79t100.5 32q68 0 116 -38l-11 -45q-54 36 -105 36q-41 0 -63.5 -16.5t-22.5 -46.5q0 -56 88 -78
q136 -36 136 -136zM301 612l-113 -114l-113 114l22 22l91 -86l91 86z" />
    <glyph glyph-name="Zcaronsmall" unicode="&#xf6ff;" horiz-adv-x="372" 
d="M333 433v-31l-229 -356h229v-46h-295v31l229 356h-228v46h294zM299 612l-113 -114l-113 114l22 22l91 -86l91 86z" />
    <glyph glyph-name="Asmall" unicode="&#xf761;" horiz-adv-x="447" 
d="M427 0h-56l-50 119h-197l-50 -119h-54l183 433h41zM302 164l-79 194l-80 -194h159z" />
    <glyph glyph-name="Bsmall" unicode="&#xf762;" horiz-adv-x="384" 
d="M350 124q0 -55 -35.5 -89.5t-104.5 -34.5h-150v433h143q61 0 92.5 -31.5t31.5 -79.5q0 -27 -13 -52.5t-37 -37.5q36 -12 54.5 -42t18.5 -66zM207 205h-94v-159h94q90 0 90 79q0 35 -21.5 57.5t-68.5 22.5zM200 387h-87v-136h87q39 0 57 19.5t18 50.5q0 66 -75 66z" />
    <glyph glyph-name="Csmall" unicode="&#xf763;" horiz-adv-x="455" 
d="M413 34q-60 -43 -146 -43q-96 0 -162 61.5t-66 164.5q0 102 66 163.5t162 61.5q86 0 146 -43v-57q-62 52 -145 52q-77 0 -125.5 -48t-48.5 -129t48.5 -129.5t125.5 -48.5q83 0 145 52v-57z" />
    <glyph glyph-name="Dsmall" unicode="&#xf764;" horiz-adv-x="471" 
d="M432 217q0 -96 -59 -156.5t-178 -60.5h-135v433h135q119 0 178 -60t59 -156zM378 217q0 76 -43.5 123t-140.5 47h-81v-341h81q97 0 140.5 47.5t43.5 123.5z" />
    <glyph glyph-name="Esmall" unicode="&#xf765;" horiz-adv-x="363" 
d="M318 0h-258v433h258v-46h-205v-136h168v-46h-168v-159h205v-46z" />
    <glyph glyph-name="Fsmall" unicode="&#xf766;" horiz-adv-x="337" 
d="M317 387h-204v-136h167v-47h-167v-204h-53v433h257v-46z" />
    <glyph glyph-name="Gsmall" unicode="&#xf767;" horiz-adv-x="492" 
d="M432 33q-1 0 -17.5 -7.5t-23 -10.5t-24.5 -9t-31 -9t-32 -5.5t-38 -2.5q-96 0 -161.5 62.5t-65.5 165.5q0 102 66 163.5t162 61.5q89 0 147 -43v-57q-62 52 -145 52q-78 0 -126.5 -48.5t-48.5 -129.5q0 -82 48.5 -131.5t125.5 -49.5q66 0 112 27v104h-87v46h139v-179z
" />
    <glyph glyph-name="Hsmall" unicode="&#xf768;" horiz-adv-x="472" 
d="M412 0h-53v205h-246v-205h-53v433h53v-182h246v182h53v-433z" />
    <glyph glyph-name="Ismall" unicode="&#xf769;" horiz-adv-x="173" 
d="M113 0h-53v433h53v-433z" />
    <glyph glyph-name="Jsmall" unicode="&#xf76a;" horiz-adv-x="173" 
d="M113 -46q0 -44 -20.5 -70.5t-64.5 -26.5q-32 0 -56 21v43q19 -19 46 -19q23 0 32.5 13t9.5 47v471h53v-479z" />
    <glyph glyph-name="Ksmall" unicode="&#xf76b;" horiz-adv-x="420" 
d="M409 0h-69l-227 210v-210h-53v433h53v-210l204 210h63l-209 -213z" />
    <glyph glyph-name="Lsmall" unicode="&#xf76c;" horiz-adv-x="337" 
d="M318 0h-258v433h53v-387h205v-46z" />
    <glyph glyph-name="Msmall" unicode="&#xf76d;" horiz-adv-x="562" 
d="M502 0h-51v289v15t0.5 15.5t0.5 13.5v10v4l-23 -58l-130 -289h-38l-130 289q-12 25 -23 58v-4v-10t0.5 -13t0.5 -15.5v-15.5v-289h-49v433h57l165 -366l165 366h55v-433z" />
    <glyph glyph-name="Nsmall" unicode="&#xf76e;" horiz-adv-x="461" 
d="M401 0h-37l-254 332v-332h-50v433h37l254 -332v332h50v-433z" />
    <glyph glyph-name="Osmall" unicode="&#xf76f;" horiz-adv-x="532" 
d="M493 217q0 -99 -64.5 -163.5t-162.5 -64.5t-162.5 64.5t-64.5 163.5t64.5 163t162.5 64t162.5 -64t64.5 -163zM439 217q0 80 -49 129.5t-124 49.5q-76 0 -124.5 -49.5t-48.5 -129.5q0 -81 48.5 -130.5t124.5 -49.5q75 0 124 49.5t49 130.5z" />
    <glyph glyph-name="Psmall" unicode="&#xf770;" horiz-adv-x="364" 
d="M343 300q0 -56 -35.5 -93.5t-104.5 -37.5h-90v-169h-53v433h143q69 0 104.5 -38t35.5 -95zM289 300q0 38 -21 62.5t-68 24.5h-87v-172h87q47 0 68 24t21 61z" />
    <glyph glyph-name="Qsmall" unicode="&#xf771;" horiz-adv-x="532" 
d="M493 217q0 -85 -47.5 -145t-124.5 -76l21 -38q19 -34 38.5 -47.5t45.5 -13.5q10 0 24 3v-43q-22 -5 -37 -5q-72 0 -120 89l-26 48h-4q-97 1 -160.5 65t-63.5 163t64.5 163t162.5 64t162.5 -64t64.5 -163zM439 217q0 80 -49 129.5t-124 49.5q-76 0 -124.5 -49.5
t-48.5 -129.5q0 -81 48.5 -130.5t124.5 -49.5q75 0 124 49.5t49 130.5z" />
    <glyph glyph-name="Rsmall" unicode="&#xf772;" horiz-adv-x="403" 
d="M380 0h-61l-124 177h-82v-177h-53v433h144q69 0 104 -36t35 -92q0 -45 -24 -78t-70 -44zM290 305q0 82 -89 82h-88v-164h88q89 0 89 82z" />
    <glyph glyph-name="Ssmall" unicode="&#xf773;" horiz-adv-x="364" 
d="M326 118q0 -61 -43 -94t-102 -33q-92 0 -144 50l12 52q57 -55 132 -55q40 0 66 19.5t26 54.5q0 34 -22.5 55.5t-80.5 37.5q-59 15 -90 48t-31 78q0 47 38.5 79t100.5 32q68 0 116 -38l-11 -45q-54 36 -105 36q-41 0 -63.5 -16.5t-22.5 -46.5q0 -56 88 -78
q136 -36 136 -136z" />
    <glyph glyph-name="Tsmall" unicode="&#xf774;" horiz-adv-x="401" 
d="M382 387h-155v-387h-53v387h-155v46h363v-46z" />
    <glyph glyph-name="Usmall" unicode="&#xf775;" horiz-adv-x="493" 
d="M433 201q0 -106 -50 -159t-137 -53q-86 0 -136 53t-50 159v232h53v-233q0 -82 35.5 -123t98.5 -41t98 41t35 123v233h53v-232z" />
    <glyph glyph-name="Vsmall" unicode="&#xf776;" horiz-adv-x="447" 
d="M427 433l-183 -433h-41l-183 433h56l149 -354l148 354h54z" />
    <glyph glyph-name="Wsmall" unicode="&#xf777;" horiz-adv-x="627" 
d="M314 333l-111 -333h-35l-148 433h55l112 -333l110 333h35l111 -333l111 333h53l-148 -433h-35z" />
    <glyph glyph-name="Xsmall" unicode="&#xf778;" horiz-adv-x="420" 
d="M404 0h-64l-131 185l-132 -185h-61l162 223l-154 210h64l123 -173l124 173h61l-153 -211z" />
    <glyph glyph-name="Ysmall" unicode="&#xf779;" horiz-adv-x="421" 
d="M403 433l-166 -259v-174h-53v174l-166 259h59l135 -214l135 214h56z" />
    <glyph glyph-name="Zsmall" unicode="&#xf77a;" horiz-adv-x="372" 
d="M333 433v-31l-229 -356h229v-46h-295v31l229 356h-228v46h294z" />
    <glyph glyph-name="Agravesmall" unicode="&#xf7e0;" horiz-adv-x="447" 
d="M427 0h-56l-50 119h-197l-50 -119h-54l183 433h41zM302 164l-79 194l-80 -194h159zM286 509l-12 -17l-139 80l28 40z" />
    <glyph glyph-name="Aacutesmall" unicode="&#xf7e1;" horiz-adv-x="447" 
d="M427 0h-56l-50 119h-197l-50 -119h-54l183 433h41zM302 164l-79 194l-80 -194h159zM160 509l123 103l28 -40l-139 -80z" />
    <glyph glyph-name="Acircumflexsmall" unicode="&#xf7e2;" horiz-adv-x="447" 
d="M427 0h-56l-50 119h-197l-50 -119h-54l183 433h41zM302 164l-79 194l-80 -194h159zM336 518l-22 -22l-91 86l-91 -86l-22 22l113 114z" />
    <glyph glyph-name="Atildesmall" unicode="&#xf7e3;" horiz-adv-x="447" 
d="M427 0h-56l-50 119h-197l-50 -119h-54l183 433h41zM302 164l-79 194l-80 -194h159zM343 588q-1 -42 -19 -64t-46 -22q-23 0 -61.5 24.5t-51.5 24.5q-17 0 -25 -10t-10 -36h-28q1 43 19 64.5t46 21.5q23 0 61.5 -24.5t51.5 -24.5q17 0 25.5 10t9.5 36h28z" />
    <glyph glyph-name="Adieresissmall" unicode="&#xf7e4;" horiz-adv-x="447" 
d="M427 0h-56l-50 119h-197l-50 -119h-54l183 433h41zM302 164l-79 194l-80 -194h159zM330 502h-57v57h57v-57zM173 502h-57v57h57v-57z" />
    <glyph glyph-name="Aringsmall" unicode="&#xf7e5;" horiz-adv-x="447" 
d="M427 0h-56l-50 119h-197l-50 -119h-54l183 433h41zM302 164l-79 194l-80 -194h159zM223 647q-25 0 -42.5 -17.5t-17.5 -42.5t17.5 -42t42.5 -17t42.5 17t17.5 42t-17.5 42.5t-42.5 17.5zM223 678q37 0 64 -27t27 -64t-26.5 -63.5t-64.5 -26.5t-64.5 26.5t-26.5 63.5
t27 64t64 27z" />
    <glyph glyph-name="AEsmall" unicode="&#xf7e6;" horiz-adv-x="600" 
d="M555 0h-258v120h-157l-67 -120h-54l242 433h294v-46h-205v-136h168v-46h-168v-159h205v-46zM297 164v223h-10l-122 -223h132z" />
    <glyph glyph-name="Ccedillasmall" unicode="&#xf7e7;" horiz-adv-x="455" 
d="M250 -8q-90 5 -150.5 66t-60.5 159q0 102 66 163.5t162 61.5q86 0 146 -43v-57q-62 52 -145 52q-77 0 -125.5 -48t-48.5 -129t48.5 -129.5t125.5 -48.5q83 0 145 52v-57q-52 -37 -128 -42l-36 -44q33 -2 60 -20.5t27 -51.5q0 -53 -43.5 -77.5t-107.5 -22.5v32
q48 -2 78 14.5t30 48.5q0 28 -31.5 38.5t-63.5 -0.5v18z" />
    <glyph glyph-name="Egravesmall" unicode="&#xf7e8;" horiz-adv-x="363" 
d="M318 0h-258v433h258v-46h-205v-136h168v-46h-168v-159h205v-46zM254 509l-12 -17l-139 80l28 40z" />
    <glyph glyph-name="Eacutesmall" unicode="&#xf7e9;" horiz-adv-x="363" 
d="M318 0h-258v433h258v-46h-205v-136h168v-46h-168v-159h205v-46zM128 509l123 103l28 -40l-139 -80z" />
    <glyph glyph-name="Ecircumflexsmall" unicode="&#xf7ea;" horiz-adv-x="363" 
d="M318 0h-258v433h258v-46h-205v-136h168v-46h-168v-159h205v-46zM304 518l-22 -22l-91 86l-91 -86l-22 22l113 114z" />
    <glyph glyph-name="Edieresissmall" unicode="&#xf7eb;" horiz-adv-x="363" 
d="M318 0h-258v433h258v-46h-205v-136h168v-46h-168v-159h205v-46zM298 502h-57v57h57v-57zM141 502h-57v57h57v-57z" />
    <glyph glyph-name="Igravesmall" unicode="&#xf7ec;" horiz-adv-x="173" 
d="M113 0h-53v433h53v-433zM150 509l-12 -17l-139 80l28 40z" />
    <glyph glyph-name="Iacutesmall" unicode="&#xf7ed;" horiz-adv-x="173" 
d="M113 0h-53v433h53v-433zM24 509l123 103l28 -40l-139 -80z" />
    <glyph glyph-name="Icircumflexsmall" unicode="&#xf7ee;" horiz-adv-x="173" 
d="M113 0h-53v433h53v-433zM201 518l-22 -22l-91 86l-91 -86l-22 22l113 114z" />
    <glyph glyph-name="Idieresissmall" unicode="&#xf7ef;" horiz-adv-x="173" 
d="M113 0h-53v433h53v-433zM194 502h-57v57h57v-57zM37 502h-57v57h57v-57z" />
    <glyph glyph-name="Ethsmall" unicode="&#xf7f0;" horiz-adv-x="471" 
d="M60 200h-41v35h41v198h135q119 0 178 -60t59 -156t-59 -156.5t-178 -60.5h-135v200zM113 235h103v-35h-103v-154h81q97 0 140.5 47.5t43.5 123.5t-43.5 123t-140.5 47h-81v-152z" />
    <glyph glyph-name="Ntildesmall" unicode="&#xf7f1;" horiz-adv-x="461" 
d="M401 0h-37l-254 332v-332h-50v433h37l254 -332v332h50v-433zM355 588q-1 -42 -19 -64t-46 -22q-23 0 -61.5 24.5t-51.5 24.5q-17 0 -25 -10t-10 -36h-28q1 43 19 64.5t46 21.5q23 0 61.5 -24.5t51.5 -24.5q17 0 25.5 10t9.5 36h28z" />
    <glyph glyph-name="Ogravesmall" unicode="&#xf7f2;" horiz-adv-x="532" 
d="M493 217q0 -99 -64.5 -163.5t-162.5 -64.5t-162.5 64.5t-64.5 163.5t64.5 163t162.5 64t162.5 -64t64.5 -163zM439 217q0 80 -49 129.5t-124 49.5q-76 0 -124.5 -49.5t-48.5 -129.5q0 -81 48.5 -130.5t124.5 -49.5q75 0 124 49.5t49 130.5zM329 509l-12 -17l-139 80
l28 40z" />
    <glyph glyph-name="Oacutesmall" unicode="&#xf7f3;" horiz-adv-x="532" 
d="M493 217q0 -99 -64.5 -163.5t-162.5 -64.5t-162.5 64.5t-64.5 163.5t64.5 163t162.5 64t162.5 -64t64.5 -163zM439 217q0 80 -49 129.5t-124 49.5q-76 0 -124.5 -49.5t-48.5 -129.5q0 -81 48.5 -130.5t124.5 -49.5q75 0 124 49.5t49 130.5zM203 509l123 103l28 -40
l-139 -80z" />
    <glyph glyph-name="Ocircumflexsmall" unicode="&#xf7f4;" horiz-adv-x="532" 
d="M493 217q0 -99 -64.5 -163.5t-162.5 -64.5t-162.5 64.5t-64.5 163.5t64.5 163t162.5 64t162.5 -64t64.5 -163zM439 217q0 80 -49 129.5t-124 49.5q-76 0 -124.5 -49.5t-48.5 -129.5q0 -81 48.5 -130.5t124.5 -49.5q75 0 124 49.5t49 130.5zM379 518l-22 -22l-91 86
l-91 -86l-22 22l113 114z" />
    <glyph glyph-name="Otildesmall" unicode="&#xf7f5;" horiz-adv-x="532" 
d="M493 217q0 -99 -64.5 -163.5t-162.5 -64.5t-162.5 64.5t-64.5 163.5t64.5 163t162.5 64t162.5 -64t64.5 -163zM439 217q0 80 -49 129.5t-124 49.5q-76 0 -124.5 -49.5t-48.5 -129.5q0 -81 48.5 -130.5t124.5 -49.5q75 0 124 49.5t49 130.5zM386 588q-1 -42 -19 -64
t-46 -22q-23 0 -61.5 24.5t-51.5 24.5q-17 0 -25 -10t-10 -36h-28q1 43 19 64.5t46 21.5q23 0 61.5 -24.5t51.5 -24.5q17 0 25.5 10t9.5 36h28z" />
    <glyph glyph-name="Odieresissmall" unicode="&#xf7f6;" horiz-adv-x="532" 
d="M493 217q0 -99 -64.5 -163.5t-162.5 -64.5t-162.5 64.5t-64.5 163.5t64.5 163t162.5 64t162.5 -64t64.5 -163zM439 217q0 80 -49 129.5t-124 49.5q-76 0 -124.5 -49.5t-48.5 -129.5q0 -81 48.5 -130.5t124.5 -49.5q75 0 124 49.5t49 130.5zM373 502h-57v57h57v-57z
M216 502h-57v57h57v-57z" />
    <glyph glyph-name="Oslashsmall" unicode="&#xf7f8;" horiz-adv-x="532" 
d="M368 365l-186 -309q40 -19 84 -19q75 0 124 49.5t49 130.5q0 98 -71 148zM163 68l186 309q-38 19 -83 19q-76 0 -124.5 -49.5t-48.5 -129.5q0 -99 70 -149zM138 25q-46 30 -72.5 80.5t-26.5 111.5q0 99 64.5 163t162.5 64q60 0 108 -25l29 48l20 -11l-30 -48
q100 -66 100 -191q0 -99 -64.5 -163.5t-162.5 -64.5q-60 0 -108 25l-29 -48l-20 11z" />
    <glyph glyph-name="Ugravesmall" unicode="&#xf7f9;" horiz-adv-x="493" 
d="M433 201q0 -106 -50 -159t-137 -53q-86 0 -136 53t-50 159v232h53v-233q0 -82 35.5 -123t98.5 -41t98 41t35 123v233h53v-232zM310 509l-12 -17l-139 80l28 40z" />
    <glyph glyph-name="Uacutesmall" unicode="&#xf7fa;" horiz-adv-x="493" 
d="M433 201q0 -106 -50 -159t-137 -53q-86 0 -136 53t-50 159v232h53v-233q0 -82 35.5 -123t98.5 -41t98 41t35 123v233h53v-232zM184 509l123 103l28 -40l-139 -80z" />
    <glyph glyph-name="Ucircumflexsmall" unicode="&#xf7fb;" horiz-adv-x="493" 
d="M433 201q0 -106 -50 -159t-137 -53q-86 0 -136 53t-50 159v232h53v-233q0 -82 35.5 -123t98.5 -41t98 41t35 123v233h53v-232zM360 518l-22 -22l-91 86l-91 -86l-22 22l113 114z" />
    <glyph glyph-name="Udieresissmall" unicode="&#xf7fc;" horiz-adv-x="493" 
d="M433 201q0 -106 -50 -159t-137 -53q-86 0 -136 53t-50 159v232h53v-233q0 -82 35.5 -123t98.5 -41t98 41t35 123v233h53v-232zM354 502h-57v57h57v-57zM197 502h-57v57h57v-57z" />
    <glyph glyph-name="Yacutesmall" unicode="&#xf7fd;" horiz-adv-x="421" 
d="M403 433l-166 -259v-174h-53v174l-166 259h59l135 -214l135 214h56zM149 509l123 103l28 -40l-139 -80z" />
    <glyph glyph-name="Thornsmall" unicode="&#xf7fe;" horiz-adv-x="364" 
d="M113 90v-90h-53v433h53v-79h90q69 0 104.5 -38t35.5 -95q0 -56 -35.5 -93.5t-104.5 -37.5h-90zM289 221q0 38 -21 62.5t-68 24.5h-87v-172h87q47 0 68 24t21 61z" />
    <glyph glyph-name="Ydieresissmall" unicode="&#xf7ff;" horiz-adv-x="421" 
d="M403 433l-166 -259v-174h-53v174l-166 259h59l135 -214l135 214h56zM319 502h-57v57h57v-57zM162 502h-57v57h57v-57z" />
    <glyph glyph-name="Qsmall.alt" horiz-adv-x="532" 
d="M514 -96q-35 -53 -100 -53q-74 0 -120 85l-29 53q-97 0 -161.5 64.5t-64.5 163.5t64.5 163t162.5 64t162.5 -64t64.5 -163q0 -85 -48 -145.5t-126 -76.5l24 -42q19 -32 37.5 -44.5t45.5 -12.5q38 0 67 34zM439 217q0 80 -49 129.5t-124 49.5q-76 0 -124.5 -49.5
t-48.5 -129.5q0 -81 48.5 -130.5t124.5 -49.5q75 0 124 49.5t49 130.5z" />
    <glyph glyph-name="Qsmall.alt2" horiz-adv-x="532" 
d="M493 217q0 -69 -33 -123.5t-89 -81.5l82 -109h-63l-68 92q-27 -6 -56 -6q-98 0 -162.5 64.5t-64.5 163.5t64.5 163t162.5 64t162.5 -64t64.5 -163zM439 217q0 80 -49 129.5t-124 49.5q-76 0 -124.5 -49.5t-48.5 -129.5q0 -81 48.5 -130.5t124.5 -49.5q75 0 124 49.5
t49 130.5z" />
    <glyph glyph-name="dotlessi.small" horiz-adv-x="173" 
d="M113 0h-53v433h53v-433z" />
    <glyph glyph-name="germandbls.small" horiz-adv-x="728" 
d="M326 118q0 -61 -43 -94t-102 -33q-92 0 -144 50l12 52q57 -55 132 -55q40 0 66 19.5t26 54.5q0 34 -22.5 55.5t-80.5 37.5q-59 15 -90 48t-31 78q0 47 38.5 79t100.5 32q68 0 116 -38l-11 -45q-54 36 -105 36q-41 0 -63.5 -16.5t-22.5 -46.5q0 -56 88 -78
q136 -36 136 -136zM690 118q0 -61 -43 -94t-102 -33q-92 0 -144 50l12 52q57 -55 132 -55q40 0 66 19.5t26 54.5q0 34 -22.5 55.5t-80.5 37.5q-59 15 -90 48t-31 78q0 47 38.5 79t100.5 32q68 0 116 -38l-11 -45q-54 36 -105 36q-41 0 -63.5 -16.5t-22.5 -46.5q0 -56 88 -78
q136 -36 136 -136z" />
    <glyph glyph-name="zero.oprp" horiz-adv-x="545" 
d="M499 216q0 -100 -65.5 -165t-160.5 -65q-96 0 -161 65t-65 165t65.5 165t160.5 65t160.5 -65.5t65.5 -164.5zM444 216q0 82 -49 132t-122 50q-74 0 -122.5 -50t-48.5 -132t48.5 -132t122.5 -50t122.5 50t48.5 132z" />
    <glyph glyph-name="one.oprp" horiz-adv-x="252" 
d="M105 373h-64v40l117 29v-442h-53v373z" />
    <glyph glyph-name="two.oprp" horiz-adv-x="463" 
d="M407 0h-359v39l166 116q66 46 94.5 78t28.5 74q0 47 -32 68.5t-83 21.5q-87 0 -160 -58v54q26 21 71.5 37t89.5 16q75 0 122.5 -36.5t47.5 -97.5q0 -93 -113 -166l-149 -97h276v-49z" />
    <glyph glyph-name="three.oprp" horiz-adv-x="465" 
d="M50 -146v52q69 -58 159 -58q69 0 111 39.5t42 110.5q0 64 -37.5 103t-103.5 39q-50 0 -91 -36l-24 27l226 252h-280v49h356v-31l-195 -217q86 6 144 -46t58 -141q0 -90 -58.5 -144t-146.5 -54q-46 0 -89.5 15.5t-70.5 39.5z" />
    <glyph glyph-name="four.oprp" horiz-adv-x="511" 
d="M321 0h-289v35l312 409h30v-399h109v-45h-109v-195h-53v195zM321 45v301l-229 -301h229z" />
    <glyph glyph-name="five.oprp" horiz-adv-x="456" 
d="M50 -146v52q67 -58 159 -58q68 0 110.5 40.5t42.5 110.5q0 64 -36 102.5t-101 38.5q-80 0 -125 -75l-29 12v355h320v-49h-270v-240q46 43 116 43q75 0 126.5 -50.5t51.5 -136.5q0 -90 -58.5 -145t-146.5 -55q-46 0 -89.5 15.5t-70.5 39.5z" />
    <glyph glyph-name="six.oprp" horiz-adv-x="501" 
d="M457 179q0 -84 -57 -139t-139 -55q-38 0 -71.5 13t-65.5 42.5t-50.5 87.5t-18.5 138q0 164 62.5 256.5t182.5 92.5q79 0 124 -34v-53q-57 38 -123 38q-186 0 -194 -283q19 40 63 67t101 27q81 0 133.5 -55t52.5 -143zM403 179q0 68 -38 110t-104 42q-59 0 -102.5 -39.5
t-43.5 -100.5q0 -72 41 -116t101 -44q65 0 105.5 40.5t40.5 107.5z" />
    <glyph glyph-name="seven.oprp" horiz-adv-x="431" 
d="M334 383h-313v49h378v-31q-49 -74 -132 -269t-106 -327h-61q30 131 112 324t122 254z" />
    <glyph glyph-name="eight.oprp" horiz-adv-x="520" 
d="M471 160q0 -76 -61.5 -125.5t-149.5 -49.5t-149.5 49.5t-61.5 125.5q0 67 39 112t102 61q-50 16 -78 52.5t-28 85.5q0 62 52.5 103t123.5 41t123 -41t52 -103q0 -49 -27 -85.5t-77 -52.5q63 -16 101.5 -61t38.5 -112zM380 463q0 48 -35 77.5t-85 29.5q-51 0 -86 -29.5
t-35 -77.5q0 -45 36 -77t85 -32q48 0 84 32t36 77zM415 168q0 62 -45 100t-110 38t-110 -38t-45 -100q0 -59 45 -97.5t110 -38.5q64 0 109.5 38.5t45.5 97.5z" />
    <glyph glyph-name="nine.oprp" horiz-adv-x="501" 
d="M44 251q0 84 57 139.5t139 55.5q38 0 71.5 -13.5t65.5 -43t50.5 -88t18.5 -138.5q0 -166 -63.5 -265t-181.5 -99q-79 0 -124 34v53q57 -38 123 -38q185 0 194 298q-19 -40 -63 -67t-101 -27q-81 0 -133.5 55.5t-52.5 143.5zM98 251q0 -68 38 -110.5t104 -42.5
q58 0 102 40t44 101q0 72 -41.5 116.5t-100.5 44.5q-64 0 -105 -41t-41 -108z" />
    <glyph glyph-name="zero.otab" horiz-adv-x="490" 
d="M450 216q0 -102 -58 -166t-147 -64q-90 0 -147.5 64t-57.5 166t57.5 166t147.5 64q89 0 147 -64.5t58 -165.5zM396 216q0 84 -43 133t-108 49q-66 0 -108.5 -49t-42.5 -133q0 -85 42.5 -133.5t108.5 -48.5q65 0 108 49t43 133z" />
    <glyph glyph-name="one.otab" horiz-adv-x="490" 
d="M222 373h-63v40l118 29v-442h-55v373z" />
    <glyph glyph-name="two.otab" horiz-adv-x="490" 
d="M420 0h-359v39l166 116q66 46 94.5 78t28.5 74q0 47 -32 68.5t-83 21.5q-87 0 -160 -58v54q26 21 71.5 37t89.5 16q75 0 122.5 -36.5t47.5 -97.5q0 -93 -113 -166l-149 -97h276v-49z" />
    <glyph glyph-name="three.otab" horiz-adv-x="490" 
d="M63 -146v52q69 -58 159 -58q68 0 109.5 39.5t41.5 110.5q0 64 -36.5 103t-102.5 39q-50 0 -91 -36l-24 27l226 252h-280v49h356v-31l-195 -217q86 6 144 -46t58 -141q0 -90 -58.5 -144t-146.5 -54q-46 0 -89.5 15.5t-70.5 39.5z" />
    <glyph glyph-name="four.otab" horiz-adv-x="490" 
d="M311 0h-283v37l306 407h30v-395h103v-49h-103v-195h-53v195zM311 49v291l-219 -291h219z" />
    <glyph glyph-name="five.otab" horiz-adv-x="490" 
d="M67 -146v52q67 -58 159 -58q68 0 109.5 40.5t41.5 110.5q0 65 -35 103t-100 38q-80 0 -125 -75l-29 12v355h320v-49h-270v-240q46 43 116 43q75 0 126.5 -50.5t51.5 -136.5q0 -90 -58.5 -145t-146.5 -55q-46 0 -89.5 15.5t-70.5 39.5z" />
    <glyph glyph-name="six.otab" horiz-adv-x="490" 
d="M452 179q0 -84 -57 -139t-139 -55q-38 0 -71.5 13t-65.5 42.5t-50.5 87.5t-18.5 138q0 164 62.5 256.5t182.5 92.5q79 0 124 -34v-53q-57 38 -123 38q-186 0 -194 -283q19 40 63 67t101 27q81 0 133.5 -55t52.5 -143zM398 179q0 68 -38 110t-104 42q-58 0 -102 -39.5
t-44 -100.5q0 -72 41 -116t101 -44q65 0 105.5 40.5t40.5 107.5z" />
    <glyph glyph-name="seven.otab" horiz-adv-x="490" 
d="M363 383h-313v49h378v-31q-49 -74 -132 -269t-106 -327h-61q30 131 112 324t122 254z" />
    <glyph glyph-name="eight.otab" horiz-adv-x="490" 
d="M449 162q0 -77 -59 -127t-144 -50t-144 50t-59 127q0 66 39 110t101 60q-49 16 -77 52.5t-28 85.5q0 63 49.5 104t118.5 41q68 0 117.5 -41t49.5 -104q0 -49 -28 -85.5t-78 -52.5q63 -16 102.5 -60t39.5 -110zM358 464q0 50 -31 78t-81 28q-51 0 -82 -28t-31 -78
q0 -47 32 -78.5t81 -31.5q48 0 80 31.5t32 78.5zM393 167q0 64 -42 101.5t-105 37.5q-64 0 -105.5 -37.5t-41.5 -101.5q0 -61 41.5 -98t105.5 -37q63 0 105 37.5t42 97.5z" />
    <glyph glyph-name="nine.otab" horiz-adv-x="490" 
d="M38 251q0 84 57 139.5t139 55.5q38 0 71.5 -13.5t65.5 -43t50.5 -88t18.5 -138.5q0 -166 -63.5 -265t-181.5 -99q-79 0 -124 34v53q57 -38 123 -38q185 0 194 298q-19 -40 -63 -67t-101 -27q-81 0 -133.5 55.5t-52.5 143.5zM92 251q0 -68 38 -110.5t104 -42.5
q58 0 102 40t44 101q0 72 -41.5 116.5t-100.5 44.5q-64 0 -105 -41t-41 -108z" />
    <glyph glyph-name="zero.ltab" horiz-adv-x="488" 
d="M446 300q0 -147 -54.5 -231t-146.5 -84t-147 84t-55 231t55 231t147 84t146.5 -84t54.5 -231zM391 300q0 127 -39 196.5t-107 69.5t-107.5 -69.5t-39.5 -196.5t39.5 -196.5t107.5 -69.5t107 69.5t39 196.5z" />
    <glyph glyph-name="one.ltab" horiz-adv-x="488" 
d="M221 540h-63v40l118 29v-609h-55v540z" />
    <glyph glyph-name="two.ltab" horiz-adv-x="488" 
d="M57 44l169 180q38 40 58.5 65t41 67.5t20.5 82.5q0 68 -36 97.5t-91 29.5q-72 0 -147 -58v52q24 21 67 38t82 17q80 0 130.5 -45t50.5 -125q0 -48 -23 -97t-42.5 -73t-51.5 -57l-163 -169h293v-49h-358v44z" />
    <glyph glyph-name="three.ltab" horiz-adv-x="488" 
d="M62 40v52q69 -58 159 -58q68 0 109.5 39.5t41.5 110.5q0 64 -36.5 103t-102.5 39q-50 0 -91 -36l-25 28l225 233h-278v49h356v-31l-195 -199q86 6 144 -46t58 -141q0 -90 -58.5 -144t-146.5 -54q-46 0 -89.5 15.5t-70.5 39.5z" />
    <glyph glyph-name="four.ltab" horiz-adv-x="488" 
d="M310 156h-283v37l306 415h30v-403h103v-49h-103v-156h-53v156zM310 205v298l-220 -298h220z" />
    <glyph glyph-name="five.ltab" horiz-adv-x="488" 
d="M66 40v52q67 -58 159 -58q68 0 109.5 40.5t41.5 110.5q0 65 -35 103t-100 38q-80 0 -125 -75l-29 12v337h320v-49h-270v-222q46 43 116 43q75 0 126.5 -50.5t51.5 -136.5q0 -90 -58.5 -145t-146.5 -55q-46 0 -89.5 15.5t-70.5 39.5z" />
    <glyph glyph-name="six.ltab" horiz-adv-x="490" 
d="M452 179q0 -84 -57 -139t-139 -55q-38 0 -71.5 13t-65.5 42.5t-50.5 87.5t-18.5 138q0 164 62.5 256.5t182.5 92.5q79 0 124 -34v-53q-57 38 -123 38q-186 0 -194 -283q19 40 63 67t101 27q81 0 133.5 -55t52.5 -143zM398 179q0 68 -38 110t-104 42q-58 0 -102 -39.5
t-44 -100.5q0 -72 41 -116t101 -44q65 0 105.5 40.5t40.5 107.5z" />
    <glyph glyph-name="seven.ltab" horiz-adv-x="488" 
d="M362 551h-313v49h378v-31q-53 -81 -134 -260t-104 -309h-61q29 129 109.5 306.5t124.5 244.5z" />
    <glyph glyph-name="eight.ltab" horiz-adv-x="490" 
d="M449 162q0 -77 -59 -127t-144 -50t-144 50t-59 127q0 66 39 110t101 60q-49 16 -77 52.5t-28 85.5q0 63 49.5 104t118.5 41q68 0 117.5 -41t49.5 -104q0 -49 -28 -85.5t-78 -52.5q63 -16 102.5 -60t39.5 -110zM358 464q0 50 -31 78t-81 28q-51 0 -82 -28t-31 -78
q0 -47 32 -78.5t81 -31.5q48 0 80 31.5t32 78.5zM393 167q0 64 -42 101.5t-105 37.5q-64 0 -105.5 -37.5t-41.5 -101.5q0 -61 41.5 -98t105.5 -37q63 0 105 37.5t42 97.5z" />
    <glyph glyph-name="nine.ltab" horiz-adv-x="490" 
d="M38 421q0 84 57 139t139 55q38 0 71.5 -13t65.5 -42.5t50.5 -87.5t18.5 -138q0 -164 -62.5 -256.5t-182.5 -92.5q-79 0 -124 34v53q57 -38 123 -38q186 0 194 283q-19 -40 -63 -67t-101 -27q-81 0 -133.5 55t-52.5 143zM92 421q0 -68 38 -110t104 -42q58 0 102 39.5
t44 100.5q0 72 -41 116t-101 44q-65 0 -105.5 -40.5t-40.5 -107.5z" />
    <glyph glyph-name="zero.nfra" horiz-adv-x="326" 
d="M288 441q0 -78 -35 -124t-90 -46t-90 46t-35 124t35 123.5t90 45.5t90 -45.5t35 -123.5zM240 441q0 64 -21.5 97.5t-55.5 33.5q-35 0 -56 -33.5t-21 -97.5q0 -65 21 -98.5t56 -33.5q34 0 55.5 34t21.5 98z" />
    <glyph glyph-name="one.nfra" horiz-adv-x="179" 
d="M116 280h-46v283h-34v28l80 16v-327z" />
    <glyph glyph-name="two.nfra" horiz-adv-x="265" 
d="M228 280h-199v24l87 95q59 63 59 111q0 31 -17 46t-42 15q-40 0 -80 -32v40q38 30 87 30q44 0 71.5 -25.5t27.5 -69.5q0 -58 -62 -120l-73 -75h141v-39z" />
    <glyph glyph-name="three.nfra" horiz-adv-x="278" 
d="M242 379q0 -49 -32.5 -78.5t-82.5 -29.5q-49 0 -90 30v41q40 -35 86 -35q32 0 52 19.5t20 53.5q0 30 -17 48t-47 18q-28 0 -46 -15l-17 21l111 109h-139v39h199v-24l-102 -100q47 3 76 -24.5t29 -72.5z" />
    <glyph glyph-name="four.nfra" horiz-adv-x="313" 
d="M283 363h-58v-83h-46v83h-149v22l158 219h37v-207h58v-34zM179 397v142l-104 -142h104z" />
    <glyph glyph-name="five.nfra" horiz-adv-x="276" 
d="M242 381q0 -50 -32.5 -80t-82.5 -30q-49 0 -90 30v41q40 -35 86 -35q33 0 52.5 20.5t19.5 53.5q0 31 -17 49t-46 18q-40 0 -62 -32l-21 10v174h178v-39h-140v-98q18 20 55 20q42 0 71 -28.5t29 -73.5z" />
    <glyph glyph-name="six.nfra" horiz-adv-x="300" 
d="M265 377q0 -46 -32 -76t-78 -30q-47 0 -81 34.5t-34 117.5q0 87 34.5 136.5t101.5 49.5q45 0 70 -19v-37q-28 20 -68 20q-87 0 -90 -124q10 16 31 25.5t43 9.5q46 0 74.5 -30t28.5 -77zM218 376q0 34 -17 54t-47 20q-23 0 -42.5 -15t-24.5 -42q1 -45 19 -67t47 -22
q30 0 47.5 20t17.5 52z" />
    <glyph glyph-name="seven.nfra" horiz-adv-x="265" 
d="M237 577q-27 -41 -68 -134.5t-53 -162.5h-48q13 68 53.5 156t65.5 125h-161v39h211v-23z" />
    <glyph glyph-name="eight.nfra" 
d="M272 366q0 -42 -33 -68.5t-84 -26.5t-84.5 26.5t-33.5 68.5q0 33 22.5 57t57.5 35q-28 10 -44.5 29.5t-16.5 44.5q0 34 29 56t70 22t69.5 -22t28.5 -56q0 -25 -16.5 -44.5t-44.5 -29.5q35 -11 57.5 -35t22.5 -57zM211 528q0 24 -15.5 38t-40.5 14q-26 0 -41.5 -14
t-15.5 -38q0 -21 15.5 -36.5t41.5 -18.5q25 3 40.5 18.5t15.5 36.5zM226 370q0 29 -19.5 47.5t-51.5 22.5q-33 -4 -52.5 -22.5t-19.5 -47.5q0 -30 19.5 -48.5t52.5 -18.5q32 0 51.5 18.5t19.5 48.5z" />
    <glyph glyph-name="nine.nfra" horiz-adv-x="300" 
d="M260 458q0 -87 -34 -136.5t-101 -49.5q-44 0 -71 19v37q30 -20 69 -20q87 0 90 124q-24 -35 -75 -35q-45 0 -73.5 30t-28.5 77t31.5 76.5t78.5 29.5q46 0 80 -34.5t34 -117.5zM214 488q-1 45 -19.5 67t-46.5 22q-30 0 -47.5 -19.5t-17.5 -52.5q0 -34 16.5 -54t47.5 -20
q23 0 42 14.5t25 42.5z" />
    <glyph glyph-name="zero.dfra" horiz-adv-x="326" 
d="M288 161q0 -78 -35 -124t-90 -46t-90 46t-35 124t35 123.5t90 45.5t90 -45.5t35 -123.5zM240 161q0 64 -21.5 97.5t-55.5 33.5q-35 0 -56 -33.5t-21 -97.5q0 -65 21 -98.5t56 -33.5q34 0 55.5 34t21.5 98z" />
    <glyph glyph-name="one.dfra" horiz-adv-x="179" 
d="M116 0h-46v283h-34v28l80 16v-327z" />
    <glyph glyph-name="two.dfra" horiz-adv-x="265" 
d="M228 0h-199v24l87 95q59 63 59 111q0 31 -17 46t-42 15q-40 0 -80 -32v40q38 30 87 30q44 0 71.5 -25.5t27.5 -69.5q0 -60 -62 -120l-73 -75h141v-39z" />
    <glyph glyph-name="three.dfra" horiz-adv-x="278" 
d="M242 99q0 -49 -32.5 -78.5t-82.5 -29.5q-49 0 -90 30v41q40 -35 86 -35q32 0 52 19.5t20 53.5q0 30 -17 48t-47 18q-28 0 -46 -15l-17 21l111 109h-139v39h199v-24l-102 -100q47 3 76 -24.5t29 -72.5z" />
    <glyph glyph-name="four.dfra" horiz-adv-x="313" 
d="M283 83h-58v-83h-46v83h-149v22l158 219h37v-207h58v-34zM179 117v142l-104 -142h104z" />
    <glyph glyph-name="five.dfra" horiz-adv-x="276" 
d="M242 101q0 -50 -32.5 -80t-82.5 -30q-49 0 -90 30v41q40 -35 86 -35q33 0 52.5 20.5t19.5 53.5q0 31 -17 49t-46 18q-40 0 -62 -32l-21 10v174h178v-39h-140v-98q18 20 55 20q42 0 71 -28.5t29 -73.5z" />
    <glyph glyph-name="six.dfra" horiz-adv-x="300" 
d="M265 97q0 -46 -32 -76t-78 -30q-47 0 -81 34.5t-34 117.5q0 87 34.5 136.5t101.5 49.5q45 0 70 -19v-37q-28 20 -68 20q-87 0 -90 -124q10 16 31 25.5t43 9.5q46 0 74.5 -30t28.5 -77zM218 96q0 34 -17 54t-47 20q-23 0 -42.5 -15t-24.5 -42q1 -45 19 -67t47 -22
q30 0 47.5 20t17.5 52z" />
    <glyph glyph-name="seven.dfra" horiz-adv-x="265" 
d="M237 297q-27 -41 -68 -134.5t-53 -162.5h-48q13 68 53.5 156t65.5 125h-161v39h211v-23z" />
    <glyph glyph-name="eight.dfra" 
d="M272 86q0 -42 -33 -68.5t-84 -26.5t-84.5 26.5t-33.5 68.5q0 33 22.5 57t57.5 35q-28 10 -44.5 29.5t-16.5 44.5q0 34 29 56t70 22t69.5 -22t28.5 -56q0 -25 -16.5 -44.5t-44.5 -29.5q35 -11 57.5 -35t22.5 -57zM211 248q0 24 -15.5 38t-40.5 14q-26 0 -41.5 -14
t-15.5 -38q0 -21 15.5 -36.5t41.5 -18.5q25 3 40.5 18.5t15.5 36.5zM226 90q0 29 -19.5 47.5t-51.5 22.5q-33 -4 -52.5 -22.5t-19.5 -47.5q0 -30 19.5 -48.5t52.5 -18.5q32 0 51.5 18.5t19.5 48.5z" />
    <glyph glyph-name="nine.dfra" horiz-adv-x="300" 
d="M260 178q0 -87 -34 -136.5t-101 -49.5q-44 0 -71 19v37q30 -20 69 -20q87 0 90 124q-24 -35 -75 -35q-45 0 -73.5 30t-28.5 77t31.5 76.5t78.5 29.5q46 0 80 -34.5t34 -117.5zM214 208q-1 45 -19.5 67t-46.5 22q-30 0 -47.5 -19.5t-17.5 -52.5q0 -34 16.5 -54t47.5 -20
q23 0 42 14.5t25 42.5z" />
    <glyph glyph-name="questiondown.caps" horiz-adv-x="415" 
d="M278 319l-43 -20q-83 -38 -114 -75.5t-31 -85.5q0 -51 37 -77t98 -26q39 0 84.5 18t78.5 47v-52q-28 -26 -75.5 -44t-93.5 -18q-77 0 -131 38.5t-54 110.5q0 63 41 107.5t112 79.5l43 21l7 97h35zM287 530h-66v66h66v-66z" />
    <glyph glyph-name="exclamdown.caps" horiz-adv-x="220" 
d="M143 0h-67l16 437h35zM143 528h-66v66h66v-66z" />
    <glyph glyph-name="at.caps" horiz-adv-x="687" 
d="M657 352q0 -95 -60 -170t-125 -75q-55 0 -66 53q-16 -24 -42.5 -40.5t-55.5 -16.5q-61 0 -89 53t-14 130q13 76 67 129t116 53q33 0 64 -16l41 -1l-44 -250q-11 -64 39 -64q47 0 91 65t44 148q0 101 -69.5 165.5t-170.5 64.5q-126 0 -215.5 -93t-89.5 -221
q0 -123 80.5 -201t197.5 -78q112 0 214 66l11 -21q-104 -74 -230 -74q-134 0 -227 88.5t-93 217.5q0 144 102.5 247.5t246.5 103.5q118 0 197.5 -73.5t79.5 -189.5zM446 415q-27 21 -59 21q-48 0 -87 -43.5t-50 -107.5q-12 -65 6.5 -105.5t64.5 -40.5q30 0 58 26.5t34 60.5z
" />
    <glyph glyph-name="zero.small" horiz-adv-x="420" 
d="M375 217q0 -105 -46.5 -166.5t-118.5 -61.5q-71 0 -118 62t-47 166t47 165.5t118 61.5q72 0 118.5 -61t46.5 -166zM322 217q0 86 -31 134.5t-81 48.5q-51 0 -81.5 -48t-30.5 -135t30.5 -135.5t81.5 -48.5q50 0 81 48.5t31 135.5z" />
    <glyph glyph-name="one.small" horiz-adv-x="215" 
d="M137 0h-53v383h-46v36l99 22v-441z" />
    <glyph glyph-name="two.small" horiz-adv-x="346" 
d="M301 0h-269v37l122 126q27 28 41.5 45.5t29 47t14.5 57.5q0 85 -86 85q-56 0 -110 -43v47q17 16 50.5 29t63.5 13q59 0 97 -33.5t38 -91.5q0 -78 -86 -164l-109 -109h204v-46z" />
    <glyph glyph-name="three.small" horiz-adv-x="363" 
d="M319 133q0 -65 -43.5 -104.5t-109.5 -39.5q-77 0 -121 41v49q50 -45 118 -45q47 0 75.5 26.5t28.5 74.5q0 42 -24.5 67.5t-69.5 25.5q-39 0 -68 -26l-23 28l152 157h-188v46h267v-27l-136 -137q61 2 101.5 -35t40.5 -101z" />
    <glyph glyph-name="four.small" horiz-adv-x="398" 
d="M369 111h-77v-111h-53v111h-208v31l226 297h35v-285h77v-43zM239 154v197l-150 -197h150z" />
    <glyph glyph-name="five.small" horiz-adv-x="359" 
d="M321 136q0 -66 -44.5 -106.5t-110.5 -40.5q-77 0 -121 41v49q49 -45 118 -45q47 0 76.5 27.5t29.5 74.5q0 43 -24 68.5t-69 25.5q-59 0 -88 -53l-28 13v243h243v-46h-196v-143q29 29 81 29q57 0 95 -37t38 -100z" />
    <glyph glyph-name="six.small" horiz-adv-x="389" 
d="M349 131q0 -61 -42.5 -101.5t-104.5 -40.5q-28 0 -53 9t-49 30t-38 63t-14 101q0 118 46.5 185t135.5 67q58 0 94 -26v-47q-43 28 -92 28q-128 0 -134 -184q15 26 45.5 43t69.5 17q60 0 98 -40t38 -104zM202 233q-39 0 -69 -26.5t-30 -66.5q0 -50 28 -79.5t68 -29.5
q44 0 71 27t27 73t-25 74t-70 28z" />
    <glyph glyph-name="seven.small" horiz-adv-x="340" 
d="M308 406q-37 -54 -95.5 -183.5t-74.5 -222.5h-58q20 91 77.5 215.5t89.5 171.5h-223v46h284v-27z" />
    <glyph glyph-name="eight.small" horiz-adv-x="404" 
d="M359 116q0 -56 -45.5 -91.5t-111.5 -35.5t-111.5 35.5t-45.5 91.5q0 47 27.5 79.5t72.5 44.5q-35 13 -54.5 39.5t-19.5 60.5q0 45 38.5 74.5t92.5 29.5q53 0 92 -29.5t39 -74.5q0 -74 -74 -100q45 -12 72.5 -44.5t27.5 -79.5zM283 334q0 33 -23 51.5t-58 18.5t-58 -18.5
t-23 -51.5q0 -30 24 -51.5t57 -21.5t57 21.5t24 51.5zM308 123q0 42 -31 67.5t-75 25.5q-45 0 -75 -25.5t-30 -67.5q0 -41 30 -67t75 -26q44 0 75 26t31 67z" />
    <glyph glyph-name="nine.small" horiz-adv-x="389" 
d="M40 302q0 61 42.5 101.5t104.5 40.5q28 0 53 -9t49 -30t38 -63t14 -101q0 -118 -46.5 -185t-135.5 -67q-58 0 -94 26v47q43 -28 92 -28q128 0 134 184q-15 -26 -45.5 -43t-69.5 -17q-60 0 -98 40t-38 104zM187 200q39 0 69 26.5t30 66.5q0 50 -28 79.5t-68 29.5
q-44 0 -71 -27t-27 -73t25 -74t70 -28z" />
    <glyph glyph-name="onequarter.small" horiz-adv-x="444" 
d="M345 435l-265 -450l-25 13l265 450zM113 202h-41v200l-25 -2v26l66 12v-236zM401 57h-43v-57h-41v57h-107v20l114 156h34v-146h43v-30zM317 87v94l-69 -94h69z" />
    <glyph glyph-name="onehalf.small" horiz-adv-x="447" 
d="M399 0h-150v21l61 65q42 46 42 78q0 20 -11.5 30.5t-27.5 10.5q-30 0 -59 -25v35q30 22 67 22q32 0 53 -18.5t21 -50.5q0 -41 -46 -87l-49 -48h99v-33zM345 435l-265 -450l-25 13l265 450zM113 202h-41v200l-25 -2v26l66 12v-236z" />
    <glyph glyph-name="threequarters.small" horiz-adv-x="496" 
d="M202 275q0 -37 -24 -58t-62 -21q-40 0 -68 22v35q29 -27 63 -27q22 0 35.5 13.5t13.5 35.5q0 20 -11.5 32t-31.5 12q-17 0 -33 -12l-15 19l77 74h-97v33h150v-21l-70 -67q35 -1 54 -20t19 -50zM399 435l-265 -450l-25 13l265 450zM452 57h-43v-57h-41v57h-107v20l114 156
h34v-146h43v-30zM368 87v94l-69 -94h69z" />
    <glyph glyph-name="periodcentered.small" horiz-adv-x="210" 
d="M138 192h-66v66h66v-66z" />
    <glyph glyph-name="endash.allsmall" horiz-adv-x="384" 
d="M385 206h-386v37h386v-37z" />
    <glyph glyph-name="emdash.allsmall" horiz-adv-x="626" 
d="M627 206h-628v37h628v-37z" />
    <glyph glyph-name="at.small" horiz-adv-x="561" 
d="M531 236q0 -75 -48 -134.5t-100 -59.5q-43 0 -53 41q-29 -44 -78 -44q-48 0 -71 42t-11 103q10 60 53 102t93 42q26 0 51 -13h38l-35 -196q-9 -49 29 -49q35 0 67.5 50t32.5 115q0 78 -54.5 127.5t-132.5 49.5q-99 0 -168.5 -70.5t-69.5 -172.5q0 -100 62 -159t155 -59
q89 0 170 52l9 -19q-83 -59 -183 -59q-108 0 -182 68.5t-74 172.5q0 118 81.5 198t197.5 80q94 0 157.5 -58t63.5 -150zM361 281q-20 18 -46 18q-36 0 -65 -33t-38 -82q-9 -50 4.5 -81t48.5 -31q24 0 45.5 21t26.5 50z" />
    <glyph glyph-name="asciitilde.small" horiz-adv-x="425" 
d="M286 169q-23 0 -77.5 35.5t-75.5 35.5q-19 0 -27.5 -15t-14.5 -49h-26q0 53 20.5 81t53.5 28q23 0 78 -35.5t76 -35.5q18 0 26.5 15t14.5 49h26q-3 -109 -74 -109z" />
    <glyph glyph-name="dollar.allsmall" horiz-adv-x="360" 
d="M321 121q0 -54 -35 -86t-88 -36v-59h-31v59q-82 4 -129 49l11 44q48 -46 118 -53v167q-118 33 -118 119q0 44 32 74.5t86 34.5v59h31v-59q59 -4 102 -37l-11 -38q-44 28 -91 34v-145q63 -18 93 -48t30 -79zM167 257v137q-34 -3 -52.5 -21t-18.5 -47q0 -46 71 -69z
M274 117q0 29 -17 48t-59 33v-159q34 4 55 25t21 53z" />
    <glyph glyph-name="cent.allsmall" horiz-adv-x="371" 
d="M325 78q-42 -29 -98 -32v-84h-31v84q-66 7 -108 53t-42 116t42.5 116t107.5 52v84h31v-84q56 -3 98 -32v-46q-37 32 -98 34v-249q61 4 98 34v-46zM196 92v246q-44 -8 -71.5 -40.5t-27.5 -82.5q0 -51 27.5 -83t71.5 -40z" />
    <glyph glyph-name="Euro.allsmall" horiz-adv-x="389" 
d="M347 17q-39 -28 -97 -28q-68 0 -113 45t-58 124h-44v29h41q-1 10 -1 31q0 20 1 29h-41v29h44q11 80 56 124t115 44q55 0 97 -27v-49q-37 31 -94 31q-103 0 -121 -123h128v-29h-130q-2 -9 -2 -29q0 -21 2 -31h130v-29h-128q20 -124 121 -124q53 0 94 31v-48z" />
    <glyph glyph-name="sterling.allsmall" horiz-adv-x="390" 
d="M341 0h-310v46q44 0 56.5 17t12.5 74v65h-58v36h58v31q0 175 140 175q44 0 84 -25v-47q-40 29 -84 29q-43 0 -65.5 -28.5t-22.5 -103.5v-31h113v-36h-113v-33q0 -100 -43 -123h232v-46z" />
    <glyph glyph-name="yen.allsmall" horiz-adv-x="421" 
d="M403 433l-149 -232h71v-31h-88v-46h88v-31h-88v-93h-53v93h-88v31h88v46h-88v31h70l-148 232h59l135 -214l135 214h56z" />
    <glyph glyph-name="percent.allsmall" horiz-adv-x="504" 
d="M231 337q0 -46 -26.5 -76t-65.5 -30t-65.5 30t-26.5 76q0 47 26.5 76.5t65.5 29.5t65.5 -29.5t26.5 -76.5zM273 97q0 46 26.5 76t65.5 30t65.5 -30t26.5 -76q0 -47 -26.5 -76.5t-65.5 -29.5t-65.5 29.5t-26.5 76.5zM402 434l-275 -448l-25 13l275 448zM192 337
q0 33 -15 52.5t-38 19.5q-24 0 -38.5 -19.5t-14.5 -52.5t14.5 -52.5t38.5 -19.5q23 0 38 19.5t15 52.5zM312 97q0 -33 15 -52.5t38 -19.5q24 0 38.5 19.5t14.5 52.5t-14.5 52.5t-38.5 19.5q-23 0 -38 -19.5t-15 -52.5z" />
    <glyph glyph-name="perthousand.allsmall" horiz-adv-x="731" 
d="M231 337q0 -46 -26.5 -76t-65.5 -30t-65.5 30t-26.5 76q0 47 26.5 76.5t65.5 29.5t65.5 -29.5t26.5 -76.5zM500 97q0 46 26.5 76t65.5 30t65.5 -30t26.5 -76q0 -47 -26.5 -76.5t-65.5 -29.5t-65.5 29.5t-26.5 76.5zM402 434l-275 -448l-25 13l275 448zM192 337
q0 33 -15 52.5t-38 19.5q-24 0 -38.5 -19.5t-14.5 -52.5t14.5 -52.5t38.5 -19.5q23 0 38 19.5t15 52.5zM539 97q0 -33 15.5 -52.5t37.5 -19.5q24 0 38.5 19.5t14.5 52.5t-14.5 52.5t-38.5 19.5q-22 0 -37.5 -19.5t-15.5 -52.5zM273 97q0 46 26.5 76t65.5 30t65.5 -30
t26.5 -76q0 -47 -26.5 -76.5t-65.5 -29.5t-65.5 29.5t-26.5 76.5zM312 97q0 -33 15 -52.5t38 -19.5q24 0 38.5 19.5t14.5 52.5t-14.5 52.5t-38.5 19.5q-23 0 -38 -19.5t-15 -52.5z" />
    <glyph glyph-name="plus.allsmall" horiz-adv-x="421" 
d="M378 205h-148v-148h-39v148h-148v39h148v148h39v-148h148v-39z" />
    <glyph glyph-name="minus.allsmall" horiz-adv-x="421" 
d="M359 205h-297v39h297v-39z" />
    <glyph glyph-name="multiply.allsmall" horiz-adv-x="421" 
d="M330 78l-119 118l-119 -118l-28 27l119 119l-119 119l28 27l119 -118l119 118l27 -27l-119 -119l119 -119z" />
    <glyph glyph-name="divide.allsmall" horiz-adv-x="421" 
d="M369 205h-317v39h317v-39zM240 68h-58v58h58v-58zM240 323h-58v58h58v-58z" />
    <glyph glyph-name="equal.allsmall" horiz-adv-x="421" 
d="M345 276h-269v39h269v-39zM345 135h-269v39h269v-39z" />
    <glyph glyph-name="notequal.allsmall" horiz-adv-x="420" 
d="M345 135h-177l-67 -103l-22 16l57 87h-60v39h85l66 102h-151v39h176l67 103l22 -16l-57 -87h61v-39h-86l-66 -102h152v-39z" />
    <glyph glyph-name="approxequal.allsmall" horiz-adv-x="420" 
d="M343 151q-23 -33 -66 -33q-23 0 -69 16.5t-64 16.5q-17 0 -33.5 -8t-24.5 -16l-8 -8v38q23 33 66 33q23 0 69 -16.5t64 -16.5q17 0 33.5 8t24.5 16l8 8v-38zM343 292q-23 -33 -66 -33q-23 0 -69 16.5t-64 16.5q-17 0 -33.5 -8t-24.5 -16l-8 -8v38q23 33 66 33
q23 0 69 -16.5t64 -16.5q17 0 33.5 8t24.5 16l8 8v-38z" />
    <glyph glyph-name="less.allsmall" horiz-adv-x="425" 
d="M368 34l-19 -28l-291 219l291 218l19 -27l-246 -191z" />
    <glyph glyph-name="greater.allsmall" horiz-adv-x="425" 
d="M367 225l-292 -219l-18 28l246 191l-246 191l18 27z" />
    <glyph glyph-name="degree.allsmall" horiz-adv-x="328" 
d="M164 441q52 0 88.5 -36.5t36.5 -88.5t-36.5 -88t-88.5 -36t-88.5 36t-36.5 88t36.5 88.5t88.5 36.5zM164 406q-37 0 -63.5 -26.5t-26.5 -63.5t26.5 -63t63.5 -26t63.5 26t26.5 63t-26.5 63.5t-63.5 26.5z" />
    <glyph glyph-name="infinity.allsmall" horiz-adv-x="686" 
d="M523 349q55 0 90.5 -36.5t35.5 -89.5q0 -52 -35.5 -88.5t-90.5 -36.5q-72 0 -180 103q-110 -103 -179 -103q-56 0 -91.5 36.5t-35.5 88.5q0 54 35 90t92 36q68 0 179 -104q106 104 180 104zM614 223q0 39 -25.5 66t-64.5 27q-58 0 -155 -93q98 -93 155 -93q38 0 64 27.5
t26 65.5zM317 223q-100 93 -155 93q-38 0 -63.5 -27t-25.5 -66q0 -38 25.5 -65.5t63.5 -27.5q55 0 155 93z" />
    <glyph glyph-name="logicalnot.allsmall" horiz-adv-x="532" 
d="M434 75h-39v140h-319v39h358v-179z" />
    <glyph glyph-name="pi.allsmall" horiz-adv-x="489" 
d="M455 388h-61v-388h-53v388h-194v-388h-53v388h-60v45h421v-45z" />
    <glyph glyph-name="ordfeminine.allsmall" horiz-adv-x="402" 
d="M384 213h-51l-44 105h-177l-44 -105h-50l165 390h37zM271 361l-70 171l-70 -171h140z" />
    <glyph glyph-name="ordmasculine.allsmall" horiz-adv-x="479" 
d="M444 408q0 -89 -58.5 -147t-146.5 -58q-89 0 -146.5 58t-57.5 147t57.5 147t146.5 58q88 0 146.5 -58t58.5 -147zM394 408q0 72 -43.5 116t-111.5 44q-69 0 -111.5 -44t-42.5 -116q0 -73 42.5 -116.5t111.5 -43.5q68 0 111.5 44t43.5 116z" />
    <glyph glyph-name="question.allsmall" horiz-adv-x="329" 
d="M164 0h-66v66h66v-66zM295 334q0 -82 -114 -135l-29 -14l-6 -60h-31l-6 85l33 15q56 26 78 50.5t22 56.5q0 67 -91 67q-29 0 -63.5 -13.5t-58.5 -35.5v49q21 19 56.5 32t70.5 13q58 0 98.5 -28t40.5 -82z" />
    <glyph glyph-name="questiondown.allsmall" horiz-adv-x="329" 
d="M34 99q0 45 29.5 76.5t84.5 58.5l29 14l6 60h31l6 -84l-33 -15q-57 -26 -78.5 -51t-21.5 -57q0 -67 91 -67q29 0 63.5 13.5t58.5 35.5v-49q-21 -19 -56.5 -32t-70.5 -13q-58 0 -98.5 28t-40.5 82zM232 367h-66v66h66v-66z" />
    <glyph glyph-name="exclam.allsmall" horiz-adv-x="200" 
d="M67 433h67l-16 -308h-35zM133 0h-66v66h66v-66z" />
    <glyph glyph-name="exclamdown.allsmall" horiz-adv-x="200" 
d="M133 0h-67l16 308h35zM133 367h-66v66h66v-66z" />
    <glyph glyph-name="bullet.allsmall" horiz-adv-x="233" 
d="M116 329q28 0 47 -19t19 -47q0 -27 -19 -46t-47 -19q-27 0 -46 19t-19 46q0 28 19 47t46 19z" />
    <glyph glyph-name="asterisk.allsmall" horiz-adv-x="334" 
d="M176 275q4 -34 12 -65.5t8 -37.5q0 -35 -29 -35t-29 35q0 6 8 37t11 65q-28 -21 -50.5 -43.5t-27.5 -25.5q-31 -17 -45 8q-15 25 16 42q4 2 35.5 11t64.5 24q-33 14 -64.5 23t-36.5 12q-30 18 -16 43q15 25 45 7q5 -3 14 -12t26.5 -25t38.5 -32q-3 34 -11 65t-8 38
q0 35 29 35t29 -35q0 -6 -8 -37t-12 -67q28 21 51 43.5t28 25.5q31 17 45 -8q15 -25 -16 -42q-5 -3 -36 -12t-63 -22q31 -13 61.5 -21.5t36.5 -11.5q30 -18 16 -43q-15 -25 -45 -7q-4 3 -27 25t-51 43z" />
    <glyph glyph-name="quotesingle.allsmall" horiz-adv-x="204" 
d="M87 245l-15 188h60l-15 -188h-30z" />
    <glyph glyph-name="quotedbl.allsmall" horiz-adv-x="342" 
d="M87 245l-15 188h60l-15 -188h-30zM225 245l-15 188h60l-15 -188h-30z" />
    <glyph glyph-name="quoteleft.allsmall" horiz-adv-x="208" 
d="M70 312q0 46 19 79.5t53 44.5l12 -19q-47 -24 -47 -99h29v-66h-66v60z" />
    <glyph glyph-name="quoteright.allsmall" horiz-adv-x="208" 
d="M138 373q0 -46 -19 -79.5t-53 -44.5l-12 19q47 24 47 99h-29v66h66v-60z" />
    <glyph glyph-name="quotedblleft.allsmall" horiz-adv-x="346" 
d="M208 312q0 46 19 79.5t53 44.5l12 -19q-47 -24 -47 -99h29v-66h-66v60zM70 312q0 46 19 79.5t53 44.5l12 -19q-47 -24 -47 -99h29v-66h-66v60z" />
    <glyph glyph-name="quotedblright.allsmall" horiz-adv-x="346" 
d="M138 373q0 -46 -19 -79.5t-53 -44.5l-12 19q47 24 47 99h-29v66h66v-60zM276 373q0 -46 -19 -79.5t-53 -44.5l-12 19q47 24 47 99h-29v66h66v-60z" />
    <glyph glyph-name="guillemotleft.allsmall" horiz-adv-x="393" 
d="M343 362l17 -20l-117 -117l117 -117l-17 -20l-156 137zM248 66l-17 -20l-195 179l195 179l17 -20l-156 -159z" />
    <glyph glyph-name="guillemotright.allsmall" horiz-adv-x="393" 
d="M145 66l156 159l-156 159l17 20l195 -179l-195 -179zM50 362l156 -137l-156 -137l-17 20l117 117l-117 117z" />
    <glyph glyph-name="guilsinglleft.allsmall" horiz-adv-x="281" 
d="M250 67l-17 -20l-195 179l195 179l17 -20l-156 -159z" />
    <glyph glyph-name="guilsinglright.allsmall" horiz-adv-x="281" 
d="M31 67l156 159l-156 159l17 20l195 -179l-195 -179z" />
    <glyph glyph-name="parenleft.allsmall" horiz-adv-x="247" 
d="M66 213q0 92 37.5 169t99.5 132l15 -14q-40 -45 -74 -120t-34 -167t34 -167t74 -120l-15 -14q-63 54 -100 131t-37 170z" />
    <glyph glyph-name="parenright.allsmall" horiz-adv-x="247" 
d="M181 213q0 -93 -37 -170t-100 -131l-15 14q40 45 74 120t34 167t-34 167t-74 120l15 14q62 -55 99.5 -132t37.5 -169z" />
    <glyph glyph-name="bracketleft.allsmall" horiz-adv-x="244" 
d="M201 -72h-111v569h111v-30h-68v-509h68v-30z" />
    <glyph glyph-name="bracketright.allsmall" horiz-adv-x="244" 
d="M154 -72h-111v30h68v509h-68v30h111v-569z" />
    <glyph glyph-name="braceleft.allsmall" horiz-adv-x="247" 
d="M208 -68l-14 -18q-43 25 -56.5 55.5t-13.5 105.5q0 37 -5 61t-16.5 37.5t-21.5 19t-30 12.5v17q20 7 30 12.5t21.5 19t16.5 37.5t5 62q0 75 13.5 105.5t56.5 55.5l14 -18q-29 -20 -36 -46.5t-7 -96.5q0 -74 -18 -101.5t-59 -37.5q41 -11 59 -38.5t18 -101.5q0 -70 7 -96
t36 -46z" />
    <glyph glyph-name="braceright.allsmall" horiz-adv-x="247" 
d="M39 -68q29 20 36 46t7 96q0 74 18 101.5t59 38.5q-41 10 -59 37.5t-18 101.5q0 70 -7 96.5t-36 46.5l14 18q43 -25 56.5 -55.5t13.5 -105.5q0 -38 5 -62t16.5 -37.5t21.5 -19t30 -12.5v-17q-20 -7 -30 -12.5t-21.5 -19t-16.5 -37.5t-5 -61q0 -75 -13.5 -105.5
t-56.5 -55.5z" />
    <glyph glyph-name="slash.allsmall" horiz-adv-x="252" 
d="M244 440l-208 -457l-28 12l208 457z" />
    <glyph glyph-name="backslash.allsmall" horiz-adv-x="252" 
d="M8 440l28 12l208 -457l-28 -12z" />
    <glyph glyph-name="bar.allsmall" horiz-adv-x="180" 
d="M107 -69h-33v564h33v-564z" />
    <glyph glyph-name="ampersand.allsmall" horiz-adv-x="488" 
d="M479 29q-27 -40 -75 -40q-57 0 -102 39q-41 -39 -106 -39q-62 0 -105 32t-43 93q0 38 22 64.5t62 52.5q-37 63 -37 109q0 45 34.5 74.5t86.5 29.5q47 0 76.5 -24.5t29.5 -62.5q0 -14 -3 -26.5t-12.5 -24t-15.5 -19t-23 -18.5t-23 -14.5t-28 -16t-26 -14.5
q38 -56 108 -130q14 27 21 125h108v-39h-70q-6 -75 -29 -115q42 -39 87 -39q28 0 50 25zM273 357q0 24 -16 37.5t-41 13.5q-33 0 -52.5 -20t-19.5 -47q0 -41 27 -87q67 40 83 59q19 20 19 44zM272 55q-74 78 -118 143q-56 -38 -56 -85q0 -36 29.5 -61t74.5 -25q42 0 70 28z
" />
    <glyph glyph-name="numbersign.allsmall" horiz-adv-x="338" 
d="M220 299h-85l-17 -97h85zM263 339h50l-8 -40h-48l-17 -97h51l-7 -40h-50l-16 -94h-37l16 94h-85l-16 -94h-37l16 94h-49l8 40h47l17 97h-50l7 40h49l16 94h37l-16 -94h85l16 94h37z" />
    <glyph glyph-name="copyright.allsmall" horiz-adv-x="518" 
d="M488 217q0 -95 -66.5 -162t-161.5 -67q-96 0 -162.5 67t-66.5 162q0 94 67 161t162 67t161.5 -66.5t66.5 -161.5zM465 217q0 85 -59.5 145t-145.5 60q-87 0 -146.5 -60t-59.5 -145q0 -86 59.5 -146t146.5 -60q86 0 145.5 60t59.5 146zM364 98q-38 -28 -94 -28
q-61 0 -104.5 40.5t-43.5 106.5q0 65 43.5 105.5t104.5 40.5q56 0 94 -28v-46q-41 32 -90 32q-45 0 -75 -27.5t-30 -76.5t30 -77t75 -28q50 0 90 31v-45z" />
    <glyph glyph-name="Q.alt" horiz-adv-x="696" 
d="M410 -9l35 -61q27 -46 55 -64t66 -18q58 0 98 49l23 -30q-52 -67 -131 -67q-103 0 -163 111l-40 74h-5q-133 0 -220 88.5t-87 226.5q0 137 87 226t220 89q132 0 219.5 -89t87.5 -226q0 -120 -68 -204.5t-177 -104.5zM598 300q0 117 -71 190.5t-179 73.5q-110 0 -180 -73
t-70 -191t70 -191t180 -73q108 0 179 73.5t71 190.5z" />
    <glyph glyph-name="Q.alt2" horiz-adv-x="696" 
d="M598 300q0 117 -71 190.5t-179 73.5q-110 0 -180 -73t-70 -191t70 -191t180 -73q108 0 179 73.5t71 190.5zM484 14l111 -148h-65l-96 130q-42 -11 -86 -11q-133 0 -220 88.5t-87 226.5q0 137 87 226t220 89q132 0 219.5 -89t87.5 -226q0 -97 -46 -173t-125 -113z" />
    <glyph glyph-name="a.alt" horiz-adv-x="475" 
d="M223 311q-54 0 -91 -38t-37 -102q0 -65 37 -103t91 -38q53 0 90.5 38t37.5 103t-37.5 102.5t-90.5 37.5zM399 58q0 -30 22 -30q12 0 22 5v-26q-12 -14 -38 -14q-54 0 -57 62q-21 -33 -58 -50.5t-76 -17.5q-73 0 -121.5 52.5t-48.5 131.5t48.5 131t121.5 52q41 0 80 -19
t58 -56l3 62h44v-283z" />
    <glyph glyph-name="aacute.alt" horiz-adv-x="475" 
d="M223 311q-54 0 -91 -38t-37 -102q0 -65 37 -103t91 -38q53 0 90.5 38t37.5 103t-37.5 102.5t-90.5 37.5zM399 58q0 -30 22 -30q12 0 22 5v-26q-12 -14 -38 -14q-54 0 -57 62q-21 -33 -58 -50.5t-76 -17.5q-73 0 -121.5 52.5t-48.5 131.5t48.5 131t121.5 52q41 0 80 -19
t58 -56l3 62h44v-283zM172 422l123 103l28 -40l-139 -80z" />
    <glyph glyph-name="acircumflex.alt" horiz-adv-x="475" 
d="M223 311q-54 0 -91 -38t-37 -102q0 -65 37 -103t91 -38q53 0 90.5 38t37.5 103t-37.5 102.5t-90.5 37.5zM399 58q0 -30 22 -30q12 0 22 5v-26q-12 -14 -38 -14q-54 0 -57 62q-21 -33 -58 -50.5t-76 -17.5q-73 0 -121.5 52.5t-48.5 131.5t48.5 131t121.5 52q41 0 80 -19
t58 -56l3 62h44v-283zM348 431l-22 -22l-91 86l-91 -86l-22 22l113 114z" />
    <glyph glyph-name="adieresis.alt" horiz-adv-x="475" 
d="M223 311q-54 0 -91 -38t-37 -102q0 -65 37 -103t91 -38q53 0 90.5 38t37.5 103t-37.5 102.5t-90.5 37.5zM399 58q0 -30 22 -30q12 0 22 5v-26q-12 -14 -38 -14q-54 0 -57 62q-21 -33 -58 -50.5t-76 -17.5q-73 0 -121.5 52.5t-48.5 131.5t48.5 131t121.5 52q41 0 80 -19
t58 -56l3 62h44v-283zM342 415h-57v57h57v-57zM185 415h-57v57h57v-57z" />
    <glyph glyph-name="agrave.alt" horiz-adv-x="475" 
d="M223 311q-54 0 -91 -38t-37 -102q0 -65 37 -103t91 -38q53 0 90.5 38t37.5 103t-37.5 102.5t-90.5 37.5zM399 58q0 -30 22 -30q12 0 22 5v-26q-12 -14 -38 -14q-54 0 -57 62q-21 -33 -58 -50.5t-76 -17.5q-73 0 -121.5 52.5t-48.5 131.5t48.5 131t121.5 52q41 0 80 -19
t58 -56l3 62h44v-283zM298 422l-12 -17l-139 80l28 40z" />
    <glyph glyph-name="aring.alt" horiz-adv-x="475" 
d="M223 311q-54 0 -91 -38t-37 -102q0 -65 37 -103t91 -38q53 0 90.5 38t37.5 103t-37.5 102.5t-90.5 37.5zM399 58q0 -30 22 -30q12 0 22 5v-26q-12 -14 -38 -14q-54 0 -57 62q-21 -33 -58 -50.5t-76 -17.5q-73 0 -121.5 52.5t-48.5 131.5t48.5 131t121.5 52q41 0 80 -19
t58 -56l3 62h44v-283zM235 560q-25 0 -42.5 -17.5t-17.5 -42.5t17.5 -42t42.5 -17t42.5 17t17.5 42t-17.5 42.5t-42.5 17.5zM235 591q37 0 64 -26.5t27 -64.5q0 -37 -26.5 -63.5t-64.5 -26.5t-64.5 26.5t-26.5 63.5q0 38 27 64.5t64 26.5z" />
    <glyph glyph-name="atilde.alt" horiz-adv-x="475" 
d="M223 311q-54 0 -91 -38t-37 -102q0 -65 37 -103t91 -38q53 0 90.5 38t37.5 103t-37.5 102.5t-90.5 37.5zM399 58q0 -30 22 -30q12 0 22 5v-26q-12 -14 -38 -14q-54 0 -57 62q-21 -33 -58 -50.5t-76 -17.5q-73 0 -121.5 52.5t-48.5 131.5t48.5 131t121.5 52q41 0 80 -19
t58 -56l3 62h44v-283zM355 501q-1 -42 -19 -64t-46 -22q-23 0 -61.5 24.5t-51.5 24.5q-17 0 -25 -10t-10 -36h-28q1 43 19 64.5t46 21.5q23 0 61.5 -24.5t51.5 -24.5q17 0 25.5 10t9.5 36h28z" />
    <glyph glyph-name="d.alt" horiz-adv-x="475" 
d="M223 311q-54 0 -91 -38t-37 -102q0 -65 37 -103t91 -38q53 0 90.5 38t37.5 103t-37.5 102.5t-90.5 37.5zM399 58q0 -30 22 -30q12 0 22 5v-26q-12 -14 -38 -14q-54 0 -57 62q-21 -33 -58 -50.5t-76 -17.5q-73 0 -121.5 52.5t-48.5 131.5t48.5 131t121.5 52
q40 0 77.5 -17.5t56.5 -50.5v314h51v-542z" />
    <glyph glyph-name="t.alt" horiz-adv-x="261" 
d="M232 22q-30 -30 -76 -30q-41 0 -58.5 27t-17.5 85v197h-53v40h53v115h51v-115h87v-40h-87v-204q0 -64 39 -64q28 0 54 16z" />
    <glyph glyph-name="u.alt" horiz-adv-x="452" 
d="M325 57q-21 -29 -58.5 -49.5t-77.5 -20.5q-65 0 -95.5 39.5t-30.5 104.5v210h51v-207q0 -101 85 -101q43 0 84.5 31.5t41.5 73.5v203h51v-283q0 -30 22 -30q12 0 22 5v-26q-12 -14 -38 -14q-56 0 -57 64z" />
    <glyph glyph-name="uacute.alt" horiz-adv-x="452" 
d="M325 57q-21 -29 -58.5 -49.5t-77.5 -20.5q-65 0 -95.5 39.5t-30.5 104.5v210h51v-207q0 -101 85 -101q43 0 84.5 31.5t41.5 73.5v203h51v-283q0 -30 22 -30q12 0 22 5v-26q-12 -14 -38 -14q-56 0 -57 64zM156 422l123 103l28 -40l-139 -80z" />
    <glyph glyph-name="ucircumflex.alt" horiz-adv-x="452" 
d="M325 57q-21 -29 -58.5 -49.5t-77.5 -20.5q-65 0 -95.5 39.5t-30.5 104.5v210h51v-207q0 -101 85 -101q43 0 84.5 31.5t41.5 73.5v203h51v-283q0 -30 22 -30q12 0 22 5v-26q-12 -14 -38 -14q-56 0 -57 64zM332 431l-22 -22l-91 86l-91 -86l-22 22l113 114z" />
    <glyph glyph-name="udieresis.alt" horiz-adv-x="452" 
d="M325 57q-21 -29 -58.5 -49.5t-77.5 -20.5q-65 0 -95.5 39.5t-30.5 104.5v210h51v-207q0 -101 85 -101q43 0 84.5 31.5t41.5 73.5v203h51v-283q0 -30 22 -30q12 0 22 5v-26q-12 -14 -38 -14q-56 0 -57 64zM326 415h-57v57h57v-57zM169 415h-57v57h57v-57z" />
    <glyph glyph-name="ugrave.alt" horiz-adv-x="452" 
d="M325 57q-21 -29 -58.5 -49.5t-77.5 -20.5q-65 0 -95.5 39.5t-30.5 104.5v210h51v-207q0 -101 85 -101q43 0 84.5 31.5t41.5 73.5v203h51v-283q0 -30 22 -30q12 0 22 5v-26q-12 -14 -38 -14q-56 0 -57 64zM282 422l-12 -17l-139 80l28 40z" />
    <glyph glyph-name="y.alt" horiz-adv-x="440" 
d="M376 -3q0 -196 -175 -196q-70 0 -133 42v46q71 -44 138 -44q52 0 85.5 34.5t33.5 113.5v66q-20 -31 -57 -51.5t-77 -20.5q-128 0 -128 151v203h51v-197q0 -111 91 -111q45 0 82.5 36t37.5 81v191h51v-344z" />
    <glyph glyph-name="yacute.alt" horiz-adv-x="440" 
d="M376 -3q0 -196 -175 -196q-70 0 -133 42v46q71 -44 138 -44q52 0 85.5 34.5t33.5 113.5v66q-20 -31 -57 -51.5t-77 -20.5q-128 0 -128 151v203h51v-197q0 -111 91 -111q45 0 82.5 36t37.5 81v191h51v-344zM151 422l123 103l28 -40l-139 -80z" />
    <glyph glyph-name="ydieresis.alt" horiz-adv-x="440" 
d="M376 -3q0 -196 -175 -196q-70 0 -133 42v46q71 -44 138 -44q52 0 85.5 34.5t33.5 113.5v66q-20 -31 -57 -51.5t-77 -20.5q-128 0 -128 151v203h51v-197q0 -111 91 -111q45 0 82.5 36t37.5 81v191h51v-344zM327 415h-57v57h57v-57zM170 415h-57v57h57v-57z" />
    <glyph glyph-name="mu.alt" horiz-adv-x="452" 
d="M63 341h51v-207q0 -101 85 -101q43 0 84.5 31.5t41.5 73.5v203h51v-283q0 -30 22 -30q12 0 22 5v-26q-12 -14 -38 -14q-56 0 -57 64q-21 -29 -58.5 -49.5t-77.5 -20.5q-45 0 -75 22v-204h-51v536z" />
    <glyph glyph-name="ordfeminine.alt" horiz-adv-x="427" 
d="M201 573q-49 0 -81.5 -33t-32.5 -91t32.5 -91.5t81.5 -33.5q48 0 81.5 33.5t33.5 91.5q0 59 -33.5 91.5t-81.5 32.5zM359 347q0 -27 20 -27q10 0 20 5v-24q-13 -13 -35 -13q-48 0 -51 56q-18 -30 -51.5 -45.5t-68.5 -15.5q-66 0 -109.5 47t-43.5 119q0 71 43.5 118
t109.5 47q37 0 71.5 -17t52.5 -51l2 56h40v-255z" />
    </font>
</defs>
</svg>
