<?xml version="1.0" encoding="utf-8"?>
<!-- Generator: Adobe Illustrator 21.1.0, SVG Export Plug-In . SVG Version: 6.00 Build 0)  -->
<svg version="1.1" id="Layer_1" xmlns="http://www.w3.org/2000/svg" xmlns:xlink="http://www.w3.org/1999/xlink" x="0px" y="0px"
	 width="67.719px" height="67.719px" viewBox="0 0 67.719 67.719" style="enable-background:new 0 0 67.719 67.719;"
	 xml:space="preserve">
<style type="text/css">
	.st0{opacity:0.26;fill:#FFFFFF;enable-background:new    ;}
	.st1{fill:#FFFFFF;}
</style>
<g>
	<circle class="st0" cx="33.86" cy="33.86" r="33.86"/>
	<g>
		<path class="st1" d="M36.21,42.321l-4.902,8.529c-4.164-0.627-7.645-2.54-10.443-5.742c-2.798-3.201-4.197-6.951-4.197-11.249
			c0-2.999,0.739-5.82,2.216-8.462l6.984,12.222c0.716,1.477,1.79,2.686,3.224,3.626c1.432,0.94,3.022,1.41,4.768,1.41
			C34.666,42.657,35.449,42.546,36.21,42.321z M25.331,31.644l-4.902-8.529c1.612-2.015,3.581-3.593,5.91-4.735
			c2.328-1.142,4.835-1.712,7.522-1.712c3.089,0,5.943,0.762,8.562,2.283c2.619,1.522,4.689,3.582,6.212,6.178H34.598
			c-0.224-0.044-0.47-0.067-0.739-0.067c-2.015,0-3.817,0.616-5.406,1.847C26.864,28.141,25.823,29.719,25.331,31.644z
			 M29.461,38.258c-1.232-1.231-1.847-2.697-1.847-4.399c0-1.701,0.615-3.167,1.847-4.399c1.231-1.231,2.697-1.847,4.399-1.847
			c1.701,0,3.167,0.616,4.399,1.847c1.231,1.232,1.847,2.698,1.847,4.399c0,1.702-0.616,3.168-1.847,4.399
			c-1.232,1.232-2.698,1.847-4.399,1.847C32.158,40.105,30.692,39.49,29.461,38.258z M40.038,27.547h9.805
			c0.806,2.015,1.209,4.119,1.209,6.313c0,4.701-1.657,8.73-4.97,12.088c-3.314,3.358-7.32,5.059-12.021,5.104l7.051-12.155
			c1.029-1.522,1.545-3.201,1.545-5.037C42.657,31.398,41.784,29.293,40.038,27.547z"/>
	</g>
</g>
</svg>
