<?xml version="1.0" encoding="utf-8"?>
<!-- Generator: Adobe Illustrator 21.1.0, SVG Export Plug-In . SVG Version: 6.00 Build 0)  -->
<svg version="1.1" id="Layer_1" xmlns="http://www.w3.org/2000/svg" xmlns:xlink="http://www.w3.org/1999/xlink" x="0px" y="0px"
	 width="67.719px" height="67.719px" viewBox="0 0 67.719 67.719" style="enable-background:new 0 0 67.719 67.719;"
	 xml:space="preserve">
<style type="text/css">
	.st0{opacity:0.1;fill:#FFFFFF;}
	.st1{fill:#FFFFFF;}
</style>
<g>
	<path class="st0" d="M33.859,0C15.159,0,0,15.16,0,33.86c0,18.701,15.16,33.86,33.86,33.86s33.86-15.159,33.86-33.86
		C67.72,15.16,52.56,0,33.859,0"/>
	<path class="st1" d="M52.942,28.518c-0.183,0.487-0.324,0.986-0.508,1.473c-0.18-2.024-0.552-4.03-1.239-5.934
		c-0.466-1.176-1-2.352-1.901-3.257c0.146,1.128,0.459,2.225,0.455,3.37c-0.266-0.864-0.573-1.74-1.113-2.474
		c-1.166-1.728-3.024-2.876-4.996-3.47c-0.514-0.155-1.053-0.24-1.514-0.506c-2.847-1.583-6.146-2.329-9.397-2.179
		c-4.232,0.143-8.361,1.896-11.405,4.829c-0.473,0.465-0.904,0.97-1.377,1.449c-0.861-0.962-1.314-2.194-1.396-3.475
		c-0.745,0.664-1.167,1.61-1.465,2.541c-0.415,1.305-0.62,2.689-0.454,4.051c0.02,0.303,0.109,0.632-0.092,0.898
		c-1.043,1.594-1.875,3.404-2.042,5.325c0.34-0.241,0.666-0.497,1.005-0.738c-0.124,0.692-0.302,1.386-0.398,2.091
		c-0.413,3.388,0.28,6.891,1.955,9.877c1.832,3.218,4.618,5.851,7.868,7.618c3.655,1.979,7.986,2.649,12.082,1.902
		c3.572-0.666,7.015-2.31,9.525-4.969c1.782-1.885,3.325-4,4.421-6.354C52.756,36.854,53.454,32.604,52.942,28.518 M46.337,33.951
		c-0.388-0.75-0.6-1.643-1.327-2.152c0.218,1.899,0.341,3.828-0.048,5.711c-0.236,1.274-0.776,2.513-1.681,3.456
		c0.146-0.914,0.279-1.841,0.205-2.764c-1.301,1.834-2.879,3.536-4.914,4.558c-1.72,0.877-3.775,0.878-5.606,0.35
		c-1.666-0.504-3.121-1.494-4.413-2.627l0.441-0.009c1.243,0.058,2.494-0.147,3.672-0.517s2.043-1.271,3.064-1.912
		c0.477-0.299,1.086-0.188,1.606-0.351c0.327-0.186,0.428-0.671,0.119-0.926c-0.789-0.825-1.92-1.479-3.089-1.316
		c-1.127,0.188-2.035,0.98-3.147,1.265c-0.797,0.155-1.615-0.076-2.326-0.421c-1.017-0.489-1.793-1.329-2.527-2.155l-0.323-0.255
		c-0.002-0.124-0.005-0.262,0.006-0.386c0.062-0.346,0.249-0.654,0.408-0.974l0.185-0.39c1.118,0.06,2.225,0.216,3.32,0.47
		c-0.035-1.034-0.128-2.205-0.78-3.046l0.217-0.17c0.692-0.566,1.327-1.228,2.104-1.671c0.314-0.172,0.599-0.399,0.828-0.666
		l0.046-0.47h-0.014c0.01-0.18-0.021-0.372-0.025-0.551c-0.387-0.033-0.773-0.053-1.173-0.045l-1.077-0.047l-0.251-0.146
		c-0.74-0.44-1.387-1.033-2.086-1.529l-0.281-0.243l0.034-0.373c0.227-1.729,1.467-3.106,2.77-4.168
		c-0.935,0.157-1.853,0.438-2.686,0.883c-0.874,0.445-1.619,1.109-2.35,1.759c-1.511-0.355-3.119-0.087-4.542,0.494
		c-0.696,0.332-1.321,0.813-2.003,1.186c0.432-0.45,0.935-0.805,1.423-1.202c0.435-0.34,0.756-0.802,1.134-1.196
		c2.807-3.01,6.783-4.871,10.874-5.163c2.714-0.194,5.521,0.176,8.001,1.325c-0.663-0.014-1.312-0.042-1.974-0.015
		c1.484,0.411,3.218,0.844,4.075,2.261c-0.758,0.043-1.53,0.073-2.256,0.336c2.127,0.77,4.271,1.733,5.877,3.383
		c0.959,0.987,1.634,2.284,1.635,3.69c-0.504-0.362-1.021-0.696-1.578-0.96C46.547,28.747,46.974,31.4,46.337,33.951"/>
</g>
</svg>
