<?xml version="1.0" encoding="utf-8"?>
<!-- Generator: Adobe Illustrator 21.1.0, SVG Export Plug-In . SVG Version: 6.00 Build 0)  -->
<svg version="1.1" id="Layer_1" xmlns="http://www.w3.org/2000/svg" xmlns:xlink="http://www.w3.org/1999/xlink" x="0px" y="0px"
	 width="67.719px" height="67.719px" viewBox="0 0 67.719 67.719" style="enable-background:new 0 0 67.719 67.719;"
	 xml:space="preserve">
<style type="text/css">
	.st0{opacity:0.26;fill:#FFFFFF;enable-background:new    ;}
	.st1{fill:#FFFFFF;}
</style>
<circle class="st0" cx="33.86" cy="33.86" r="33.86"/>
<g>
	<path class="st1" d="M27.648,35.323v0.072c0,1.16,0.265,2.273,0.798,3.337c0.628,1.112,1.487,1.994,2.575,2.647
		c1.088,0.653,2.296,0.979,3.627,0.979c1.33,0,2.539-0.326,3.627-0.979c1.088-0.653,1.946-1.535,2.575-2.647h8.631
		c-1.113,3.144-3.046,5.718-5.803,7.724c-2.756,2.007-5.852,3.01-9.284,3.01c-2.563,0-4.981-0.556-7.253-1.668
		c-5.077,2.467-8.729,2.586-10.952,0.363c-0.774-0.725-1.161-1.934-1.161-3.626c0-1.692,0.326-3.578,0.979-5.658
		c0.653-2.078,1.741-4.363,3.264-6.854c1.523-2.49,3.324-4.751,5.404-6.782c1.208-1.257,1.982-2.031,2.321-2.321
		c-2.999,1.451-5.706,3.699-8.124,6.745c0.87-3.529,2.744-6.431,5.621-8.704c2.876-2.272,6.177-3.409,9.901-3.409
		c0.387,0,0.773,0.025,1.16,0.073c2.708-1.208,5.173-1.886,7.398-2.031c2.224-0.145,3.795,0.218,4.715,1.088
		c1.837,1.886,2.006,4.836,0.508,8.849c1.402,2.466,2.103,5.126,2.103,7.979c0,0.677-0.025,1.282-0.073,1.814h-8.559L27.648,35.323
		L27.648,35.323z M26.125,47.218c-3.24-1.983-5.512-4.762-6.818-8.342c-2.176,4.256-2.466,7.181-0.87,8.776
		C19.838,49.055,22.401,48.91,26.125,47.218z M41.067,31.116c-0.097-1.741-0.798-3.228-2.103-4.461
		c-1.306-1.233-2.841-1.85-4.606-1.85c-1.766,0-3.3,0.616-4.606,1.85c-1.306,1.233-2.007,2.72-2.103,4.461H41.067z M40.269,18.713
		c3.094,1.258,5.56,3.289,7.398,6.093c1.112-2.998,1.063-5.101-0.145-6.31C46.216,17.142,43.798,17.214,40.269,18.713z"/>
</g>
</svg>
