<?xml version="1.0" encoding="utf-8"?>
<!-- Generator: Adobe Illustrator 18.1.0, SVG Export Plug-In . SVG Version: 6.00 Build 0)  -->
<svg version="1.1" id="Layer_1" xmlns="http://www.w3.org/2000/svg" xmlns:xlink="http://www.w3.org/1999/xlink" x="0px" y="0px"
	 viewBox="0 0 293.4 85" enable-background="new 0 0 293.4 85" xml:space="preserve">
<g>
	<g>
		<rect x="28.4" y="57.3" width="236.6" height="0.4"/>
	</g>
	<g>
		<path d="M92.5,72.3h4.1c2.5,0,3.6,1.5,3.6,3.3c0,1-0.6,1.9-1.3,2.5c1.2,0.5,2,1.8,2,3.1c0,2-1.2,3.7-4.1,3.7h-4.3V72.3z
			 M96.6,77.4c1.6,0,2-0.9,2-1.9c0-1-0.5-1.9-2-1.9h-2.5v3.8H96.6z M96.8,83.4c1.9,0,2.4-1.1,2.4-2.3c0-1.1-0.6-2.3-2.4-2.3h-2.7
			v4.5H96.8z"/>
		<path d="M111.3,72.3h1.1l5.4,12.5H116l-1.5-3.5H109l-1.5,3.5h-1.6L111.3,72.3z M114,79.9l-2.2-5.1l-2.2,5.1H114z"/>
		<path d="M123.5,72.3h1.7v5.2h6.9v-5.2h1.7v12.5H132v-5.9h-6.9v5.9h-1.7V72.3z"/>
		<path d="M144.9,72.3h1.1l5.4,12.5h-1.7l-1.5-3.5h-5.5l-1.5,3.5h-1.6L144.9,72.3z M147.5,79.9l-2.2-5.1l-2.2,5.1H147.5z"/>
		<path d="M157.1,72.3h1.6l4.8,10.4l4.8-10.4h1.5v12.5h-1.6v-8.5c0-0.3,0-1,0-1c0,0.1-0.3,0.7-0.4,1l-3.9,8.5h-1.1l-3.9-8.5
			c-0.1-0.3-0.4-1-0.4-1c0,0,0,0.7,0,1v8.5h-1.5V72.3z"/>
		<path d="M181,72.3h1.1l5.4,12.5h-1.7l-1.5-3.5h-5.5l-1.5,3.5h-1.6L181,72.3z M183.7,79.9l-2.2-5.1l-2.2,5.1H183.7z"/>
		<path d="M192.6,83.5L193,82c0.7,0.8,2,1.7,3.8,1.7c1.5,0,2.6-0.8,2.6-2.2c0-1.3-0.6-2-3-2.6c-2.3-0.6-3.5-1.9-3.5-3.6
			c0-1.8,1.5-3.2,4-3.2c1.4,0,2.7,0.5,3.4,1.1l-0.4,1.4c-0.8-0.6-2-1.1-3-1.1c-1.6,0-2.5,0.7-2.5,1.9c0,0.9,0.6,1.6,2.5,2.2
			c2.7,0.7,3.9,1.9,3.9,3.9c0,2.4-2,3.7-4.2,3.7C194.7,85,193.3,84.2,192.6,83.5z"/>
	</g>
	<g>
		<g>
			<path d="M16.6,0h0.1l16.4,41.3h-4.5l-4.9-12.5H7.7l-5,12.5H0L16.6,0z M8.4,26.8h14.4L15.7,8.2L8.4,26.8z"/>
			<path d="M57.9,41.3V1.1h4.3v38.2h14.9v2H57.9z"/>
			<path d="M101.4,1.1h8.2c10.5,0,16.2,3.2,16.2,10.5c0,4.7-2.5,7.4-6.6,8.5v0.1c5,1.3,9.2,4.8,9.2,10.3c0,6.9-5.2,10.7-12.6,10.7
				h-14.4V1.1z M105.8,19.3h5.7c7,0,10-2.8,10-7.8c0-6.1-4.2-8.4-12.1-8.4h-3.7V19.3z M105.8,39.3h6.9c7.9,0,11.2-2.8,11.2-8.5
				c0-5.5-3.4-9.4-11.6-9.4h-6.5V39.3z"/>
			<path d="M166.5,0h0.1L183,41.3h-4.5l-4.9-12.5h-16.1l-5,12.5h-2.7L166.5,0z M158.3,26.8h14.4l-7.1-18.6L158.3,26.8z"/>
			<path d="M207.5,41.3V1.1h3.8L234.8,32h0.1V1.1h2.5v41.3h-0.1L210.1,7.1H210v34.2H207.5z"/>
			<path d="M279.8,20.6v20.6h-4.3V21.1L260.9,1.1h4.9l13.1,17.4l12.6-17.4h2L279.8,20.6z"/>
		</g>
		<g>
			<path d="M285.5,37.5c0-2.1,1.7-3.7,3.8-3.7c2.1,0,3.7,1.7,3.7,3.7c0,2.1-1.7,3.7-3.7,3.7C287.2,41.3,285.5,39.6,285.5,37.5z
				 M289.3,34.2c-1.9,0-3.2,1.5-3.2,3.3c0,1.8,1.4,3.3,3.2,3.3c1.8,0,3.2-1.4,3.2-3.3C292.5,35.7,291.1,34.2,289.3,34.2z
				 M288.4,39.8h-0.5v-4.4h1.7c1,0,1.4,0.4,1.4,1.2c0,0.8-0.5,1.2-1.1,1.2l1.3,2h-0.6l-1.2-2h-1V39.8z M289.2,37.3
				c0.7,0,1.3,0,1.3-0.8c0-0.6-0.5-0.8-1.1-0.8h-1.1v1.6H289.2z"/>
		</g>
	</g>
</g>
</svg>
