<?xml version="1.0" encoding="utf-8"?>
<!-- Generator: Adobe Illustrator 21.1.0, SVG Export Plug-In . SVG Version: 6.00 Build 0)  -->
<svg version="1.1" id="Layer_1" xmlns="http://www.w3.org/2000/svg" xmlns:xlink="http://www.w3.org/1999/xlink" x="0px" y="0px"
	 width="67.719px" height="67.719px" viewBox="0 0 67.719 67.719" style="enable-background:new 0 0 67.719 67.719;"
	 xml:space="preserve">
<style type="text/css">
	.st0{opacity:0.26;fill:#FFFFFF;enable-background:new    ;}
	.st1{fill:#FFFFFF;}
</style>
<circle class="st0" cx="33.86" cy="33.86" r="33.86"/>
<path class="st1" d="M46.893,22.057c3.614,3.614,5.421,7.958,5.421,13.033s-1.807,9.419-5.421,13.033
	c-3.614,3.614-7.958,5.421-13.033,5.421s-9.419-1.807-13.033-5.421c-3.614-3.614-5.421-7.958-5.421-13.033
	c0-4.152,1.255-7.868,3.768-11.149c2.51-3.28,5.715-5.485,9.611-6.613v-0.077c-0.667-0.154-1.051-0.512-1.153-1.076
	c-0.104-0.41,0.012-0.807,0.346-1.192c0.333-0.385,0.78-0.627,1.346-0.731c0.204-0.051,0.409-0.077,0.615-0.077
	c1.024,0,1.615,0.384,1.768,1.153c0.154,0.513-0.052,0.974-0.615,1.384c0,0.052,0.025,0.103,0.077,0.154
	c0.871-0.154,1.768-0.231,2.691-0.231C38.934,16.636,43.279,18.443,46.893,22.057z M47.854,35.09c0-0.615-0.052-1.23-0.154-1.845
	l-3.076-0.461l2.691-1.615c-0.667-2.307-1.845-4.306-3.537-5.997c-2.768-2.716-6.074-4.075-9.919-4.075
	c-0.615,0-1.23,0.052-1.845,0.154l-0.461,3.076l-1.615-2.691c-2.307,0.667-4.306,1.845-5.997,3.537
	c-2.718,2.768-4.075,6.074-4.075,9.919c0,0.615,0.05,1.23,0.154,1.845l3.076,0.461l-2.691,1.615
	c0.665,2.307,1.845,4.306,3.537,5.997c2.768,2.717,6.074,4.075,9.919,4.075c0.615,0,1.23-0.051,1.845-0.154l0.461-3.076l1.615,2.691
	c2.307-0.666,4.306-1.845,5.997-3.537C46.495,42.241,47.854,38.935,47.854,35.09z M37.704,33.091v0.077l4.613,0.154l-4.152,1.922
	c0,0.565-0.129,1.128-0.385,1.692l1.769,1.845l-2.46-0.846c-0.359,0.411-0.796,0.743-1.307,1l-0.154,4.613l-1.922-4.152
	c-0.667-0.051-1.282-0.204-1.845-0.461l-7.535,5.69l5.69-7.535v-0.077l-4.613-0.154l4.152-1.922c0-0.564,0.127-1.127,0.384-1.692
	L28.17,31.4l2.46,0.846c0.358-0.41,0.794-0.743,1.307-1l0.154-4.613l1.922,4.152c0.665,0.052,1.28,0.205,1.845,0.461l7.535-5.69
	L37.704,33.091z M28.939,16.636c0.204-0.308,0.473-0.5,0.807-0.577c0.333-0.077,0.654-0.012,0.961,0.192
	c0.358-0.256,0.511-0.538,0.461-0.846c-0.104-0.41-0.513-0.615-1.23-0.615c-0.154,0-0.308,0.026-0.461,0.077
	c-0.411,0.052-0.744,0.205-1,0.461c-0.258,0.257-0.359,0.488-0.308,0.692C28.272,16.329,28.527,16.534,28.939,16.636z
	 M30.784,33.091c-0.565,0.872-0.744,1.795-0.538,2.768c0.05,0.206,0.127,0.436,0.231,0.692l2.076-2.768l2.768-2.076
	c-0.308-0.154-0.642-0.256-0.999-0.308c-0.154,0-0.308,0-0.461,0c-0.258,0-0.513,0.026-0.769,0.077
	C32.116,31.681,31.347,32.22,30.784,33.091z M37.243,36.551c0.308-0.717,0.384-1.461,0.231-2.23
	c-0.052-0.204-0.129-0.435-0.231-0.692l-2.076,2.768l-2.768,2.076c0.308,0.154,0.64,0.257,0.999,0.308c0.154,0,0.308,0,0.461,0
	c0.256,0,0.511-0.026,0.769-0.077c0.409-0.102,0.794-0.256,1.153-0.461C36.447,37.833,36.935,37.269,37.243,36.551z"/>
</svg>
